<svg width="48" height="48" viewBox="0 0 48 48" xmlns="http://www.w3.org/2000/svg"><title>Angry-big</title><path d="M24 48C10.745 48 0 37.255 0 24S10.745 0 24 0s24 10.745 24 24-10.745 24-24 24zm0-3c11.598 0 21-9.402 21-21S35.598 3 24 3 3 12.402 3 24s9.402 21 21 21zm-9.545-12.761c1.083-2.054 2.42-3.622 4.01-4.705 1.592-1.083 3.436-1.625 5.535-1.625 4.152 0 7.334 2.11 9.545 6.33h-19.09zm3.259-9.03l-7.637-3.818 1.118-2.236 7.637 3.818-1.118 2.236zm12.572 0l-1.118-2.236 7.637-3.818 1.118 2.236-7.637 3.818z" fill="#000" fill-rule="nonzero"/></svg>