<?xml version="1.0" encoding="UTF-8"?>
<svg width="26px" height="26px" viewBox="0 0 26 26" version="1.1" xmlns="http://www.w3.org/2000/svg" xmlns:xlink="http://www.w3.org/1999/xlink">
    <!-- Generator: Sketch 49.2 (51160) - http://www.bohemiancoding.com/sketch -->
    <title>Emotions/Flatten/FiredUp</title>
    <desc>Created with Sketch.</desc>
    <defs></defs>
    <g id="Page-1" stroke="none" stroke-width="1" fill="none" fill-rule="evenodd">
        <g id="expressions-Flatten" transform="translate(-688.000000, -165.000000)" fill="#000000" fill-rule="nonzero">
            <path d="M709.862433,173.680415 C710.269926,173.879734 710.642053,174.067513 711.039473,174.273444 C713.780141,175.693542 714.610202,177.901595 713.557683,180.80392 C712.530304,183.636315 711.199698,185.992261 709.397307,187.969991 C706.901155,190.708815 703.964826,191.708286 700.603233,190.483701 L700.626944,190.491723 C700.622765,190.490317 700.618376,190.488822 700.613772,190.487232 C700.686518,190.511468 700.701687,190.513606 700.686941,190.514358 C700.590172,190.519291 700.455263,190.538904 700.246334,190.579006 C696.241695,191.349377 693.383385,189.98553 691.489036,186.386732 C690.474465,184.459288 689.88787,182.344456 689.605554,179.901866 C689.586746,179.738473 689.584985,179.587543 689.594161,179.435872 C689.599121,179.353888 689.606323,179.283695 689.615433,179.207543 C689.616268,179.199993 689.635472,178.918936 689.673044,178.364372 C688.742518,177.049545 688.198239,175.514998 688.016215,173.900033 L688,173.756167 L688.004685,173.611466 C688.073187,171.495534 689.110405,169.923121 690.982917,169.490513 C691.268118,169.424562 691.545926,169.392312 691.813282,169.392373 C692.284183,167.45979 694.088758,166.059263 696.280753,166.325683 C696.757693,166.383781 697.201771,166.516346 697.597041,166.718602 C698.002591,166.150509 698.56601,165.685221 699.253944,165.372744 C700.949214,164.602702 702.79967,165.070826 703.862449,166.362261 C704.56503,165.75808 705.4875,165.453959 706.555564,165.564817 C708.80695,165.798182 710.617217,167.906971 710.388929,170.177386 C710.379577,170.270357 710.369459,170.364213 710.358567,170.459238 C710.281137,171.134783 710.277099,171.160305 709.977868,172.964708 C709.932138,173.240468 709.896029,173.463738 709.862433,173.680415 Z M705.021005,173.622812 C704.766463,173.504256 704.476396,173.446546 704.196214,173.39881 C703.332461,173.251613 702.828534,173.583483 702.604789,174.428193 C702.329763,175.466838 702.779974,176.231466 703.561649,176.851034 C704.831495,177.857475 706.340555,178.286385 707.897316,178.595029 C708.457108,178.70589 709.014178,178.830715 709.572681,178.949271 C709.575259,179.034483 709.577981,179.119695 709.580703,179.204764 C708.924508,179.37932 708.265879,179.706061 707.612693,179.695944 C706.327807,179.676137 705.020575,179.527088 704.005844,178.586336 C703.617514,178.226252 703.270437,178.281682 702.847298,178.499842 C701.745906,179.067969 700.780737,179.807945 700.108787,180.842315 C699.66058,181.532276 699.342009,182.30816 698.991924,183.057684 C698.743685,183.589617 698.25136,183.816469 697.960291,183.434298 C697.786108,183.205451 697.736546,182.758872 697.828508,182.473027 C698.478256,180.454729 699.721745,178.875886 701.531902,177.746899 C701.739174,177.617656 701.949597,177.493258 702.292949,177.285073 C701.633174,177.160817 701.120939,177.149133 700.686914,176.959757 C700.223524,176.757414 699.834047,176.387213 699.381114,176.068452 C699.098497,176.8925 698.662323,177.590725 697.792984,177.942259 C696.874369,178.313744 696.078083,177.997832 695.307581,177.536149 C694.252027,179.717176 693.978863,179.848556 691.613212,179.326027 C691.60519,179.445153 691.57955,179.561286 691.592442,179.673287 C691.825784,181.692155 692.303641,183.640773 693.258926,185.455588 C694.744065,188.276986 696.731413,189.21902 699.868425,188.615554 C700.323507,188.528205 700.857802,188.447268 701.268335,188.597885 C704.00255,189.601904 706.109219,188.609 707.918945,186.623333 C709.644159,184.730289 710.811586,182.509506 711.677488,180.122289 C712.38482,178.171819 711.975146,177.010343 710.119152,176.048645 C708.449373,175.183416 706.727167,174.417506 705.021005,173.622812 Z M695.926261,176.305577 C696.743459,177.165962 697.8576,176.868005 698.142796,175.708096 C698.254239,175.254678 698.463806,174.866107 698.389747,174.264908 C698.315687,173.663709 697.726104,171.026854 697.367424,169.413812 C697.216017,168.732401 696.720827,168.393549 696.038849,168.310474 C694.52764,168.126798 693.366802,169.450861 693.776476,171.032269 C694.143463,172.448811 694.652834,173.831724 695.15891,175.207939 C695.308169,175.61405 695.620438,175.983539 695.926261,176.305577 Z M701.315577,175.915954 C701.315577,175.672572 701.325031,175.579951 701.314144,175.489466 C701.152567,174.12807 701.476438,172.997088 702.786392,172.299433 C702.912302,172.232318 703.026753,171.996204 703.016439,171.847297 C702.939948,170.736692 702.902705,169.615827 702.712622,168.522321 C702.491742,167.251267 701.240088,166.666753 700.081255,167.193129 C699.222946,167.582995 698.732483,168.397496 698.91168,169.408069 C699.197019,171.016267 699.535788,172.618052 699.929275,174.20345 C700.099017,174.887283 700.529318,175.46852 701.315577,175.915954 Z M693.902558,175.627473 C693.567657,174.441915 693.119451,173.287849 692.711353,172.123096 C692.488897,171.487996 692.099134,171.284656 691.433629,171.43855 C690.566438,171.638898 690.046324,172.357642 690.003638,173.676148 C690.164213,175.100812 690.704381,176.655146 691.881978,177.917366 C692.670815,178.76293 693.729664,178.489483 693.987644,177.359213 C694.112408,176.81303 694.057117,176.173941 693.902558,175.627473 Z M707.883436,173.39093 C708.071656,172.174308 708.287953,171.080945 708.398966,169.977322 C708.516281,168.810574 707.509572,167.673892 706.349307,167.553627 C705.338874,167.44875 704.628248,168.110069 704.442176,169.409908 C704.335173,170.158433 704.297071,170.919641 704.281887,171.676146 C704.278593,171.847568 704.460654,172.117738 704.621945,172.182003 C705.656157,172.594241 706.70813,172.961735 707.883436,173.39093 Z" id="Emotions/Flatten/FiredUp"></path>
        </g>
    </g>
</svg>