<?xml version="1.0" encoding="UTF-8"?>
<svg width="48px" height="48px" viewBox="0 0 48 48" version="1.1" xmlns="http://www.w3.org/2000/svg" xmlns:xlink="http://www.w3.org/1999/xlink">
    <!-- Generator: Sketch 49.2 (51160) - http://www.bohemiancoding.com/sketch -->
    <title>Emotions/Flatten/FiredUp-big</title>
    <desc>Created with Sketch.</desc>
    <defs></defs>
    <g id="Page-1" stroke="none" stroke-width="1" fill="none" fill-rule="evenodd">
        <g id="expressions-Flatten" transform="translate(-688.000000, -70.000000)" fill="#000000" fill-rule="nonzero">
            <path d="M727.931507,86.2774464 C728.990975,86.7876788 729.884385,87.2347537 730.855803,87.7380965 C735.669503,90.2322739 737.063744,93.9409901 735.211196,99.0492259 C733.276112,104.383909 730.779522,108.804175 727.407696,112.503892 C722.851556,117.502806 717.606006,119.280232 711.543507,117.054123 C711.518874,117.045086 711.104304,117.06622 710.354676,117.2101 C703.087759,118.607987 698.033192,116.196273 694.597292,109.669128 C692.708406,106.080814 691.612382,102.12949 691.082508,97.5451875 C691.034838,97.1310577 691.048965,96.8975592 691.101462,96.4437545 C691.105038,96.4128362 691.151932,95.7320166 691.242142,94.401296 C689.426214,91.9544177 688.368273,89.057095 688.022894,85.9929005 L688,85.7897892 L688.006614,85.5854994 C688.124636,81.9401318 689.842743,79.3355848 692.945612,78.6187502 C693.732375,78.4368218 694.476394,78.408963 695.157833,78.5263281 C695.586829,74.8520674 698.801443,72.0599757 702.78973,72.5447052 C703.938317,72.6846147 704.961015,73.0766971 705.785659,73.7004856 C706.457689,72.3763775 707.587416,71.2958573 709.062832,70.6257086 C712.286346,69.1615419 715.815596,70.3637669 717.373153,73.2232334 C718.585554,71.6784532 720.399004,70.854581 722.589707,71.0819537 C726.372741,71.4740658 729.435877,75.0422078 729.054168,78.8383106 C729.036645,79.0125077 729.017674,79.188487 728.997238,79.366781 C728.851097,80.6417554 728.843347,80.6907262 728.271445,84.1392661 C728.180658,84.686704 728.109328,85.1280837 728.04263,85.5591915 L727.931507,86.2774464 Z M729.556429,90.2443357 C726.341672,88.5786016 723.02598,87.1040758 719.741175,85.5741353 C719.251115,85.3458924 718.692662,85.2347886 718.153238,85.1428879 C716.49029,84.8595046 715.520099,85.4984201 715.089332,87.1246506 C714.559836,89.1242448 715.42661,90.5963016 716.931537,91.7890901 C719.376319,93.7266856 722.281652,94.55242 725.278819,95.1466196 C726.356564,95.3600487 727.429069,95.6003621 728.504332,95.8286049 C728.509296,95.9926545 728.514536,96.1567041 728.519776,96.3204793 C727.256431,96.656534 725.988399,97.2855736 724.730846,97.2660961 C722.257107,97.2279642 719.740347,96.9410146 717.786728,95.1298855 C717.039091,94.4366526 716.370878,94.5433671 715.556226,94.9633669 C713.435761,96.0571221 711.577561,97.4817198 710.283881,99.4730841 C709.420968,100.801392 708.807635,102.295121 708.133631,103.738098 C707.655706,104.762174 706.707853,105.198908 706.14747,104.463154 C705.812123,104.022579 705.716703,103.162828 705.893753,102.612521 C707.144687,98.7269054 709.538726,95.6873248 713.023747,93.5138052 C713.422799,93.2649875 713.827919,93.0254971 714.488961,92.6247004 C713.218722,92.3854843 712.232536,92.3629892 711.396926,91.9984042 C710.50478,91.608855 709.754937,90.8961447 708.882923,90.2824676 C708.338811,91.8689202 707.499063,93.2131391 705.82536,93.8899121 C704.056788,94.6050914 702.523732,93.996901 701.040316,93.1080705 C699.0081,97.3069714 698.482189,97.559904 693.927697,96.5539345 C693.912253,96.7832747 693.862889,97.0068539 693.887709,97.2224776 C694.336953,101.10919 695.256952,104.860658 697.096123,108.35453 C699.955401,113.786272 703.781561,115.59987 709.821124,114.438081 C710.697274,114.269916 711.72593,114.114097 712.516313,114.404064 C717.780385,116.336996 721.836269,114.425461 725.320462,110.602668 C728.641946,106.958189 730.889546,102.68275 732.55663,98.0868926 C733.918428,94.3318584 733.129699,92.0957914 729.556429,90.2443357 Z M702.231434,90.7389808 C703.804754,92.3953877 705.949764,91.8217628 706.49884,89.5887135 C706.713396,88.7157942 707.116868,87.9677199 706.974283,86.8102954 C706.831699,85.6528709 705.696599,80.5764118 705.006048,77.4709919 C704.714549,76.159144 703.761181,75.5067864 702.448196,75.3468518 C699.538727,74.9932399 697.303813,77.5423178 698.092541,80.5868364 C698.799087,83.3139547 699.779758,85.9763311 700.754085,88.6258139 C701.041447,89.4076555 701.642646,90.1189941 702.231434,90.7389808 Z M709.938275,86.6919767 C710.265073,88.0084882 711.093513,89.1274819 712.607265,89.9888792 C712.607265,89.520323 712.625466,89.3420082 712.604507,89.1678084 C712.293428,86.546856 712.916965,84.3694957 715.438965,83.0263742 C715.681375,82.8971646 715.901722,82.4425991 715.881866,82.1559239 C715.7346,80.0177929 715.662898,77.8599101 715.296939,75.7546988 C714.871687,73.3076718 712.461929,72.1823685 710.230876,73.195745 C708.578408,73.9463129 707.63414,75.5143853 707.97914,77.4599364 C708.528492,80.5560291 709.180709,83.6397769 709.938275,86.6919767 Z M698.499095,92.7674345 C698.739298,91.7159262 698.632847,90.4855544 698.335282,89.4334974 C697.69051,87.1510686 696.827597,84.9292669 696.041903,82.6868903 C695.613618,81.4641998 694.863223,81.0727304 693.581953,81.3690072 C691.912386,81.7547157 690.911032,83.1384381 690.82885,85.6768171 C691.137998,88.4195723 692.177961,91.4119681 694.445141,93.8419866 C695.963857,95.4698631 698.002416,94.9434231 698.499095,92.7674345 Z M718.972881,82.8002985 C720.964007,83.5939363 722.989329,84.3014344 725.252096,85.1277175 C725.61447,82.7854847 726.030897,80.6805476 726.244625,78.5558588 C726.470488,76.3096417 724.532313,74.1213082 722.298502,73.8897734 C720.353156,73.6878662 718.985016,74.9610335 718.626779,77.4634753 C718.420772,78.9045328 718.347414,80.3700057 718.318182,81.8264256 C718.311839,82.1564451 718.662354,82.6765755 718.972881,82.8002985 Z" id="Emotions/Flatten/FiredUp-big"></path>
        </g>
    </g>
</svg>