<svg width="48" height="48" viewBox="0 0 48 48" xmlns="http://www.w3.org/2000/svg"><title>FiredUp-big</title><path d="M39.932 16.277c1.059.51 1.952.958 2.924 1.461 4.814 2.494 6.208 6.203 4.355 11.311-1.935 5.335-4.431 9.755-7.803 13.455-4.556 4.999-9.802 6.776-15.864 4.55-.025-.009-.44.012-1.19.156-7.266 1.398-12.32-1.014-15.757-7.54-1.889-3.59-2.985-7.54-3.514-12.125-.048-.414-.034-.647.018-1.101.004-.031.05-.712.141-2.043-1.816-2.447-2.874-5.344-3.22-8.408L0 15.79l.007-.205c.118-3.645 1.836-6.25 4.939-6.966.786-.182 1.53-.21 2.212-.093.429-3.674 3.643-6.466 7.632-5.981 1.148.14 2.171.532 2.996 1.155.672-1.324 1.801-2.404 3.277-3.074 3.223-1.464 6.753-.262 8.31 2.597C30.586 1.678 32.4.855 34.59 1.082c3.783.392 6.846 3.96 6.464 7.756-.017.175-.036.35-.057.529-.146 1.275-.154 1.324-.726 4.772-.09.548-.162.99-.228 1.42l-.111.718zm1.624 3.967c-3.214-1.665-6.53-3.14-9.815-4.67-.49-.228-1.048-.34-1.588-.431-1.663-.283-2.633.355-3.064 1.982-.53 2 .338 3.471 1.843 4.664 2.444 1.938 5.35 2.763 8.347 3.358 1.078.213 2.15.453 3.225.682l.016.491c-1.264.337-2.532.966-3.79.946-2.473-.038-4.99-.325-6.943-2.136-.748-.693-1.416-.587-2.23-.167-2.121 1.094-3.98 2.519-5.273 4.51-.863 1.328-1.476 2.822-2.15 4.265-.478 1.024-1.426 1.46-1.987.725-.335-.44-.43-1.3-.253-1.85 1.25-3.886 3.645-6.926 7.13-9.1.399-.248.804-.488 1.465-.888-1.27-.24-2.256-.262-3.092-.627-.892-.39-1.642-1.102-2.514-1.716-.544 1.587-1.384 2.931-3.058 3.608-1.768.715-3.301.107-4.785-.782-2.032 4.199-2.558 4.452-7.112 3.446-.016.23-.065.453-.04.668.449 3.887 1.369 7.639 3.208 11.133 2.86 5.431 6.686 7.245 12.725 6.083.876-.168 1.905-.324 2.695-.034 5.264 1.933 9.32.021 12.804-3.801 3.322-3.645 5.57-7.92 7.237-12.516 1.361-3.755.573-5.991-3-7.843zm-27.325.495c1.574 1.656 3.719 1.083 4.268-1.15.214-.873.618-1.621.475-2.779-.142-1.157-1.277-6.234-1.968-9.339-.291-1.312-1.245-1.964-2.558-2.124-2.91-.354-5.144 2.195-4.355 5.24.706 2.727 1.687 5.39 2.661 8.039.287.782.889 1.493 1.477 2.113zm7.707-4.047c.327 1.316 1.156 2.435 2.67 3.297 0-.469.017-.647-.003-.821-.312-2.621.312-4.799 2.834-6.142.242-.129.463-.583.443-.87-.147-2.138-.22-4.296-.585-6.401-.425-2.447-2.835-3.573-5.066-2.56-1.653.751-2.597 2.32-2.252 4.265.55 3.096 1.202 6.18 1.96 9.232zM10.5 22.767c.24-1.051.134-2.281-.164-3.334-.644-2.282-1.507-4.504-2.293-6.746-.428-1.223-1.179-1.614-2.46-1.318-1.67.386-2.671 1.77-2.753 4.308.309 2.743 1.349 5.735 3.616 8.165 1.519 1.628 3.557 1.101 4.054-1.075zM30.973 12.8c1.991.794 4.016 1.501 6.28 2.328.361-2.343.778-4.447.992-6.572.225-2.246-1.713-4.435-3.946-4.666-1.946-.202-3.314 1.071-3.672 3.573-.206 1.442-.28 2.907-.309 4.363-.006.33.344.85.655.974z" fill="#000" fill-rule="nonzero"/></svg>
