<svg width="26" height="26" viewBox="0 0 26 26" xmlns="http://www.w3.org/2000/svg"><title>FiredUp</title><path d="M21.862 8.68c.408.2.78.388 1.177.593 2.741 1.42 3.571 3.629 2.519 6.53-1.028 2.833-2.358 5.19-4.16 7.167-2.497 2.739-5.433 3.738-8.795 2.514l.024.008a1.744 1.744 0 0 1-.013-.005c.073.024.088.027.073.027a3.438 3.438 0 0 0-.44.065c-4.005.77-6.864-.593-8.758-4.192-1.015-1.928-1.601-4.043-1.883-6.485a2.62 2.62 0 0 1-.012-.466 3.75 3.75 0 0 1 .021-.228l.058-.844C.743 12.05.198 10.515.016 8.9L0 8.756l.005-.145c.068-2.115 1.105-3.688 2.978-4.12.285-.066.563-.099.83-.099C4.284 2.46 6.09 1.06 8.281 1.326c.477.058.92.19 1.316.393A4.104 4.104 0 0 1 11.254.373c1.695-.77 3.546-.302 4.608.99.703-.605 1.625-.909 2.694-.798 2.251.233 4.061 2.342 3.833 4.612l-.03.282c-.078.676-.082.701-.381 2.506-.046.275-.082.499-.116.715zm-4.841-.057c-.255-.119-.545-.176-.825-.224-.864-.147-1.367.184-1.591 1.03-.275 1.038.175 1.802.957 2.422 1.27 1.006 2.779 1.435 4.335 1.744.56.11 1.117.236 1.676.354l.008.256c-.656.174-1.315.501-1.968.49-1.285-.019-2.592-.168-3.607-1.109-.388-.36-.736-.304-1.159-.086-1.101.568-2.066 1.308-2.738 2.342-.448.69-.767 1.466-1.117 2.216-.248.532-.74.758-1.032.376-.174-.229-.223-.675-.131-.961.65-2.018 1.893-3.597 3.703-4.726.207-.13.418-.254.76-.462-.659-.124-1.171-.136-1.605-.325-.463-.203-.853-.573-1.306-.892-.283.825-.719 1.523-1.588 1.874-.919.372-1.715.056-2.485-.406-1.056 2.181-1.33 2.313-3.695 1.79-.008.12-.033.235-.02.347.233 2.02.71 3.968 1.666 5.783 1.485 2.821 3.472 3.763 6.61 3.16.455-.088.989-.169 1.4-.018 2.734 1.004 4.84.011 6.65-1.975 1.725-1.893 2.893-4.113 3.758-6.5.708-1.951.298-3.113-1.558-4.074-1.67-.866-3.392-1.631-5.098-2.426zm-9.095 2.683c.817.86 1.932.562 2.217-.598.111-.453.32-.842.247-1.443-.074-.601-.664-3.238-1.023-4.851-.151-.682-.646-1.02-1.328-1.104-1.511-.183-2.672 1.14-2.263 2.722.367 1.417.877 2.8 1.383 4.176.15.406.461.776.767 1.098zm5.39-.39c0-.243.009-.336-.002-.427-.161-1.36.162-2.492 1.472-3.19.126-.067.24-.303.23-.452-.076-1.11-.113-2.231-.303-3.325-.221-1.27-1.473-1.855-2.632-1.329-.858.39-1.349 1.204-1.17 2.215.286 1.608.625 3.21 1.018 4.795.17.684.6 1.266 1.387 1.713zm-7.413-.289c-.335-1.185-.784-2.34-1.192-3.504-.222-.635-.612-.838-1.277-.684-.868.2-1.388.919-1.43 2.237.16 1.425.7 2.98 1.878 4.241.789.846 1.848.572 2.106-.558.124-.546.07-1.185-.085-1.732zm13.98-2.236c.189-1.217.405-2.31.516-3.414.117-1.166-.89-2.303-2.05-2.423-1.01-.105-1.72.556-1.907 1.856-.107.748-.145 1.51-.16 2.266-.003.172.179.442.34.506 1.034.412 2.086.78 3.261 1.209z" fill="#000" fill-rule="nonzero"/></svg>
