<svg width="48" height="48" viewBox="0 0 48 48" xmlns="http://www.w3.org/2000/svg"><title>Happy-big</title><path d="M24 48C10.745 48 0 37.255 0 24S10.745 0 24 0s24 10.745 24 24-10.745 24-24 24zm0-3c11.598 0 21-9.402 21-21S35.598 3 24 3 3 12.402 3 24s9.402 21 21 21zm-7.536-25.352c0 .804-.288 1.495-.865 2.072-.576.578-1.266.867-2.068.867a2.757 2.757 0 0 1-2.049-.867 2.864 2.864 0 0 1-.846-2.072c0-.805.282-1.49.846-2.055a2.787 2.787 0 0 1 2.05-.848 2.85 2.85 0 0 1 2.067.848 2.77 2.77 0 0 1 .865 2.055zm21 0c0 .804-.282 1.495-.846 2.072a2.757 2.757 0 0 1-2.049.867c-.802 0-1.491-.289-2.068-.867-.576-.577-.865-1.268-.865-2.072 0-.805.289-1.49.865-2.055a2.85 2.85 0 0 1 2.068-.848c.802 0 1.485.283 2.05.848.563.566.845 1.25.845 2.055zm-23.01 6.261h19.091c-2.211 4.22-5.393 6.33-9.545 6.33-2.099 0-3.943-.542-5.534-1.625-1.591-1.083-2.928-2.651-4.011-4.705z" fill="#000" fill-rule="nonzero"/></svg>