<svg width="26" height="26" viewBox="0 0 26 26" xmlns="http://www.w3.org/2000/svg"><title>Happy</title><path d="M13 26C5.82 26 0 20.18 0 13S5.82 0 13 0s13 5.82 13 13-5.82 13-13 13zm0-2c6.075 0 11-4.925 11-11S19.075 2 13 2 2 6.925 2 13s4.925 11 11 11zM9.053 10.72c0 .421-.151.783-.453 1.086a1.476 1.476 0 0 1-1.084.454c-.42 0-.777-.151-1.073-.454A1.5 1.5 0 0 1 6 10.72c0-.421.148-.78.443-1.076A1.46 1.46 0 0 1 7.516 9.2c.42 0 .782.148 1.084.444.302.296.453.655.453 1.076zm11 0a1.5 1.5 0 0 1-.444 1.086 1.444 1.444 0 0 1-1.073.454c-.42 0-.781-.151-1.083-.454A1.483 1.483 0 0 1 17 10.72c0-.421.151-.78.453-1.076a1.493 1.493 0 0 1 1.083-.444c.42 0 .778.148 1.073.444.296.296.444.655.444 1.076zM8 14h10c-1.158 2.21-2.825 3.316-5 3.316-1.1 0-2.066-.284-2.899-.851C9.268 15.897 8.567 15.075 8 14z" fill="#000" fill-rule="nonzero"/></svg>