<svg width="48" height="48" viewBox="0 0 48 48" xmlns="http://www.w3.org/2000/svg"><title>Sad-big</title><path d="M24 48C10.745 48 0 37.255 0 24S10.745 0 24 0s24 10.745 24 24-10.745 24-24 24zm0-3c11.598 0 21-9.402 21-21S35.598 3 24 3 3 12.402 3 24s9.402 21 21 21zm-7.536-25.352c0 .804-.288 1.495-.865 2.072-.576.578-1.266.867-2.068.867a2.757 2.757 0 0 1-2.049-.867 2.864 2.864 0 0 1-.846-2.072c0-.805.282-1.49.846-2.055a2.787 2.787 0 0 1 2.05-.848 2.85 2.85 0 0 1 2.067.848 2.77 2.77 0 0 1 .865 2.055zm21 0c0 .804-.282 1.495-.846 2.072a2.757 2.757 0 0 1-2.049.867c-.802 0-1.491-.289-2.068-.867-.576-.577-.865-1.268-.865-2.072 0-.805.289-1.49.865-2.055a2.85 2.85 0 0 1 2.068-.848c.802 0 1.485.283 2.05.848.563.566.845 1.25.845 2.055zm-4.698 9.676l-2.103 1.352c-1.928-2.998-4.171-4.426-6.806-4.426s-4.878 1.428-6.806 4.426l-2.102-1.352c2.358-3.668 5.352-5.574 8.908-5.574 3.556 0 6.55 1.906 8.909 5.574z" fill="#000" fill-rule="nonzero"/></svg>