<svg width="26" height="26" viewBox="0 0 26 26" xmlns="http://www.w3.org/2000/svg"><title>Surprised</title><path d="M13 26C5.82 26 0 20.18 0 13S5.82 0 13 0s13 5.82 13 13-5.82 13-13 13zm0-2c6.075 0 11-4.925 11-11S19.075 2 13 2 2 6.925 2 13s4.925 11 11 11zm6.256-13.28a1.5 1.5 0 0 1-.443 1.086 1.444 1.444 0 0 1-1.074.454c-.42 0-.78-.151-1.083-.454a1.483 1.483 0 0 1-.453-1.086c0-.421.151-.78.453-1.076A1.493 1.493 0 0 1 17.74 9.2c.42 0 .778.148 1.074.444.295.296.443.655.443 1.076zm-3.774-3.024l-.557-1.392a7.481 7.481 0 0 1 5.557 0l-.557 1.392a5.981 5.981 0 0 0-4.443 0zM9.303 10.72a1.5 1.5 0 0 1-.443 1.086 1.444 1.444 0 0 1-1.073.454c-.42 0-.781-.151-1.083-.454a1.483 1.483 0 0 1-.453-1.086c0-.421.15-.78.453-1.076A1.493 1.493 0 0 1 7.787 9.2c.42 0 .778.148 1.073.444.296.296.443.655.443 1.076zM5.53 7.696l-.557-1.392a7.481 7.481 0 0 1 5.557 0l-.557 1.392a5.981 5.981 0 0 0-4.443 0zm7.21 14.733c-1.592 0-2.882-2.228-2.882-4.977 0-2.748 1.29-4.976 2.881-4.976 1.591 0 2.881 2.228 2.881 4.976 0 2.749-1.29 4.977-2.88 4.977z" fill="#000" fill-rule="nonzero"/></svg>