<svg width="48" height="48" viewBox="0 0 48 48" xmlns="http://www.w3.org/2000/svg"><title>Surprised-big</title><path d="M24 48C10.745 48 0 37.255 0 24S10.745 0 24 0s24 10.745 24 24-10.745 24-24 24zm0-3c11.598 0 21-9.402 21-21S35.598 3 24 3 3 12.402 3 24s9.402 21 21 21zm11.943-25.352c0 .804-.282 1.495-.846 2.072a2.757 2.757 0 0 1-2.05.867c-.801 0-1.49-.289-2.067-.867-.577-.577-.865-1.268-.865-2.072 0-.805.288-1.49.865-2.055a2.85 2.85 0 0 1 2.068-.848c.802 0 1.485.283 2.049.848.564.566.846 1.25.846 2.055zm-7.273-5.942l-.928-2.321a14.101 14.101 0 0 1 10.474 0l-.929 2.321a11.601 11.601 0 0 0-8.617 0zm-11.727 5.942c0 .804-.282 1.495-.846 2.072a2.757 2.757 0 0 1-2.05.867c-.801 0-1.49-.289-2.067-.867-.577-.577-.865-1.268-.865-2.072 0-.805.288-1.49.865-2.055a2.85 2.85 0 0 1 2.068-.848c.802 0 1.485.283 2.049.848.564.566.846 1.25.846 2.055zM9.67 13.706l-.928-2.321a14.101 14.101 0 0 1 10.474 0l-.929 2.321a11.601 11.601 0 0 0-8.617 0zM23.5 42c-3.038 0-5.5-4.253-5.5-9.5s2.462-9.5 5.5-9.5 5.5 4.253 5.5 9.5-2.462 9.5-5.5 9.5z" fill="#000" fill-rule="nonzero"/></svg>