<svg width="48" height="48" viewBox="0 0 48 48" xmlns="http://www.w3.org/2000/svg"><title>Thinking-big</title><path d="M13.968 47.987c-.221 0-1.24.014-1.157.013a35.63 35.63 0 0 1-1.454-.009c-2.531-.074-4.258-.46-5.496-1.756-1.09-1.14-1.997-3.04-2.89-5.813l-.045-.16-.244-.977L.006 31.95l1.544-.771a23.683 23.683 0 0 1-1.185-7.422C.365 10.637 11.028 0 24.182 0S48 10.637 48 23.758c0 13.121-10.664 23.758-23.818 23.758-2.045 0-4.03-.257-5.925-.741-1.037.78-2.446 1.211-4.29 1.212zm6.14-3.838c1.318.26 2.68.397 4.074.397 11.51 0 20.84-9.307 20.84-20.788S35.693 2.97 24.183 2.97s-20.84 9.307-20.84 20.788c0 2.27.365 4.456 1.04 6.501 2.232-.176 4.144 1.094 5.335 3.523.267.036.652.048 1.135.025 1.279-.062 2.846-.319 5.57-.872l.905-.184c3.249-.664 4.636-.907 6.087-.994 1.11-.066 2.017 0 2.819.285 1.384.49 2.337 1.646 2.343 3.19.007 1.88-1.134 3.17-2.817 3.79-.87.322-1.564.43-3.318.615-.922.097-1.398.163-1.755.253a13.56 13.56 0 0 0-.016.302l-.026.67c-.013.308-.026.554-.044.802-.069.91-.229 1.744-.491 2.485zm15.926-25.69c0 .796-.28 1.48-.84 2.053a2.74 2.74 0 0 1-2.033.858c-.796 0-1.48-.286-2.052-.858-.572-.573-.858-1.257-.858-2.052 0-.796.286-1.474.858-2.034a2.832 2.832 0 0 1 2.052-.84c.796 0 1.474.28 2.034.84.56.56.84 1.238.84 2.034zm-7.217-5.881l-.921-2.298a14.026 14.026 0 0 1 10.394 0l-.921 2.298a11.54 11.54 0 0 0-8.552 0zM16.704 18.46c0 .795-.286 1.48-.859 2.052-.572.572-1.256.858-2.052.858a2.74 2.74 0 0 1-2.033-.858 2.831 2.831 0 0 1-.84-2.052c0-.796.28-1.474.84-2.034a2.77 2.77 0 0 1 2.033-.84c.796 0 1.48.28 2.052.84a2.74 2.74 0 0 1 .859 2.034zm-.21 6.44l.22-2.464c4.619.41 8.53 1.843 11.703 4.305l-1.523 1.953c-2.78-2.157-6.238-3.424-10.4-3.793zM9.026 14.557v-2.474h9.473v2.474H9.026zM5.333 39.662c.787 2.444 1.562 4.065 2.325 4.864 1.15 1.204 4.482.987 6.311.986 5.475-.003 3.69-5.277 4.47-6.962 1.03-2.225 7.667-.472 7.656-3.306-.014-3.59-16.91 3.612-18.432.01-1.014-2.4-2.537-3.093-4.57-2.078l1.965 5.382.275 1.104z"/></svg>