<svg width="27" height="26" viewBox="0 0 27 26" xmlns="http://www.w3.org/2000/svg"><title>Thinking</title><path d="M10.125 25.475c-.53.29-1.197.447-2.018.447-.115 0-.65.006-.607.006-.297.003-.534.002-.772-.005-1.382-.042-2.326-.254-3.026-.988-.599-.628-1.087-1.651-1.566-3.14l-.028-.096-.126-.505-1.465-4.02.606-.304a12.95 12.95 0 0 1-.601-3.913C.522 5.8 6.322 0 13.478 0s12.957 5.8 12.957 12.957c0 7.155-5.801 12.956-12.957 12.956-1.16 0-2.284-.152-3.353-.438zm3.353-1.562c6.051 0 10.957-4.905 10.957-10.956C24.435 6.905 19.529 2 13.478 2 7.428 2 2.522 6.905 2.522 12.957c0 1.125.17 2.21.484 3.232 1.24-.115 2.315.564 2.988 1.866.118.01.274.01.46.002.66-.032 1.477-.166 2.9-.454l.475-.097c1.719-.35 2.452-.48 3.228-.525 1.659-.099 2.915.347 2.922 2.027.005 1.084-.652 1.828-1.607 2.18-.48.178-.852.236-1.792.335-.363.038-.59.066-.756.105l-.014.353c-.006.164-.013.296-.023.43a5.31 5.31 0 0 1-.258 1.33c.633.113 1.284.172 1.95.172zm-9.914-2.577c.414 1.288.822 2.143 1.224 2.564.605.635 2.357.522 3.319.522 2.879 0 1.938-2.78 2.347-3.668.541-1.172 4.032-.246 4.025-1.74-.008-1.892-8.89 1.898-9.691 0-.534-1.265-1.336-1.631-2.404-1.097l1.035 2.837.145.582zm16.145-10.172c0 .42-.147.78-.441 1.081-.294.302-.65.453-1.07.453a1.47 1.47 0 0 1-1.078-.453 1.478 1.478 0 0 1-.451-1.081c0-.42.15-.777.45-1.072.302-.295.661-.442 1.08-.442.418 0 .775.147 1.069.442.294.295.441.652.441 1.072zm-3.758-4.01l-.557-1.392a7.455 7.455 0 0 1 5.537 0l-.557 1.393a5.955 5.955 0 0 0-4.423 0zm-6.405 4.01c0 .42-.15.78-.45 1.081-.302.302-.661.453-1.08.453-.418 0-.774-.151-1.069-.453a1.494 1.494 0 0 1-.441-1.081c0-.42.147-.777.441-1.072.295-.295.65-.442 1.07-.442.418 0 .777.147 1.078.442.301.295.451.652.451 1.072zm.443 3.586l.022-1.5c2.391.035 4.514.565 6.355 1.595l-.732 1.31c-1.616-.905-3.494-1.374-5.645-1.405zM5.51 8.205v-1.5h4.981v1.5H5.51z" fill="#000" fill-rule="nonzero"/></svg>