<svg width="48" height="48" viewBox="0 0 48 48" xmlns="http://www.w3.org/2000/svg"><title>Thinking-big</title><g fill="#000" fill-rule="evenodd"><path d="M18.71 47.415c.472-.869.682-1.882.787-2.899 1.45.317 2.957.484 4.503.484 11.598 0 21-9.402 21-21S35.598 3 24 3 3 12.402 3 24c0 2.835.562 5.539 1.58 8.006-.955-.557-2.11-.81-3.466-.758A23.988 23.988 0 0 1 0 24C0 10.745 10.745 0 24 0s24 10.745 24 24-10.745 24-24 24c-1.817 0-3.588-.202-5.29-.585zM2.578 41.062l-.322-1.295-2.3-6.308c2.375-1.188 4.156-.374 5.344 2.44 1.781 4.22 21.532-4.208 21.55 0 .015 3.32-7.747 1.262-8.95 3.868-.91 1.974 1.181 8.156-5.22 8.156-2.14 0-6.035.251-7.38-1.16-.893-.937-1.8-2.837-2.722-5.701z" fill-rule="nonzero"/><path d="M35.943 18.648c0 .804-.282 1.495-.846 2.072a2.757 2.757 0 0 1-2.05.867c-.801 0-1.49-.289-2.067-.867-.577-.577-.865-1.268-.865-2.072 0-.805.288-1.49.865-2.055a2.85 2.85 0 0 1 2.068-.848c.802 0 1.485.283 2.049.848.564.566.846 1.25.846 2.055z"/><path d="M28.67 12.706l-.928-2.321a14.101 14.101 0 0 1 10.474 0l-.929 2.321a11.601 11.601 0 0 0-8.617 0z" fill-rule="nonzero"/><path d="M16.464 18.648c0 .804-.288 1.495-.865 2.072-.576.578-1.266.867-2.068.867a2.757 2.757 0 0 1-2.049-.867 2.864 2.864 0 0 1-.846-2.072c0-.805.282-1.49.846-2.055a2.787 2.787 0 0 1 2.05-.848 2.85 2.85 0 0 1 2.067.848 2.77 2.77 0 0 1 .865 2.055z"/><path d="M16.253 25.154l.221-2.49c4.655.414 8.596 1.862 11.793 4.35l-1.534 1.973c-2.803-2.18-6.286-3.46-10.48-3.833zM8.727 14.705v-2.5h9.546v2.5z" fill-rule="nonzero"/></g></svg>
