<?xml version="1.0" standalone="no"?>
<!DOCTYPE svg PUBLIC "-//W3C//DTD SVG 1.1//EN" "http://www.w3.org/Graphics/SVG/1.1/DTD/svg11.dtd" >
<svg xmlns="http://www.w3.org/2000/svg" xmlns:xlink="http://www.w3.org/1999/xlink" version="1.1">
<metadata>
Created by FontForge 20170731 at Wed May 31 06:24:51 2017
 By nod
Copyright 2017, The Mozilla Foundation
</metadata>
<defs>
<font id="ZillaSlab-Bold" horiz-adv-x="618" >
  <font-face 
    font-family="Zilla Slab"
    font-weight="700"
    font-stretch="normal"
    units-per-em="1000"
    panose-1="0 0 0 0 0 0 0 0 0 0"
    ascent="787"
    descent="-213"
    x-height="451"
    cap-height="650"
    bbox="-150 -248 3260 906"
    underline-thickness="50"
    underline-position="-100"
    unicode-range="U+0020-FB04"
  />
    <missing-glyph />
    <glyph glyph-name="uniFB01" unicode="fi" horiz-adv-x="597" 
d="M390 98v255h-173v-255h75v-98h-264v98h60v255h-55v98h55v69q0 70 56 124t165 54q38 0 85 -9t91 -32l20 -122l-100 -11l-19 64q-7 2 -27.5 7.5t-49.5 5.5q-59 0 -75.5 -25t-16.5 -54v-71h302v-353h60v-98h-249v98h60z" />
    <glyph glyph-name="uniFB02" unicode="fl" horiz-adv-x="598" 
d="M580 0h-249v98h60v472q-35 32 -83 32q-46 0 -68.5 -24t-22.5 -59v-68h91v-98h-91v-255h75v-98h-264v98h60v255h-55v98h55v62q0 79 50 132t138 53q31 0 60.5 -8t54.5 -28v26h129v-590h60v-98z" />
    <glyph glyph-name="uni0066_uni0068.liga" unicode="fh" horiz-adv-x="896" 
d="M519 255v-157h60v-98h-249v98h60v473q-36 31 -82 31q-34 0 -62.5 -20t-28.5 -63v-68h91v-98h-91v-255h75v-98h-264v98h60v255h-55v98h55v62q0 79 52 132t137 53q30 0 58.5 -8t54.5 -27v25h129v-306q46 78 145 78q64 0 111 -38t47 -118v-206h60v-98h-249v98h60v156
q0 58 -20.5 83t-58.5 25q-46 0 -70.5 -30t-24.5 -77z" />
    <glyph glyph-name="uni0066_uni0062.liga" unicode="fb" horiz-adv-x="885" 
d="M390 688h129v-322q19 38 55 66t97 28q85 0 139 -59t54 -165q0 -100 -52.5 -173t-154.5 -73q-53 0 -89 21.5t-56 56.5q-2 -16 -4.5 -33.5t-5.5 -34.5h-129q7 35 12 70t5 69v432q-37 31 -84 31q-34 0 -61.5 -20t-27.5 -63v-68h91v-98h-91v-255h75v-98h-264v98h60v255h-55
v98h55v62q0 79 52 132t137 53q30 0 58.5 -8t54.5 -27v25zM725 225q0 65 -28.5 96.5t-71.5 31.5q-49 0 -77.5 -35.5t-28.5 -85.5v-11q0 -56 28.5 -90t72.5 -34q43 0 74 29.5t31 98.5z" />
    <glyph glyph-name="uni0066_uni006A.liga" unicode="fj" horiz-adv-x="573" 
d="M217 522v-71h302v-435q0 -128 -47 -189.5t-178 -48.5l-4 85q41 0 70.5 22.5t29.5 130.5v337h-173v-255h75v-98h-264v98h60v255h-55v98h55v69q0 70 56 124t165 54q38 0 85 -9t91 -32l20 -122l-100 -11l-19 64q-7 2 -27.5 7.5t-49.5 5.5q-59 0 -75.5 -25t-16.5 -54z" />
    <glyph glyph-name="uni0066_uni006B.liga" unicode="fk" horiz-adv-x="867" 
d="M330 98h60v473q-36 31 -82 31q-34 0 -62.5 -20t-28.5 -63v-68h91v-98h-91v-255h75v-98h-264v98h60v255h-55v98h55v62q0 79 52 132t137 53q30 0 58.5 -8t54.5 -27v25h129v-411h75l61 76h-49v98h226v-98h-54l-92 -110l128 -145h39v-98h-231v98h42l-78 88h-67v-88h41v-98
h-230v98z" />
    <glyph glyph-name="uniFB00" unicode="ff" horiz-adv-x="645" 
d="M390 98v255h-173v-255h75v-98h-264v98h60v255h-55v98h55v52q0 79 53.5 132t146.5 53q87 0 148 -44q49 54 135 54q31 0 68 -9t68 -32l20 -122l-100 -11l-22 71q-21 6 -36 6q-50 0 -50 -60v-90h111v-98h-111v-255h75v-98h-264v98h60zM217 509v-58h173v69q0 20 5 45
q-41 27 -86 27q-41 0 -66.5 -20t-25.5 -63z" />
    <glyph glyph-name="uniFB03" unicode="ffi" horiz-adv-x="899" 
d="M390 98v255h-173v-255h75v-98h-264v98h60v255h-55v98h55v52q0 79 53.5 132t146.5 53q89 0 153 -48q28 26 70.5 42t99.5 16q38 0 85 -9t91 -32l20 -122l-100 -11l-19 64q-7 2 -27.5 7.5t-49.5 5.5q-59 0 -75.5 -25t-16.5 -54v-71h302v-353h60v-98h-249v98h60v255h-173
v-255h75v-98h-264v98h60zM217 509v-58h173v69q0 23 6 44q-42 28 -87 28q-41 0 -66.5 -20t-25.5 -63z" />
    <glyph glyph-name="uni0066_uni0066_uni006A.liga" unicode="ffj" horiz-adv-x="875" 
d="M519 522v-71h302v-435q0 -128 -47 -189.5t-178 -48.5l-4 85q41 0 70.5 22.5t29.5 130.5v337h-173v-255h75v-98h-264v98h60v255h-173v-255h75v-98h-264v98h60v255h-55v98h55v52q0 79 53.5 132t146.5 53q89 0 153 -48q28 26 70.5 42t99.5 16q38 0 85 -9t91 -32l20 -122
l-100 -11l-19 64q-7 2 -27.5 7.5t-49.5 5.5q-59 0 -75.5 -25t-16.5 -54zM217 509v-58h173v69q0 23 6 44q-42 28 -87 28q-41 0 -66.5 -20t-25.5 -63z" />
    <glyph glyph-name="uniFB04" unicode="ffl" horiz-adv-x="900" 
d="M390 98v255h-173v-255h75v-98h-264v98h60v255h-55v98h55v52q0 79 53.5 132t146.5 53q87 0 149 -46q53 56 138 56q31 0 61.5 -8.5t56.5 -29.5v28h129v-590h60v-98h-249v98h60v470q-37 34 -86 34q-34 0 -61 -20t-27 -63v-68h91v-98h-91v-255h75v-98h-264v98h60zM217 509
v-58h173v62q0 27 6 51q-42 28 -87 28q-41 0 -66.5 -20t-25.5 -63z" />
    <glyph glyph-name="uni0066_uni00EC.liga" unicode="f&#xec;" horiz-adv-x="597" 
d="M563 548l-45 -39l-152 149l72 67zM579 0h-249v98h60v255h-173v-255h75v-98h-264v98h60v255h-55v98h55v69q0 80 43 129t123 49q15 0 39 -3.5t37 -9.5v-95q-28 9 -59 9q-54 0 -54 -58v-90h302v-353h60v-98z" />
    <glyph glyph-name="uni0066_uni00EF.liga" unicode="f&#xef;" horiz-adv-x="597" 
d="M301 531v48q0 15 -15 17.5t-25 2.5q-44 0 -44 -58v-90h302v-353h60v-98h-249v98h60v255h-173v-255h75v-98h-264v98h60v255h-55v98h55v69q0 70 46 124t139 54q62 0 109.5 -25.5t47.5 -66.5v-75h-129zM466 531v114h129v-114h-129z" />
    <glyph glyph-name="AEmacron.c2sc" horiz-adv-x="712" 
d="M380 675v27h27v-27h-27zM605 675v27h27v-27h-27zM530 675v27h27v-27h-27zM455 675v27h27v-27h-27zM305 675v27h27v-27h-27zM230 675v27h27v-27h-27zM155 675v27h27v-27h-27zM80 675v27h27v-27h-27zM605 600v27h27v-27h-27zM80 600v27h27v-27h-27zM380 525v27h27v-27h-27z
M305 525v27h27v-27h-27zM230 525v27h27v-27h-27zM605 525v27h27v-27h-27zM455 525v27h27v-27h-27zM80 525v27h27v-27h-27zM80 450v27h27v-27h-27zM605 450v27h27v-27h-27zM455 450v27h27v-27h-27zM80 375v27h27v-27h-27zM380 375v27h27v-27h-27zM455 375v27h27v-27h-27z
M605 375v27h27v-27h-27zM305 375v27h27v-27h-27zM80 300v27h27v-27h-27zM305 300v27h27v-27h-27zM605 300v27h27v-27h-27zM80 225v27h27v-27h-27zM605 225v27h27v-27h-27zM80 150v27h27v-27h-27zM305 150v27h27v-27h-27zM605 150v27h27v-27h-27zM80 75v27h27v-27h-27z
M605 75v27h27v-27h-27zM380 0v27h27v-27h-27zM530 0v27h27v-27h-27zM455 0v27h27v-27h-27zM605 0v27h27v-27h-27zM305 0v27h27v-27h-27zM230 0v27h27v-27h-27zM155 0v27h27v-27h-27zM80 0v27h27v-27h-27z" />
    <glyph glyph-name="CR" horiz-adv-x="187" 
 />
    <glyph glyph-name="uni0020" unicode=" " horiz-adv-x="187" 
 />
    <glyph glyph-name="uni0041" unicode="A" horiz-adv-x="687" 
d="M687 0h-259v114h52l-24 66h-221l-27 -66h61v-114h-256v114h59l186 422h-90v114h223l234 -536h62v-114zM420 276l-68 183h-6l-73 -183h147z" />
    <glyph glyph-name="uni0042" unicode="B" horiz-adv-x="622" 
d="M598 193q0 -78 -52.5 -135.5t-164.5 -57.5h-342v114h70v422h-70v114h338q89 0 143.5 -41.5t54.5 -110.5q0 -51 -31 -89t-87 -47v-4q70 -10 105.5 -55t35.5 -110zM431 463q0 44 -26.5 58.5t-62.5 14.5h-99v-152h89q57 0 78 23t21 56zM454 198q0 82 -99 82h-112v-166h103
q108 0 108 84z" />
    <glyph glyph-name="uni0043" unicode="C" horiz-adv-x="644" 
d="M594 69q-32 -35 -102.5 -57t-140.5 -22q-139 0 -233 89.5t-94 234.5q0 76 32 156t105 135t196 55q83 0 143 -24.5t91 -53.5l16 -151l-109 -10l-14 86q-26 17 -63 26t-70 9q-84 0 -133.5 -56t-49.5 -163q0 -113 54 -164t138 -51q79 0 124 27l14 97l109 -10z" />
    <glyph glyph-name="uni0044" unicode="D" horiz-adv-x="698" 
d="M673 328q0 -148 -87 -238t-241 -90h-306v114h70v422h-70v114h298q167 0 251.5 -89t84.5 -233zM529 326q0 210 -195 210h-91v-422h91q94 0 144.5 50t50.5 162z" />
    <glyph glyph-name="uni0045" unicode="E" horiz-adv-x="593" 
d="M541 0h-502v114h70v422h-70v114h496l20 -190l-114 -10l-20 86h-178v-153h274v-113h-274v-156h184l20 86l114 -10z" />
    <glyph glyph-name="uni0046" unicode="F" horiz-adv-x="567" 
d="M547 450l-114 -10l-20 96h-170v-182h273v-113h-273v-127h106v-114h-310v114h70v422h-70v114h488z" />
    <glyph glyph-name="uni0047" unicode="G" horiz-adv-x="682" 
d="M658 246h-32v-246h-104l-13 68q-30 -35 -76.5 -56.5t-109.5 -21.5q-137 0 -217.5 95t-80.5 235t85 240t250 100q79 0 143.5 -23t96.5 -55l18 -141l-108 -10l-18 76q-26 17 -65.5 26t-72.5 9q-80 0 -132.5 -54t-52.5 -166q0 -108 49.5 -161t128.5 -53q66 0 105 35t39 99v4
h-127v113h294v-113z" />
    <glyph glyph-name="uni0048" unicode="H" horiz-adv-x="761" 
d="M722 0h-274v114h70v159h-275v-159h70v-114h-274v114h70v422h-70v114h274v-114h-70v-150h275v150h-70v114h274v-114h-70v-422h70v-114z" />
    <glyph glyph-name="uni0049" unicode="I" horiz-adv-x="352" 
d="M313 0h-274v114h70v422h-70v114h274v-114h-70v-422h70v-114z" />
    <glyph glyph-name="uni004A" unicode="J" horiz-adv-x="486" 
d="M457 536h-60v-351q0 -98 -54.5 -146.5t-142.5 -48.5q-83 0 -128.5 37t-66.5 86l94 71q17 -44 40.5 -57t47.5 -13q41 0 58.5 20t17.5 50v352h-114v114h308v-114z" />
    <glyph glyph-name="uni004B" unicode="K" horiz-adv-x="674" 
d="M665 0h-283v114h60l-119 160h-80v-160h55v-114h-259v114h70v422h-70v114h262v-114h-58v-153h82l115 153h-56v114h270v-114h-73l-155 -195l172 -227h67v-114z" />
    <glyph glyph-name="uni004C" unicode="L" horiz-adv-x="558" 
d="M527 0h-488v114h70v422h-70v114h295v-114h-91v-422h170l20 126l114 -10z" />
    <glyph glyph-name="uni004D" unicode="M" horiz-adv-x="900" 
d="M869 536h-80v-422h70v-114h-261v114h57v248h-4l-171 -309h-56l-184 321h-4v-260h62v-114h-257v114h70v422h-80v114h192l231 -403h4l217 403h194v-114z" />
    <glyph glyph-name="uni004E" unicode="N" horiz-adv-x="760" 
d="M733 536h-70v-536l-75 -1l-349 413h-4v-298h90v-114h-285v114h70v422h-81v114h177l328 -386h4v272h-94v114h289v-114z" />
    <glyph glyph-name="uni004F" unicode="O" horiz-adv-x="712" 
d="M688 326q0 -138 -88.5 -237t-246.5 -99q-159 0 -244 99t-85 235q0 142 90 239t243 97q156 0 243.5 -98.5t87.5 -235.5zM543 322q0 104 -48 162t-139 58q-97 0 -142 -61.5t-45 -153.5q0 -89 44 -154t147 -65q95 0 139 59.5t44 154.5z" />
    <glyph glyph-name="uni0050" unicode="P" horiz-adv-x="598" 
d="M584 438q0 -111 -72.5 -165.5t-168.5 -54.5h-100v-104h100v-114h-304v114h70v422h-70v114h298q121 0 184 -57t63 -155zM440 436q0 48 -26.5 74t-93.5 26h-77v-205h75q69 0 95.5 29t26.5 76z" />
    <glyph glyph-name="uni0051" unicode="Q" horiz-adv-x="718" 
d="M688 326q0 -132 -77 -224l66 -68l-84 -83l-75 77q-73 -38 -165 -38q-159 0 -244 99t-85 235q0 142 90 239t243 97q156 0 243.5 -98.5t87.5 -235.5zM543 322q0 104 -48 162t-139 58q-97 0 -142 -61.5t-45 -153.5q0 -89 44 -154t147 -65q39 0 70 11l-98 101l84 83l102 -105
q25 50 25 124z" />
    <glyph glyph-name="uni0052" unicode="R" horiz-adv-x="638" 
d="M626 0h-166l-129 248h-88v-134h70v-114h-274v114h70v422h-70v114h294q121 0 186 -49.5t65 -147.5q0 -66 -34 -110.5t-90 -66.5l88 -162h78v-114zM440 450q0 49 -29 67.5t-102 18.5h-66v-182h64q77 0 105 25t28 71z" />
    <glyph glyph-name="uni0053" unicode="S" horiz-adv-x="557" 
d="M526 197q0 -101 -68 -154t-187 -53q-66 0 -131.5 17t-103.5 51l20 161l107 -10l-1 -79q34 -18 58 -21.5t41 -3.5q53 0 87 13.5t34 62.5q0 54 -40 72.5t-94 28.5q-47 8 -94.5 23.5t-79.5 51t-32 105.5q0 109 74 153.5t162 44.5q64 0 122 -19.5t89 -52.5l6 -141l-107 -10
l-9 76q-25 17 -50.5 23t-49.5 6q-40 0 -66.5 -14t-26.5 -49q0 -41 34 -57t78 -26q40 -8 93.5 -22.5t94 -54t40.5 -122.5z" />
    <glyph glyph-name="uni0054" unicode="T" horiz-adv-x="651" 
d="M629 430l-114 -10l-20 116h-103v-422h106v-114h-340v114h100v422h-103l-20 -116l-114 10l20 220h568z" />
    <glyph glyph-name="uni0055" unicode="U" horiz-adv-x="719" 
d="M692 536h-58v-267q0 -69 -26 -133t-87 -105t-165 -41q-148 0 -209 81.5t-61 186.5v278h-58v114h268v-114h-76v-274q0 -67 32.5 -110.5t110.5 -43.5q77 0 111.5 44t34.5 117v267h-76v114h259v-114z" />
    <glyph glyph-name="uni0056" unicode="V" horiz-adv-x="685" 
d="M679 536h-59l-231 -536h-93l-230 536h-61v114h269v-114h-59l133 -329h6l130 329h-61v114h256v-114z" />
    <glyph glyph-name="uni0057" unicode="W" horiz-adv-x="989" 
d="M977 536h-52l-179 -536h-95l-153 420h-5l-146 -420h-97l-190 536h-56v114h259v-114h-60l97 -314h6l116 314h-51v114h259v-114h-46l115 -320h6l86 320h-70v114h256v-114z" />
    <glyph glyph-name="uni0058" unicode="X" horiz-adv-x="666" 
d="M658 0h-265v114h46l-112 132l-103 -132h54v-114h-272v114h70l182 219l-177 203h-60v114h261v-114h-44l102 -117l94 117h-47v114h256v-114h-60l-174 -201l191 -221h58v-114z" />
    <glyph glyph-name="uni0059" unicode="Y" horiz-adv-x="646" 
d="M636 536h-56l-189 -282v-140h106v-114h-340v114h100v141l-195 281h-58v114h269v-114h-54l109 -164h6l108 164h-62v114h256v-114z" />
    <glyph glyph-name="uni005A" unicode="Z" horiz-adv-x="589" 
d="M550 0h-526l-3 69l330 466v1h-176l-20 -101l-114 10l20 205h486l2 -61l-335 -473v-2h222l20 120l114 -10z" />
    <glyph glyph-name="uni0061" unicode="a" horiz-adv-x="506" 
d="M68 419q59 24 98.5 32.5t94.5 8.5q73 0 126 -38t53 -115v-196q0 -35 31 -35q9 0 19 3l1 -68q-39 -21 -81 -21q-89 0 -99 89v1q-19 -34 -54.5 -62t-90.5 -28q-49 0 -94 29t-45 100q0 83 66.5 110t143.5 27q43 0 74 -4v15q0 35 -9.5 68t-64.5 33q-20 0 -36.5 -2.5
t-32.5 -10.5l-17 -64l-103 11zM311 184v6q-16 2 -32.5 4t-32.5 2q-34 0 -60 -12.5t-26 -49.5q0 -22 12 -37t41 -15q34 0 63.5 24.5t34.5 77.5z" />
    <glyph glyph-name="uni0062" unicode="b" horiz-adv-x="551" 
d="M530 236q0 -100 -52.5 -173t-154.5 -73q-103 0 -145 78q-2 -17 -4.5 -34t-5.5 -34h-129q7 35 12 70t5 69v451h-60v98h189v-323q18 39 54.5 67t97.5 28q85 0 139 -59t54 -165zM396 225q0 65 -28 99t-74 34q-52 0 -80.5 -38t-28.5 -88v-11q0 -55 27.5 -92.5t78.5 -37.5
q44 0 74.5 32.5t30.5 101.5z" />
    <glyph glyph-name="uni0063" unicode="c" horiz-adv-x="471" 
d="M455 168q-7 -62 -53.5 -120t-155.5 -58q-98 0 -161.5 57t-63.5 171q0 120 69 181t167 61q37 0 79.5 -9.5t83.5 -31.5l20 -137l-103 -11l-15 74q-39 13 -68 13q-41 0 -70 -31.5t-29 -102.5q0 -132 103 -132q76 0 89 96z" />
    <glyph glyph-name="uni0064" unicode="d" horiz-adv-x="570" 
d="M556 0h-189v84q-19 -39 -56 -66.5t-98 -27.5q-89 0 -140 61t-51 166q0 101 50 172t151 71q55 0 90 -22t54 -56v208h-90v98h219v-591h60v-97zM367 228v11q0 56 -29.5 87.5t-73.5 31.5q-43 0 -75.5 -32t-32.5 -101q0 -65 30 -99t71 -34q51 0 80.5 43t29.5 93z" />
    <glyph glyph-name="uni0065" unicode="e" horiz-adv-x="483" 
d="M463 142q-5 -60 -59 -106t-151 -46q-101 0 -166.5 57t-65.5 170q0 104 59.5 173.5t166.5 69.5q94 0 152.5 -54t59.5 -142q0 -33 -7 -65h-296q11 -107 106 -107q52 0 70.5 25t22.5 45zM326 274q4 34 -14.5 64t-64.5 30q-40 0 -62 -26t-28 -68h169z" />
    <glyph glyph-name="uni0066" unicode="f" horiz-adv-x="343" 
d="M269 698q31 0 68 -9t68 -32l20 -122l-100 -11l-22 71q-21 6 -36 6q-50 0 -50 -60v-90h111v-92h-111v-262h75v-97h-264v97h60v262h-55v92h55v69q0 70 46 124t135 54z" />
    <glyph glyph-name="uni0067" unicode="g" horiz-adv-x="568" 
d="M555 353h-60v-330q0 -108 -61 -176.5t-188 -68.5q-70 0 -134 28.5t-93 106.5l99 56q48 -89 129 -89q52 0 85.5 37.5t33.5 105.5v59q-18 -34 -53 -58t-95 -24q-79 0 -138 55t-59 162q0 101 54 172t149 71q53 0 88 -22t54 -57v70h189v-98zM366 228v11q0 56 -28.5 87.5
t-72.5 31.5q-43 0 -71.5 -32t-28.5 -101q0 -65 25.5 -94t66.5 -29q53 0 81 38t28 88z" />
    <glyph glyph-name="uni0068" unicode="h" horiz-adv-x="581" 
d="M568 0h-249v97h60v157q0 58 -20.5 83t-58.5 25q-44 0 -68.5 -27t-26.5 -71v-167h60v-97h-249v97h60v493h-60v98h189v-306q45 78 145 78q64 0 111 -38t47 -118v-207h60v-97z" />
    <glyph glyph-name="uni0069" unicode="i" horiz-adv-x="299" 
d="M87 531v134h129v-134h-129zM281 0h-249v97h60v256h-65v98h194v-354h60v-97z" />
    <glyph glyph-name="uni006A" unicode="j" horiz-adv-x="265" 
d="M82 531v134h129v-134h-129zM211 16q0 -128 -47 -189.5t-178 -48.5l-4 85q41 0 70.5 22.5t29.5 130.5v337h-70v98h199v-435z" />
    <glyph glyph-name="uni006B" unicode="k" horiz-adv-x="553" 
d="M539 0h-231v97h42l-78 89h-67v-89h41v-97h-230v97h60v493h-65v98h194v-411h75l66 76h-54v98h226v-98h-49l-97 -110l128 -146h39v-97z" />
    <glyph glyph-name="uni006C" unicode="l" horiz-adv-x="285" 
d="M267 0h-249v97h60v493h-65v98h194v-591h60v-97z" />
    <glyph glyph-name="uni006D" unicode="m" horiz-adv-x="876" 
d="M864 0h-189v254q0 58 -19.5 83t-57.5 25q-46 0 -66.5 -30t-20.5 -77v-158h60v-97h-189v254q0 58 -19.5 83t-57.5 25q-47 0 -67 -30t-20 -77v-158h86v-97h-275v97h60v256h-59v98h188v-68q43 77 137 77q49 0 90 -24t57 -73q40 97 147 97q61 0 108 -38t47 -118v-207h60v-97z
" />
    <glyph glyph-name="uni006E" unicode="n" horiz-adv-x="593" 
d="M581 0h-249v97h60v157q0 58 -19.5 83t-57.5 25q-46 0 -71 -28.5t-26 -74.5v-162h60v-97h-249v97h60v256h-65v98h194v-69q45 78 145 78q64 0 111 -38t47 -118v-207h60v-97z" />
    <glyph glyph-name="uni006F" unicode="o" horiz-adv-x="523" 
d="M503 225q0 -107 -70 -171t-178 -64q-104 0 -169.5 60.5t-65.5 169.5q0 99 60 170t182 71t181.5 -70.5t59.5 -165.5zM370 229q0 69 -32 101t-78 32q-50 0 -78.5 -35.5t-28.5 -99.5q0 -58 26.5 -98t79.5 -40q50 0 80.5 37.5t30.5 102.5z" />
    <glyph glyph-name="uni0070" unicode="p" horiz-adv-x="571" 
d="M549 236q0 -100 -52.5 -173t-154.5 -73q-95 0 -138 67v-170h80v-100h-269v100h60v467h-65v97h194v-86q18 39 54 67t98 28q86 0 139.5 -59t53.5 -165zM415 223q0 66 -29.5 100.5t-75.5 34.5q-50 0 -76.5 -37t-28.5 -94l-1 -16q0 -55 29 -87t77 -32q46 0 75.5 32t29.5 99z
" />
    <glyph glyph-name="uni0071" unicode="q" horiz-adv-x="551" 
d="M555 -213h-269v100h80v197q-19 -38 -55 -66t-97 -28q-86 0 -139.5 59t-53.5 165q0 100 52.5 173t154.5 73q55 0 91.5 -23t55.5 -60q2 18 5.5 36.5t7.5 37.5h125q-8 -41 -13 -80t-5 -80v-404h60v-100zM366 228v11q0 56 -29 87.5t-75 31.5q-44 0 -75.5 -32t-31.5 -101
q0 -65 28.5 -99t71.5 -34q53 0 82 43t29 93z" />
    <glyph glyph-name="uni0072" unicode="r" horiz-adv-x="441" 
d="M314 457q19 0 42.5 -5.5t46.5 -19.5l20 -158l-98 -11l-17 77q-20 12 -35 12q-22 0 -38.5 -17t-16.5 -50v-188h80v-97h-269v97h60v256h-65v98h184v-86q11 39 35.5 65.5t70.5 26.5z" />
    <glyph glyph-name="uni0073" unicode="s" horiz-adv-x="459" 
d="M435 138q0 -75 -59.5 -111.5t-154.5 -36.5q-49 0 -98.5 10.5t-94.5 33.5l18 126l100 -11v-56q18 -6 38 -7.5t30 -1.5q37 0 64 12t27 36q0 29 -41 38t-95 18t-95 37t-41 95q0 83 64.5 111.5t133.5 28.5q90 0 169 -41l11 -115l-100 -11l-8 63q-33 11 -71 11
q-25 0 -42.5 -10.5t-17.5 -32.5q0 -29 39.5 -38.5t92 -18.5t92 -36.5t39.5 -92.5z" />
    <glyph glyph-name="uni0074" unicode="t" horiz-adv-x="398" 
d="M406 140q-10 -78 -54 -114t-114 -36q-75 0 -121.5 37.5t-46.5 107.5v224h-64v92h64v137h129v-137h162v-92h-162v-202q0 -59 54 -59q12 0 32.5 10.5t26.5 60.5z" />
    <glyph glyph-name="uni0075" unicode="u" horiz-adv-x="585" 
d="M571 0h-194v69q-45 -78 -145 -78q-64 0 -111 38t-47 118v207h-60v97h189v-254q0 -59 19.5 -83.5t57.5 -24.5q46 0 71.5 30t25.5 77v158h-73v97h202v-354h65v-97z" />
    <glyph glyph-name="uni0076" unicode="v" horiz-adv-x="527" 
d="M520 354h-46l-161 -354h-93l-170 354h-48v97h230v-97h-43l88 -189h6l67 189h-36v97h206v-97z" />
    <glyph glyph-name="uni0077" unicode="w" horiz-adv-x="760" 
d="M752 354h-41l-122 -354h-96l-117 270h-6l-106 -270h-91l-125 354h-41v97h240v-97h-62l55 -176h6l106 273h77l123 -269h6l37 172h-59v97h216v-97z" />
    <glyph glyph-name="uni0078" unicode="x" horiz-adv-x="537" 
d="M523 0h-227v97h33l-66 71l-65 -71h29v-97h-211v97h62l124 125l-136 132h-45v97h228v-97h-31l61 -67l65 67h-30v97h196v-97h-45l-123 -118l137 -139h44v-97z" />
    <glyph glyph-name="uni0079" unicode="y" horiz-adv-x="530" 
d="M523 354h-44l-145 -354l-43 -113h59v-100h-249v100h72l36 106l-158 361h-46v97h230v-97h-45l92 -208h6l68 208h-39v97h206v-97z" />
    <glyph glyph-name="uni007A" unicode="z" horiz-adv-x="477" 
d="M430 0h-394l-13 68l242 286h-135l-20 -69l-93 8l16 158h396l10 -68l-249 -286h145l21 71l102 -10z" />
    <glyph glyph-name="uni0030.zero" horiz-adv-x="576" 
d="M545 254q0 -136 -71.5 -200t-189.5 -64t-185.5 63t-67.5 199q0 124 66 201.5t191 77.5q133 0 195 -78.5t62 -198.5zM401 261q0 92 -31.5 122t-82.5 30q-54 0 -82.5 -31.5t-28.5 -120.5q0 -90 29 -121.5t82 -31.5q49 0 81.5 29t32.5 124zM337 208h-98v111h98v-111z" />
    <glyph glyph-name="uni0030" unicode="0" horiz-adv-x="576" 
d="M545 254q0 -136 -71.5 -200t-189.5 -64t-185.5 63t-67.5 199q0 124 66 201.5t191 77.5q133 0 195 -78.5t62 -198.5zM401 261q0 92 -31.5 122t-82.5 30q-54 0 -82.5 -31.5t-28.5 -120.5q0 -90 29 -121.5t82 -31.5q49 0 81.5 29t32.5 124z" />
    <glyph glyph-name="uni0031" unicode="1" horiz-adv-x="404" 
d="M387 0h-344v114h110v293h-110v114h244v-407h100v-114z" />
    <glyph glyph-name="uni0032" unicode="2" horiz-adv-x="537" 
d="M71 492q58 24 109.5 31.5t87.5 7.5q118 0 165.5 -46.5t47.5 -105.5q0 -65 -44.5 -111t-111.5 -82t-135 -72h212l7 59l107 -10l-15 -163h-454l-12 106q79 50 148 92t111.5 80.5t42.5 79.5q0 32 -26 45.5t-61 13.5q-18 0 -42 -3.5t-40 -11.5l-15 -74l-103 11z" />
    <glyph glyph-name="uni0033" unicode="3" horiz-adv-x="533" 
d="M71 492q58 24 113 31.5t88 7.5q90 0 149.5 -39.5t59.5 -121.5q0 -49 -25.5 -87.5t-86.5 -63.5v-4q71 -14 103 -57t32 -103q0 -101 -74 -148.5t-176 -47.5q-108 0 -162 48.5t-55 130.5l109 33q0 -35 24 -66.5t83 -31.5q57 0 81.5 30.5t24.5 67.5q0 50 -40 71t-112 23v88
q59 0 86.5 17t35.5 39.5t8 36.5q0 71 -84 71q-18 0 -43.5 -3.5t-41.5 -11.5l-15 -74l-103 11z" />
    <glyph glyph-name="uni0034" unicode="4" horiz-adv-x="570" 
d="M451 -130h-134v159h-288l-14 111l198 381h238v-381h98l-10 -111h-88v-159zM317 140v267h-38l-136 -267h174z" />
    <glyph glyph-name="uni0035" unicode="5" horiz-adv-x="522" 
d="M498 71q0 -118 -74 -165t-176 -47q-108 0 -162 48.5t-55 130.5l109 33q0 -35 24 -66.5t83 -31.5q57 0 81.5 30.5t24.5 67.5q0 63 -46.5 82t-106.5 19q-24 0 -48 -2t-46 -3l-43 41v313h400l19 -183l-114 -10l-18 79h-163v-127q9 1 18.5 1h18.5q70 0 133 -17.5t102 -62.5
t39 -130z" />
    <glyph glyph-name="uni0036" unicode="6" horiz-adv-x="536" 
d="M504 216q0 -100 -62.5 -163t-169.5 -63q-128 0 -184.5 90t-56.5 231q0 92 25 171.5t82.5 128.5t156.5 49q55 0 107 -20t87 -70l-77 -77q-39 53 -122 53q-59 0 -84.5 -41t-29.5 -140q-1 -7 -1 -23q17 32 52 55t94 23q101 0 142 -65t41 -139zM366 211q0 46 -20 73t-69 27
t-73 -25.5t-26 -64.5q5 -58 26 -85.5t70 -27.5q92 0 92 103z" />
    <glyph glyph-name="uni0037" unicode="7" horiz-adv-x="495" 
d="M490 458l-230 -588h-132l217 538h-204v-109h-117v222h450z" />
    <glyph glyph-name="uni0038" unicode="8" horiz-adv-x="539" 
d="M511 170q0 -84 -70 -132t-172 -48q-108 0 -173.5 43t-65.5 126q0 67 39 102t92 58q-48 27 -82.5 65t-34.5 100q0 79 62 127.5t164 48.5q97 0 157.5 -44t60.5 -118q0 -56 -33.5 -87t-79.5 -53q53 -28 94.5 -71t41.5 -117zM354 475q0 47 -26 62t-58 15q-82 0 -82 -59
q0 -35 36 -58t86 -46q44 34 44 86zM367 168q0 42 -44.5 68t-100.5 52q-26 -17 -41.5 -40t-15.5 -57q0 -41 26.5 -67t79.5 -26q47 0 71.5 20.5t24.5 49.5z" />
    <glyph glyph-name="uni0039" unicode="9" horiz-adv-x="535" 
d="M31 305q0 100 62.5 163t169.5 63q128 0 184.5 -90t56.5 -231q0 -92 -25 -171.5t-83 -128.5t-156 -49q-56 0 -108 20t-86 70l77 77q39 -53 122 -53q59 0 84 41t30 140q1 7 1 23q-17 -31 -52 -54.5t-94 -23.5q-101 0 -142 65.5t-41 138.5zM169 310q0 -46 19.5 -73t69.5 -27
q49 0 73 25.5t26 64.5q-5 58 -26 85.5t-70 27.5q-92 0 -92 -103z" />
    <glyph glyph-name="uni00C1" unicode="&#xc1;" horiz-adv-x="687" 
d="M512 716l-215 -28l-16 57l202 88zM687 0h-259v114h52l-24 66h-221l-27 -66h61v-114h-256v114h59l186 422h-90v114h223l234 -536h62v-114zM420 276l-68 183h-6l-73 -183h147z" />
    <glyph glyph-name="uni00C2" unicode="&#xc2;" horiz-adv-x="687" 
d="M495 737l-28 -52l-135 60l-124 -60l-29 53l135 106h45zM687 0h-259v114h52l-24 66h-221l-27 -66h61v-114h-256v114h59l186 422h-90v114h223l234 -536h62v-114zM420 276l-68 183h-6l-73 -183h147z" />
    <glyph glyph-name="uni00C4" unicode="&#xc4;" horiz-adv-x="687" 
d="M184 705v134h129v-134h-129zM369 705v134h129v-134h-129zM687 0h-259v114h52l-24 66h-221l-27 -66h61v-114h-256v114h59l186 422h-90v114h223l234 -536h62v-114zM420 276l-68 183h-6l-73 -183h147z" />
    <glyph glyph-name="uni00C5" unicode="&#xc5;" horiz-adv-x="687" 
d="M447 783q0 -41 -25.5 -67.5t-80.5 -26.5q-53 0 -78 25t-25 66q0 42 26 67.5t80 25.5q55 0 79 -25.5t24 -64.5zM367 785q0 10 -3.5 19t-20.5 9q-25 0 -25 -33q0 -31 24 -31q25 0 25 36zM687 0h-259v114h52l-24 66h-221l-27 -66h61v-114h-256v114h59l186 422h-90v114h223
l234 -536h62v-114zM420 276l-68 183h-6l-73 -183h147z" />
    <glyph glyph-name="uni00C0" unicode="&#xc0;" horiz-adv-x="687" 
d="M413 745l-16 -57l-215 28l29 117zM687 0h-259v114h52l-24 66h-221l-27 -66h61v-114h-256v114h59l186 422h-90v114h223l234 -536h62v-114zM420 276l-68 183h-6l-73 -183h147z" />
    <glyph glyph-name="uni00C3" unicode="&#xc3;" horiz-adv-x="687" 
d="M477 820q0 -44 -16.5 -82t-68.5 -38q-37 0 -64.5 15.5t-61.5 15.5q-33 0 -42 -33l-50 16q-2 28 16.5 69t69.5 41q33 0 61.5 -15.5t53.5 -15.5q14 0 27.5 8t20.5 30zM687 0h-259v114h52l-24 66h-221l-27 -66h61v-114h-256v114h59l186 422h-90v114h223l234 -536h62v-114z
M420 276l-68 183h-6l-73 -183h147z" />
    <glyph glyph-name="uni0102" unicode="&#x102;" horiz-adv-x="687" 
d="M490 833q0 -71 -38 -104.5t-102 -33.5q-139 0 -139 138h102q0 -61 37 -61q21 0 29.5 18.5t8.5 42.5h102zM687 0h-259v114h52l-24 66h-221l-27 -66h61v-114h-256v114h59l186 422h-90v114h223l234 -536h62v-114zM420 276l-68 183h-6l-73 -183h147z" />
    <glyph glyph-name="uni0100" unicode="&#x100;" horiz-adv-x="687" 
d="M493 721h-308v98h308v-98zM687 0h-259v114h52l-24 66h-221l-27 -66h61v-114h-256v114h59l186 422h-90v114h223l234 -536h62v-114zM420 276l-68 183h-6l-73 -183h147z" />
    <glyph glyph-name="uni0104" unicode="&#x104;" horiz-adv-x="687" 
d="M691 -188q-17 -8 -39 -14t-51 -6q-49 0 -83.5 21.5t-34.5 69.5q0 38 21 68t52 49h-128v114h52l-24 66h-221l-27 -66h61v-114h-256v114h59l186 422h-90v114h223l234 -536h62v-114h-51q-27 -19 -35 -38.5t-8 -35.5q0 -26 12.5 -35t30.5 -9q26 0 46 12zM420 276l-68 183h-6
l-73 -183h147z" />
    <glyph glyph-name="uni00C6" unicode="&#xc6;" horiz-adv-x="934" 
d="M879 0h-498v114h70v66h-216l-31 -66h56v-114h-256v114h64l213 422h-82v114h674l20 -190l-114 -10l-20 86h-174v-153h274v-113h-274v-156h180l20 86l114 -10zM451 276v260h-48l-123 -260h171z" />
    <glyph glyph-name="uni01FC" unicode="&#x1fc;" horiz-adv-x="934" 
d="M834 716l-215 -28l-16 57l202 88zM879 0h-498v114h70v66h-216l-31 -66h56v-114h-256v114h64l213 422h-82v114h674l20 -190l-114 -10l-20 86h-174v-153h274v-113h-274v-156h180l20 86l114 -10zM451 276v260h-48l-123 -260h171z" />
    <glyph glyph-name="uni01E2" unicode="&#x1e2;" horiz-adv-x="935" 
d="M826 721h-308v98h308v-98zM879 0h-498v114h70v66h-216l-31 -66h56v-114h-256v114h64l213 422h-82v114h674l20 -190l-114 -10l-20 86h-174v-153h274v-113h-274v-156h180l20 86l114 -10zM451 276v260h-48l-123 -260h171z" />
    <glyph glyph-name="uni00C7" unicode="&#xc7;" horiz-adv-x="645" 
d="M472 -121q0 -50 -41 -69t-89 -19q-79 0 -116 30l23 70q11 -7 30.5 -15t47.5 -8q36 0 36 21q0 11 -7.5 18t-31.5 7h-37v82q-115 20 -188.5 105t-73.5 213q0 76 32 156t104.5 135t196.5 55q83 0 142.5 -24.5t91.5 -53.5l16 -151l-109 -10l-14 86q-25 17 -62.5 26t-70.5 9
q-84 0 -133.5 -56t-49.5 -163q0 -113 54 -164t138 -51q79 0 124 27l14 97l109 -10l-13 -153q-30 -32 -92.5 -53t-127.5 -25v-32h8q50 0 69.5 -25.5t19.5 -54.5z" />
    <glyph glyph-name="uni0106" unicode="&#x106;" horiz-adv-x="644" 
d="M520 716l-215 -28l-16 57l202 88zM594 69q-32 -35 -102.5 -57t-140.5 -22q-139 0 -233 89.5t-94 234.5q0 76 32 156t105 135t196 55q83 0 143 -24.5t91 -53.5l16 -151l-109 -10l-14 86q-26 17 -63 26t-70 9q-84 0 -133.5 -56t-49.5 -163q0 -113 54 -164t138 -51
q79 0 124 27l14 97l109 -10z" />
    <glyph glyph-name="uni010C" unicode="&#x10c;" horiz-adv-x="644" 
d="M513 791l-135 -106h-45l-136 107l28 52l137 -60l122 60zM594 69q-32 -35 -102.5 -57t-140.5 -22q-139 0 -233 89.5t-94 234.5q0 76 32 156t105 135t196 55q83 0 143 -24.5t91 -53.5l16 -151l-109 -10l-14 86q-26 17 -63 26t-70 9q-84 0 -133.5 -56t-49.5 -163
q0 -113 54 -164t138 -51q79 0 124 27l14 97l109 -10z" />
    <glyph glyph-name="uni0108" unicode="&#x108;" horiz-adv-x="644" 
d="M518 737l-28 -52l-135 60l-124 -60l-29 53l135 106h45zM594 69q-32 -35 -102.5 -57t-140.5 -22q-139 0 -233 89.5t-94 234.5q0 76 32 156t105 135t196 55q83 0 143 -24.5t91 -53.5l16 -151l-109 -10l-14 86q-26 17 -63 26t-70 9q-84 0 -133.5 -56t-49.5 -163
q0 -113 54 -164t138 -51q79 0 124 27l14 97l109 -10z" />
    <glyph glyph-name="uni010A" unicode="&#x10a;" horiz-adv-x="644" 
d="M293 705v134h129v-134h-129zM594 69q-32 -35 -102.5 -57t-140.5 -22q-139 0 -233 89.5t-94 234.5q0 76 32 156t105 135t196 55q83 0 143 -24.5t91 -53.5l16 -151l-109 -10l-14 86q-26 17 -63 26t-70 9q-84 0 -133.5 -56t-49.5 -163q0 -113 54 -164t138 -51q79 0 124 27
l14 97l109 -10z" />
    <glyph glyph-name="uni010E" unicode="&#x10e;" horiz-adv-x="698" 
d="M457 791l-135 -106h-45l-136 107l28 52l137 -60l122 60zM673 328q0 -148 -87 -238t-241 -90h-306v114h70v422h-70v114h298q167 0 251.5 -89t84.5 -233zM529 326q0 210 -195 210h-91v-422h91q94 0 144.5 50t50.5 162z" />
    <glyph glyph-name="uni0110" unicode="&#x110;" horiz-adv-x="700" 
d="M675 328q0 -148 -87 -238t-241 -90h-306v114h70v173h-67v110h67v139h-70v114h298q167 0 251.5 -89t84.5 -233zM531 326q0 210 -195 210h-91v-139h121v-110h-121v-173h91q94 0 144.5 50t50.5 162z" />
    <glyph glyph-name="uni00C9" unicode="&#xc9;" horiz-adv-x="592" 
d="M480 716l-215 -28l-16 57l202 88zM541 0h-502v114h70v422h-70v114h496l20 -190l-114 -10l-20 86h-178v-153h274v-113h-274v-156h184l20 86l114 -10z" />
    <glyph glyph-name="uni00CA" unicode="&#xca;" horiz-adv-x="592" 
d="M491 737l-28 -52l-135 60l-124 -60l-29 53l135 106h45zM541 0h-502v114h70v422h-70v114h496l20 -190l-114 -10l-20 86h-178v-153h274v-113h-274v-156h184l20 86l114 -10z" />
    <glyph glyph-name="uni00CB" unicode="&#xcb;" horiz-adv-x="592" 
d="M163 705v134h129v-134h-129zM348 705v134h129v-134h-129zM541 0h-502v114h70v422h-70v114h496l20 -190l-114 -10l-20 86h-178v-153h274v-113h-274v-156h184l20 86l114 -10z" />
    <glyph glyph-name="uni00C8" unicode="&#xc8;" horiz-adv-x="592" 
d="M414 745l-16 -57l-215 28l29 117zM541 0h-502v114h70v422h-70v114h496l20 -190l-114 -10l-20 86h-178v-153h274v-113h-274v-156h184l20 86l114 -10z" />
    <glyph glyph-name="uni0114" unicode="&#x114;" horiz-adv-x="592" 
d="M473 833q0 -71 -38 -104.5t-102 -33.5q-139 0 -139 138h102q0 -61 37 -61q21 0 29.5 18.5t8.5 42.5h102zM541 0h-502v114h70v422h-70v114h496l20 -190l-114 -10l-20 86h-178v-153h274v-113h-274v-156h184l20 86l114 -10z" />
    <glyph glyph-name="uni011A" unicode="&#x11a;" horiz-adv-x="592" 
d="M483 791l-135 -106h-45l-136 107l28 52l137 -60l122 60zM541 0h-502v114h70v422h-70v114h496l20 -190l-114 -10l-20 86h-178v-153h274v-113h-274v-156h184l20 86l114 -10z" />
    <glyph glyph-name="uni0116" unicode="&#x116;" horiz-adv-x="592" 
d="M266 705v134h129v-134h-129zM541 0h-502v114h70v422h-70v114h496l20 -190l-114 -10l-20 86h-178v-153h274v-113h-274v-156h184l20 86l114 -10z" />
    <glyph glyph-name="uni0112" unicode="&#x112;" horiz-adv-x="592" 
d="M477 721h-308v98h308v-98zM541 0h-502v114h70v422h-70v114h496l20 -190l-114 -10l-20 86h-178v-153h274v-113h-274v-156h184l20 86l114 -10z" />
    <glyph glyph-name="uni0118" unicode="&#x118;" horiz-adv-x="591" 
d="M540 0h-26q-27 -19 -35 -38.5t-8 -35.5q0 -26 12.5 -35t30.5 -9q26 0 46 12l9 -82q-17 -8 -39 -14t-51 -6q-49 0 -83.5 21.5t-34.5 69.5q0 38 21 68t52 49h-396v114h70v422h-70v114h496l20 -190l-114 -10l-20 86h-178v-153h274v-113h-274v-156h184l20 86l114 -10z" />
    <glyph glyph-name="uni1EBC" unicode="&#x1ebc;" horiz-adv-x="592" 
d="M478 820q0 -44 -16.5 -82t-68.5 -38q-37 0 -64 15.5t-62 15.5q-33 0 -42 -33l-50 16q-2 28 16.5 69t69.5 41q33 0 61 -15.5t54 -15.5q14 0 27.5 8t20.5 30zM541 0h-502v114h70v422h-70v114h496l20 -190l-114 -10l-20 86h-178v-153h274v-113h-274v-156h184l20 86l114 -10z
" />
    <glyph glyph-name="uni011E" unicode="&#x11e;" horiz-adv-x="682" 
d="M505 833q0 -71 -38 -104.5t-102 -33.5q-139 0 -139 138h102q0 -61 37 -61q21 0 29.5 18.5t8.5 42.5h102zM658 246h-32v-246h-104l-13 68q-30 -35 -76.5 -56.5t-109.5 -21.5q-137 0 -217.5 95t-80.5 235t85 240t250 100q79 0 143.5 -23t96.5 -55l18 -141l-108 -10l-18 76
q-26 17 -65.5 26t-72.5 9q-80 0 -132.5 -54t-52.5 -166q0 -108 49.5 -161t128.5 -53q66 0 105 35t39 99v4h-127v113h294v-113z" />
    <glyph glyph-name="uni0122" unicode="&#x122;" horiz-adv-x="682" 
d="M658 246h-32v-246h-104l-13 68q-30 -35 -76.5 -56.5t-109.5 -21.5q-137 0 -217.5 95t-80.5 235t85 240t250 100q79 0 143.5 -23t96.5 -55l18 -141l-108 -10l-18 76q-26 17 -65.5 26t-72.5 9q-80 0 -132.5 -54t-52.5 -166q0 -108 49.5 -161t128.5 -53q66 0 105 35t39 99v4
h-127v113h294v-113zM409 -58l-26 -155h-98l3 155h121z" />
    <glyph glyph-name="uni011C" unicode="&#x11c;" horiz-adv-x="682" 
d="M511 737l-28 -52l-135 60l-124 -60l-29 53l135 106h45zM658 246h-32v-246h-104l-13 68q-30 -35 -76.5 -56.5t-109.5 -21.5q-137 0 -217.5 95t-80.5 235t85 240t250 100q79 0 143.5 -23t96.5 -55l18 -141l-108 -10l-18 76q-26 17 -65.5 26t-72.5 9q-80 0 -132.5 -54
t-52.5 -166q0 -108 49.5 -161t128.5 -53q66 0 105 35t39 99v4h-127v113h294v-113z" />
    <glyph glyph-name="uni0120" unicode="&#x120;" horiz-adv-x="682" 
d="M297 705v134h129v-134h-129zM658 246h-32v-246h-104l-13 68q-30 -35 -76.5 -56.5t-109.5 -21.5q-137 0 -217.5 95t-80.5 235t85 240t250 100q79 0 143.5 -23t96.5 -55l18 -141l-108 -10l-18 76q-26 17 -65.5 26t-72.5 9q-80 0 -132.5 -54t-52.5 -166q0 -108 49.5 -161
t128.5 -53q66 0 105 35t39 99v4h-127v113h294v-113z" />
    <glyph glyph-name="uni0126" unicode="&#x126;" horiz-adv-x="761" 
d="M38 424v77h71v35h-70v114h274v-114h-70v-35h275v35h-70v114h274v-114h-70v-35h66v-77h-66v-310h70v-114h-274v114h70v159h-275v-159h70v-114h-274v114h70v310h-71zM243 386h275v38h-275v-38z" />
    <glyph glyph-name="uni0124" unicode="&#x124;" horiz-adv-x="761" 
d="M541 737l-28 -52l-135 60l-124 -60l-29 53l135 106h45zM722 0h-274v114h70v159h-275v-159h70v-114h-274v114h70v422h-70v114h274v-114h-70v-150h275v150h-70v114h274v-114h-70v-422h70v-114z" />
    <glyph glyph-name="uni00CD" unicode="&#xcd;" horiz-adv-x="352" 
d="M305 716l-215 -28l-16 57l202 88zM313 0h-274v114h70v422h-70v114h274v-114h-70v-422h70v-114z" />
    <glyph glyph-name="uni00CE" unicode="&#xce;" horiz-adv-x="352" 
d="M334 737l-28 -52l-135 60l-124 -60l-29 53l135 106h45zM313 0h-274v114h70v422h-70v114h274v-114h-70v-422h70v-114z" />
    <glyph glyph-name="uni00CF" unicode="&#xcf;" horiz-adv-x="352" 
d="M24 705v134h129v-134h-129zM209 705v134h129v-134h-129zM313 0h-274v114h70v422h-70v114h274v-114h-70v-422h70v-114z" />
    <glyph glyph-name="uni00CC" unicode="&#xcc;" horiz-adv-x="352" 
d="M269 745l-16 -57l-215 28l29 117zM313 0h-274v114h70v422h-70v114h274v-114h-70v-422h70v-114z" />
    <glyph glyph-name="uni012C" unicode="&#x12c;" horiz-adv-x="352" 
d="M316 833q0 -71 -38 -104.5t-102 -33.5q-139 0 -139 138h102q0 -61 37 -61q21 0 29.5 18.5t8.5 42.5h102zM313 0h-274v114h70v422h-70v114h274v-114h-70v-422h70v-114z" />
    <glyph glyph-name="uni0130" unicode="&#x130;" horiz-adv-x="352" 
d="M111 705v134h129v-134h-129zM313 0h-274v114h70v422h-70v114h274v-114h-70v-422h70v-114z" />
    <glyph glyph-name="uni012A" unicode="&#x12a;" horiz-adv-x="352" 
d="M331 721h-308v98h308v-98zM313 0h-274v114h70v422h-70v114h274v-114h-70v-422h70v-114z" />
    <glyph glyph-name="uni012E" unicode="&#x12e;" horiz-adv-x="351" 
d="M277 -188q-17 -8 -39 -14t-51 -6q-49 0 -83.5 21.5t-34.5 69.5q0 38 21 68t52 49h-103v114h70v422h-70v114h274v-114h-70v-422h70v-114h-91q-27 -19 -35 -38.5t-8 -35.5q0 -26 12.5 -35t30.5 -9q26 0 46 12z" />
    <glyph glyph-name="uni0128" unicode="&#x128;" horiz-adv-x="352" 
d="M332 820q0 -44 -16.5 -82t-68.5 -38q-37 0 -64 15.5t-62 15.5q-33 0 -42 -33l-50 16q-2 28 16.5 69t69.5 41q33 0 61 -15.5t54 -15.5q14 0 27.5 8t20.5 30zM313 0h-274v114h70v422h-70v114h274v-114h-70v-422h70v-114z" />
    <glyph glyph-name="uni0134" unicode="&#x134;" horiz-adv-x="487" 
d="M469 737l-28 -52l-135 60l-124 -60l-29 53l135 106h45zM457 536h-60v-351q0 -98 -54.5 -146.5t-142.5 -48.5q-83 0 -128.5 37t-66.5 86l94 71q17 -44 40.5 -57t47.5 -13q41 0 58.5 20t17.5 50v352h-114v114h308v-114z" />
    <glyph glyph-name="uni0136" unicode="&#x136;" horiz-adv-x="673" 
d="M665 0h-283v114h60l-119 160h-80v-160h55v-114h-259v114h70v422h-70v114h262v-114h-58v-153h82l115 153h-56v114h270v-114h-73l-155 -195l172 -227h67v-114zM409 -58l-26 -155h-98l3 155h121z" />
    <glyph glyph-name="uni0139" unicode="&#x139;" horiz-adv-x="558" 
d="M313 716l-215 -28l-16 57l202 88zM527 0h-488v114h70v422h-70v114h295v-114h-91v-422h170l20 126l114 -10z" />
    <glyph glyph-name="uni013D" unicode="&#x13d;" horiz-adv-x="558" 
d="M502 682l-36 -224h-98l13 224h121zM526 0h-488v114h70v422h-70v114h295v-114h-91v-422h170l20 126l114 -10z" />
    <glyph glyph-name="uni013B" unicode="&#x13b;" horiz-adv-x="558" 
d="M527 0h-488v114h70v422h-70v114h295v-114h-91v-422h170l20 126l114 -10zM370 -58l-26 -155h-98l3 155h121z" />
    <glyph glyph-name="uni013F" unicode="&#x13f;" horiz-adv-x="558" 
d="M527 0h-488v114h70v422h-70v114h295v-114h-91v-422h170l20 126l114 -10zM312 281v134h129v-134h-129z" />
    <glyph glyph-name="uni0141" unicode="&#x141;" horiz-adv-x="560" 
d="M529 0h-488v114h70v142l-67 -21v100l67 21v180h-70v114h295v-114h-91v-138l149 47v-100l-149 -47v-184h170l20 126l114 -10z" />
    <glyph glyph-name="uni00D1" unicode="&#xd1;" horiz-adv-x="760" 
d="M526 820q0 -44 -16.5 -82t-68.5 -38q-37 0 -64 15.5t-62 15.5q-33 0 -42 -33l-50 16q-2 28 16.5 69t69.5 41q33 0 61 -15.5t54 -15.5q14 0 27.5 8t20.5 30zM733 536h-70v-536l-75 -1l-349 413h-4v-298h90v-114h-285v114h70v422h-81v114h177l328 -386h4v272h-94v114h289
v-114z" />
    <glyph glyph-name="uni0143" unicode="&#x143;" horiz-adv-x="760" 
d="M533 716l-215 -28l-16 57l202 88zM733 536h-70v-536l-75 -1l-349 413h-4v-298h90v-114h-285v114h70v422h-81v114h177l328 -386h4v272h-94v114h289v-114z" />
    <glyph glyph-name="uni0147" unicode="&#x147;" horiz-adv-x="760" 
d="M528 791l-135 -106h-45l-136 107l28 52l137 -60l122 60zM733 536h-70v-536l-75 -1l-349 413h-4v-298h90v-114h-285v114h70v422h-81v114h177l328 -386h4v272h-94v114h289v-114z" />
    <glyph glyph-name="uni0145" unicode="&#x145;" horiz-adv-x="760" 
d="M733 536h-70v-536l-75 -1l-349 413h-4v-298h90v-114h-285v114h70v422h-81v114h177l328 -386h4v272h-94v114h289v-114zM462 -58l-26 -155h-98l3 155h121z" />
    <glyph glyph-name="uni014A" unicode="&#x14a;" horiz-adv-x="760" 
d="M733 536h-70v-543q0 -98 -54.5 -146.5t-142.5 -48.5q-83 0 -128.5 37t-66.5 86l94 71q17 -44 40.5 -57t47.5 -13q41 0 58.5 20t17.5 50v77l-290 343h-4v-298h90v-114h-285v114h70v422h-81v114h177l328 -386h4v272h-94v114h289v-114z" />
    <glyph glyph-name="uni1E46" unicode="&#x1e46;" horiz-adv-x="760" 
d="M733 536h-70v-536l-75 -1l-349 413h-4v-298h90v-114h-285v114h70v422h-81v114h177l328 -386h4v272h-94v114h289v-114zM328 -196v134h129v-134h-129z" />
    <glyph glyph-name="uni00D2" unicode="&#xd2;" horiz-adv-x="711" 
d="M448 745l-16 -57l-215 28l29 117zM688 326q0 -138 -88.5 -237t-246.5 -99q-159 0 -244 99t-85 235q0 142 90 239t243 97q156 0 243.5 -98.5t87.5 -235.5zM543 322q0 104 -48 162t-139 58q-97 0 -142 -61.5t-45 -153.5q0 -89 44 -154t147 -65q95 0 139 59.5t44 154.5z" />
    <glyph glyph-name="uni00D6" unicode="&#xd6;" horiz-adv-x="711" 
d="M205 705v134h129v-134h-129zM390 705v134h129v-134h-129zM688 326q0 -138 -88.5 -237t-246.5 -99q-159 0 -244 99t-85 235q0 142 90 239t243 97q156 0 243.5 -98.5t87.5 -235.5zM543 322q0 104 -48 162t-139 58q-97 0 -142 -61.5t-45 -153.5q0 -89 44 -154t147 -65
q95 0 139 59.5t44 154.5z" />
    <glyph glyph-name="uni00D5" unicode="&#xd5;" horiz-adv-x="711" 
d="M515 820q0 -44 -16.5 -82t-68.5 -38q-37 0 -64.5 15.5t-61.5 15.5q-33 0 -42 -33l-50 16q-2 28 16.5 69t69.5 41q33 0 61.5 -15.5t53.5 -15.5q14 0 27.5 8t20.5 30zM688 326q0 -138 -88.5 -237t-246.5 -99q-159 0 -244 99t-85 235q0 142 90 239t243 97q156 0 243.5 -98.5
t87.5 -235.5zM543 322q0 104 -48 162t-139 58q-97 0 -142 -61.5t-45 -153.5q0 -89 44 -154t147 -65q95 0 139 59.5t44 154.5z" />
    <glyph glyph-name="uni014E" unicode="&#x14e;" horiz-adv-x="711" 
d="M508 833q0 -71 -38 -104.5t-102 -33.5q-139 0 -139 138h102q0 -61 37 -61q21 0 29.5 18.5t8.5 42.5h102zM688 326q0 -138 -88.5 -237t-246.5 -99q-159 0 -244 99t-85 235q0 142 90 239t243 97q156 0 243.5 -98.5t87.5 -235.5zM543 322q0 104 -48 162t-139 58
q-97 0 -142 -61.5t-45 -153.5q0 -89 44 -154t147 -65q95 0 139 59.5t44 154.5z" />
    <glyph glyph-name="uni00D3" unicode="&#xd3;" horiz-adv-x="711" 
d="M522 716l-215 -28l-16 57l202 88zM688 326q0 -138 -88.5 -237t-246.5 -99q-159 0 -244 99t-85 235q0 142 90 239t243 97q156 0 243.5 -98.5t87.5 -235.5zM543 322q0 104 -48 162t-139 58q-97 0 -142 -61.5t-45 -153.5q0 -89 44 -154t147 -65q95 0 139 59.5t44 154.5z" />
    <glyph glyph-name="uni00D4" unicode="&#xd4;" horiz-adv-x="711" 
d="M518 737l-28 -52l-135 60l-124 -60l-29 53l135 106h45zM688 326q0 -138 -88.5 -237t-246.5 -99q-159 0 -244 99t-85 235q0 142 90 239t243 97q156 0 243.5 -98.5t87.5 -235.5zM543 322q0 104 -48 162t-139 58q-97 0 -142 -61.5t-45 -153.5q0 -89 44 -154t147 -65
q95 0 139 59.5t44 154.5z" />
    <glyph glyph-name="uni0150" unicode="&#x150;" horiz-adv-x="711" 
d="M463 821l-170 -134l-43 40l129 179zM617 716l-215 -28l-16 57l202 88zM688 326q0 -138 -88.5 -237t-246.5 -99q-159 0 -244 99t-85 235q0 142 90 239t243 97q156 0 243.5 -98.5t87.5 -235.5zM543 322q0 104 -48 162t-139 58q-97 0 -142 -61.5t-45 -153.5q0 -89 44 -154
t147 -65q95 0 139 59.5t44 154.5z" />
    <glyph glyph-name="uni014C" unicode="&#x14c;" horiz-adv-x="711" 
d="M523 721h-308v98h308v-98zM688 326q0 -138 -88.5 -237t-246.5 -99q-159 0 -244 99t-85 235q0 142 90 239t243 97q156 0 243.5 -98.5t87.5 -235.5zM543 322q0 104 -48 162t-139 58q-97 0 -142 -61.5t-45 -153.5q0 -89 44 -154t147 -65q95 0 139 59.5t44 154.5z" />
    <glyph glyph-name="uni00D8" unicode="&#xd8;" horiz-adv-x="714" 
d="M689 326q0 -138 -88.5 -237t-246.5 -99q-105 0 -182 47l-31 -37h-115l79 95q-80 91 -80 229q0 142 90 239t243 97q99 0 177 -46l29 36h126l-81 -96q80 -92 80 -228zM170 327q0 -70 25 -123l260 314q-43 24 -98 24q-97 0 -142 -61.5t-45 -153.5zM544 322q0 72 -25 125
l-264 -312q43 -27 106 -27q95 0 139 59.5t44 154.5z" />
    <glyph glyph-name="uni01FE" unicode="&#x1fe;" horiz-adv-x="714" 
d="M535 716l-215 -28l-16 57l202 88zM689 326q0 -138 -88.5 -237t-246.5 -99q-105 0 -182 47l-31 -37h-115l79 95q-80 91 -80 229q0 142 90 239t243 97q99 0 177 -46l29 36h126l-81 -96q80 -92 80 -228zM170 327q0 -70 25 -123l260 314q-43 24 -98 24q-97 0 -142 -61.5
t-45 -153.5zM544 322q0 72 -25 125l-264 -312q43 -27 106 -27q95 0 139 59.5t44 154.5z" />
    <glyph glyph-name="uni0154" unicode="&#x154;" horiz-adv-x="637" 
d="M452 716l-215 -28l-16 57l202 88zM626 0h-166l-129 248h-88v-134h70v-114h-274v114h70v422h-70v114h294q121 0 186 -49.5t65 -147.5q0 -66 -34 -110.5t-90 -66.5l88 -162h78v-114zM440 450q0 49 -29 67.5t-102 18.5h-66v-182h64q77 0 105 25t28 71z" />
    <glyph glyph-name="uni0158" unicode="&#x158;" horiz-adv-x="637" 
d="M462 791l-135 -106h-45l-136 107l28 52l137 -60l122 60zM626 0h-166l-129 248h-88v-134h70v-114h-274v114h70v422h-70v114h294q121 0 186 -49.5t65 -147.5q0 -66 -34 -110.5t-90 -66.5l88 -162h78v-114zM440 450q0 49 -29 67.5t-102 18.5h-66v-182h64q77 0 105 25t28 71z
" />
    <glyph glyph-name="uni0156" unicode="&#x156;" horiz-adv-x="637" 
d="M626 0h-166l-129 248h-88v-134h70v-114h-274v114h70v422h-70v114h294q121 0 186 -49.5t65 -147.5q0 -66 -34 -110.5t-90 -66.5l88 -162h78v-114zM440 450q0 49 -29 67.5t-102 18.5h-66v-182h64q77 0 105 25t28 71zM409 -58l-26 -155h-98l3 155h121z" />
    <glyph glyph-name="uni015A" unicode="&#x15a;" horiz-adv-x="557" 
d="M442 716l-215 -28l-16 57l202 88zM526 197q0 -101 -68 -154t-187 -53q-66 0 -131.5 17t-103.5 51l20 161l107 -10l-1 -79q34 -18 58 -21.5t41 -3.5q53 0 87 13.5t34 62.5q0 54 -40 72.5t-94 28.5q-47 8 -94.5 23.5t-79.5 51t-32 105.5q0 109 74 153.5t162 44.5
q64 0 122 -19.5t89 -52.5l6 -141l-107 -10l-9 76q-25 17 -50.5 23t-49.5 6q-40 0 -66.5 -14t-26.5 -49q0 -41 34 -57t78 -26q40 -8 93.5 -22.5t94 -54t40.5 -122.5z" />
    <glyph glyph-name="uni015E" unicode="&#x15e;" horiz-adv-x="557" 
d="M424 -121q0 -50 -41 -69t-89 -19q-79 0 -116 30l23 70q11 -7 30.5 -15t47.5 -8q36 0 36 21q0 11 -7.5 18t-31.5 7h-37v77q-59 4 -114 20.5t-89 46.5l20 161l107 -10l-1 -79q34 -18 58 -21.5t41 -3.5q53 0 87 13.5t34 62.5q0 54 -40 72.5t-94 28.5q-47 8 -94.5 23.5
t-79.5 51t-32 105.5q0 109 74 153.5t162 44.5q64 0 122 -19.5t89 -52.5l6 -141l-107 -10l-9 76q-25 17 -50.5 23t-49.5 6q-40 0 -66.5 -14t-26.5 -49q0 -41 34 -57t78 -26q40 -8 93.5 -22.5t94 -54t40.5 -122.5q0 -89 -53 -140.5t-146 -62.5v-35h8q50 0 69.5 -25.5
t19.5 -54.5z" />
    <glyph glyph-name="uni0160" unicode="&#x160;" horiz-adv-x="557" 
d="M430 791l-135 -106h-45l-136 107l28 52l137 -60l122 60zM526 197q0 -101 -68 -154t-187 -53q-66 0 -131.5 17t-103.5 51l20 161l107 -10l-1 -79q34 -18 58 -21.5t41 -3.5q53 0 87 13.5t34 62.5q0 54 -40 72.5t-94 28.5q-47 8 -94.5 23.5t-79.5 51t-32 105.5
q0 109 74 153.5t162 44.5q64 0 122 -19.5t89 -52.5l6 -141l-107 -10l-9 76q-25 17 -50.5 23t-49.5 6q-40 0 -66.5 -14t-26.5 -49q0 -41 34 -57t78 -26q40 -8 93.5 -22.5t94 -54t40.5 -122.5z" />
    <glyph glyph-name="uni015C" unicode="&#x15c;" horiz-adv-x="557" 
d="M440 737l-28 -52l-135 60l-124 -60l-29 53l135 106h45zM526 197q0 -101 -68 -154t-187 -53q-66 0 -131.5 17t-103.5 51l20 161l107 -10l-1 -79q34 -18 58 -21.5t41 -3.5q53 0 87 13.5t34 62.5q0 54 -40 72.5t-94 28.5q-47 8 -94.5 23.5t-79.5 51t-32 105.5
q0 109 74 153.5t162 44.5q64 0 122 -19.5t89 -52.5l6 -141l-107 -10l-9 76q-25 17 -50.5 23t-49.5 6q-40 0 -66.5 -14t-26.5 -49q0 -41 34 -57t78 -26q40 -8 93.5 -22.5t94 -54t40.5 -122.5z" />
    <glyph glyph-name="uni0218" unicode="&#x218;" horiz-adv-x="557" 
d="M526 197q0 -101 -68 -154t-187 -53q-66 0 -131.5 17t-103.5 51l20 161l107 -10l-1 -79q34 -18 58 -21.5t41 -3.5q53 0 87 13.5t34 62.5q0 54 -40 72.5t-94 28.5q-47 8 -94.5 23.5t-79.5 51t-32 105.5q0 109 74 153.5t162 44.5q64 0 122 -19.5t89 -52.5l6 -141l-107 -10
l-9 76q-25 17 -50.5 23t-49.5 6q-40 0 -66.5 -14t-26.5 -49q0 -41 34 -57t78 -26q40 -8 93.5 -22.5t94 -54t40.5 -122.5zM362 -58l-26 -155h-98l3 155h121z" />
    <glyph glyph-name="uni1E62" unicode="&#x1e62;" horiz-adv-x="557" 
d="M526 197q0 -101 -68 -154t-187 -53q-66 0 -131.5 17t-103.5 51l20 161l107 -10l-1 -79q34 -18 58 -21.5t41 -3.5q53 0 87 13.5t34 62.5q0 54 -40 72.5t-94 28.5q-47 8 -94.5 23.5t-79.5 51t-32 105.5q0 109 74 153.5t162 44.5q64 0 122 -19.5t89 -52.5l6 -141l-107 -10
l-9 76q-25 17 -50.5 23t-49.5 6q-40 0 -66.5 -14t-26.5 -49q0 -41 34 -57t78 -26q40 -8 93.5 -22.5t94 -54t40.5 -122.5zM223 -196v134h129v-134h-129z" />
    <glyph glyph-name="uni0166" unicode="&#x166;" horiz-adv-x="648" 
d="M628 430l-114 -10l-20 116h-103v-190h122v-77h-122v-155h106v-114h-340v114h100v155h-124v77h124v190h-103l-20 -116l-114 10l20 220h568z" />
    <glyph glyph-name="uni0164" unicode="&#x164;" horiz-adv-x="651" 
d="M480 791l-135 -106h-45l-136 107l28 52l137 -60l122 60zM629 430l-114 -10l-20 116h-103v-422h106v-114h-340v114h100v422h-103l-20 -116l-114 10l20 220h568z" />
    <glyph glyph-name="uni0162" unicode="&#x162;" horiz-adv-x="651" 
d="M629 430l-114 -10l-20 116h-103v-422h106v-114h-340v114h100v422h-103l-20 -116l-114 10l20 220h568zM385 -58l-26 -155h-98l3 155h121z" />
    <glyph glyph-name="uni021A" unicode="&#x21a;" horiz-adv-x="651" 
d="M629 430l-114 -10l-20 116h-103v-422h106v-114h-340v114h100v422h-103l-20 -116l-114 10l20 220h568zM385 -58l-26 -155h-98l3 155h121z" />
    <glyph glyph-name="uni00DA" unicode="&#xda;" horiz-adv-x="719" 
d="M528 716l-215 -28l-16 57l202 88zM692 536h-58v-267q0 -69 -26 -133t-87 -105t-165 -41q-148 0 -209 81.5t-61 186.5v278h-58v114h268v-114h-76v-274q0 -67 32.5 -110.5t110.5 -43.5q77 0 111.5 44t34.5 117v267h-76v114h259v-114z" />
    <glyph glyph-name="uni00DB" unicode="&#xdb;" horiz-adv-x="719" 
d="M517 737l-28 -52l-135 60l-124 -60l-29 53l135 106h45zM692 536h-58v-267q0 -69 -26 -133t-87 -105t-165 -41q-148 0 -209 81.5t-61 186.5v278h-58v114h268v-114h-76v-274q0 -67 32.5 -110.5t110.5 -43.5q77 0 111.5 44t34.5 117v267h-76v114h259v-114z" />
    <glyph glyph-name="uni00D9" unicode="&#xd9;" horiz-adv-x="719" 
d="M476 745l-16 -57l-215 28l29 117zM692 536h-58v-267q0 -69 -26 -133t-87 -105t-165 -41q-148 0 -209 81.5t-61 186.5v278h-58v114h268v-114h-76v-274q0 -67 32.5 -110.5t110.5 -43.5q77 0 111.5 44t34.5 117v267h-76v114h259v-114z" />
    <glyph glyph-name="uni00DC" unicode="&#xdc;" horiz-adv-x="719" 
d="M209 705v134h129v-134h-129zM394 705v134h129v-134h-129zM692 536h-58v-267q0 -69 -26 -133t-87 -105t-165 -41q-148 0 -209 81.5t-61 186.5v278h-58v114h268v-114h-76v-274q0 -67 32.5 -110.5t110.5 -43.5q77 0 111.5 44t34.5 117v267h-76v114h259v-114z" />
    <glyph glyph-name="uni016C" unicode="&#x16c;" horiz-adv-x="719" 
d="M502 833q0 -71 -38 -104.5t-102 -33.5q-139 0 -139 138h102q0 -61 37 -61q21 0 29.5 18.5t8.5 42.5h102zM692 536h-58v-267q0 -69 -26 -133t-87 -105t-165 -41q-148 0 -209 81.5t-61 186.5v278h-58v114h268v-114h-76v-274q0 -67 32.5 -110.5t110.5 -43.5q77 0 111.5 44
t34.5 117v267h-76v114h259v-114z" />
    <glyph glyph-name="uni0170" unicode="&#x170;" horiz-adv-x="719" 
d="M443 821l-170 -134l-43 40l129 179zM597 716l-215 -28l-16 57l202 88zM692 536h-58v-267q0 -69 -26 -133t-87 -105t-165 -41q-148 0 -209 81.5t-61 186.5v278h-58v114h268v-114h-76v-274q0 -67 32.5 -110.5t110.5 -43.5q77 0 111.5 44t34.5 117v267h-76v114h259v-114z
" />
    <glyph glyph-name="uni016A" unicode="&#x16a;" horiz-adv-x="719" 
d="M528 721h-308v98h308v-98zM692 536h-58v-267q0 -69 -26 -133t-87 -105t-165 -41q-148 0 -209 81.5t-61 186.5v278h-58v114h268v-114h-76v-274q0 -67 32.5 -110.5t110.5 -43.5q77 0 111.5 44t34.5 117v267h-76v114h259v-114z" />
    <glyph glyph-name="uni0172" unicode="&#x172;" horiz-adv-x="719" 
d="M692 536h-58v-267q0 -89 -44 -168t-153 -102q-25 -19 -33 -38t-8 -35q0 -26 12.5 -35t30.5 -9q27 0 46 12l9 -82q-17 -8 -39.5 -14t-50.5 -6q-49 0 -83.5 21.5t-34.5 69.5q0 34 16 61t42 46q-142 4 -200 84.5t-58 183.5v278h-58v114h268v-114h-76v-274q0 -67 32.5 -110.5
t110.5 -43.5q77 0 111.5 44t34.5 117v267h-76v114h259v-114z" />
    <glyph glyph-name="uni016E" unicode="&#x16e;" horiz-adv-x="719" 
d="M469 783q0 -41 -25.5 -67.5t-80.5 -26.5q-53 0 -78 25t-25 66q0 42 26 67.5t80 25.5q55 0 79 -25.5t24 -64.5zM389 785q0 10 -3.5 19t-20.5 9q-25 0 -25 -33q0 -31 24 -31q25 0 25 36zM692 536h-58v-267q0 -69 -26 -133t-87 -105t-165 -41q-148 0 -209 81.5t-61 186.5
v278h-58v114h268v-114h-76v-274q0 -67 32.5 -110.5t110.5 -43.5q77 0 111.5 44t34.5 117v267h-76v114h259v-114z" />
    <glyph glyph-name="uni0168" unicode="&#x168;" horiz-adv-x="719" 
d="M522 820q0 -44 -16.5 -82t-68.5 -38q-37 0 -64 15.5t-62 15.5q-33 0 -42 -33l-50 16q-2 28 16.5 69t69.5 41q33 0 61 -15.5t54 -15.5q14 0 27.5 8t20.5 30zM692 536h-58v-267q0 -69 -26 -133t-87 -105t-165 -41q-148 0 -209 81.5t-61 186.5v278h-58v114h268v-114h-76
v-274q0 -67 32.5 -110.5t110.5 -43.5q77 0 111.5 44t34.5 117v267h-76v114h259v-114z" />
    <glyph glyph-name="uni01D3" unicode="&#x1d3;" horiz-adv-x="719" 
d="M523 791l-135 -106h-45l-136 107l28 52l137 -60l122 60zM692 536h-58v-267q0 -69 -26 -133t-87 -105t-165 -41q-148 0 -209 81.5t-61 186.5v278h-58v114h268v-114h-76v-274q0 -67 32.5 -110.5t110.5 -43.5q77 0 111.5 44t34.5 117v267h-76v114h259v-114z" />
    <glyph glyph-name="uni1E82" unicode="&#x1e82;" horiz-adv-x="988" 
d="M638 716l-215 -28l-16 57l202 88zM977 536h-52l-179 -536h-95l-153 420h-5l-146 -420h-97l-190 536h-56v114h259v-114h-60l97 -314h6l116 314h-51v114h259v-114h-46l115 -320h6l86 320h-70v114h256v-114z" />
    <glyph glyph-name="uni0174" unicode="&#x174;" horiz-adv-x="988" 
d="M664 737l-28 -52l-135 60l-124 -60l-29 53l135 106h45zM977 536h-52l-179 -536h-95l-153 420h-5l-146 -420h-97l-190 536h-56v114h259v-114h-60l97 -314h6l116 314h-51v114h259v-114h-46l115 -320h6l86 320h-70v114h256v-114z" />
    <glyph glyph-name="uni1E84" unicode="&#x1e84;" horiz-adv-x="988" 
d="M346 705v134h129v-134h-129zM531 705v134h129v-134h-129zM977 536h-52l-179 -536h-95l-153 420h-5l-146 -420h-97l-190 536h-56v114h259v-114h-60l97 -314h6l116 314h-51v114h259v-114h-46l115 -320h6l86 320h-70v114h256v-114z" />
    <glyph glyph-name="uni1E80" unicode="&#x1e80;" horiz-adv-x="988" 
d="M605 745l-16 -57l-215 28l29 117zM977 536h-52l-179 -536h-95l-153 420h-5l-146 -420h-97l-190 536h-56v114h259v-114h-60l97 -314h6l116 314h-51v114h259v-114h-46l115 -320h6l86 320h-70v114h256v-114z" />
    <glyph glyph-name="uni0178" unicode="&#x178;" horiz-adv-x="646" 
d="M169 705v134h129v-134h-129zM354 705v134h129v-134h-129zM636 536h-56l-189 -282v-140h106v-114h-340v114h100v141l-195 281h-58v114h269v-114h-54l109 -164h6l108 164h-62v114h256v-114z" />
    <glyph glyph-name="uni0176" unicode="&#x176;" horiz-adv-x="646" 
d="M487 737l-28 -52l-135 60l-124 -60l-29 53l135 106h45zM636 536h-56l-189 -282v-140h106v-114h-340v114h100v141l-195 281h-58v114h269v-114h-54l109 -164h6l108 164h-62v114h256v-114z" />
    <glyph glyph-name="uni1EF2" unicode="&#x1ef2;" horiz-adv-x="646" 
d="M398 745l-16 -57l-215 28l29 117zM636 536h-56l-189 -282v-140h106v-114h-340v114h100v141l-195 281h-58v114h269v-114h-54l109 -164h6l108 164h-62v114h256v-114z" />
    <glyph glyph-name="uni00DD" unicode="&#xdd;" horiz-adv-x="646" 
d="M479 716l-215 -28l-16 57l202 88zM636 536h-56l-189 -282v-140h106v-114h-340v114h100v141l-195 281h-58v114h269v-114h-54l109 -164h6l108 164h-62v114h256v-114z" />
    <glyph glyph-name="uni0232" unicode="&#x232;" horiz-adv-x="646" 
d="M482 721h-308v98h308v-98zM636 536h-56l-189 -282v-140h106v-114h-340v114h100v141l-195 281h-58v114h269v-114h-54l109 -164h6l108 164h-62v114h256v-114z" />
    <glyph glyph-name="uni0179" unicode="&#x179;" horiz-adv-x="589" 
d="M462 716l-215 -28l-16 57l202 88zM550 0h-526l-3 69l330 466v1h-176l-20 -101l-114 10l20 205h486l2 -61l-335 -473v-2h222l20 120l114 -10z" />
    <glyph glyph-name="uni017D" unicode="&#x17d;" horiz-adv-x="589" 
d="M458 791l-135 -106h-45l-136 107l28 52l137 -60l122 60zM550 0h-526l-3 69l330 466v1h-176l-20 -101l-114 10l20 205h486l2 -61l-335 -473v-2h222l20 120l114 -10z" />
    <glyph glyph-name="uni017B" unicode="&#x17b;" horiz-adv-x="589" 
d="M246 705v134h129v-134h-129zM550 0h-526l-3 69l330 466v1h-176l-20 -101l-114 10l20 205h486l2 -61l-335 -473v-2h222l20 120l114 -10z" />
    <glyph glyph-name="uni018F" unicode="&#x18f;" horiz-adv-x="688" 
d="M150 437l-103 11l22 173q59 17 112 28t120 11q197 0 280 -96t83 -233q0 -139 -80.5 -240t-247.5 -101q-139 0 -221.5 75t-82.5 206v97h483q-15 96 -74 134t-136 38q-68 0 -140 -24zM518 275h-340v-3q0 -22 8.5 -61.5t43 -71t112.5 -31.5q95 0 132.5 50t43.5 117z" />
    <glyph glyph-name="uni00DE" unicode="&#xde;" horiz-adv-x="604" 
d="M313 0h-274v114h70v422h-70v114h274v-114h-70v-20h104q247 0 247 -181q0 -104 -72 -147.5t-169 -43.5h-110v-30h70v-114zM330 432h-87v-205h85q69 0 95.5 29t26.5 76q0 48 -26.5 74t-93.5 26z" />
    <glyph glyph-name="uni00D0" unicode="&#xd0;" horiz-adv-x="700" 
d="M675 328q0 -148 -87 -238t-241 -90h-306v114h70v173h-67v110h67v139h-70v114h298q167 0 251.5 -89t84.5 -233zM531 326q0 210 -195 210h-91v-139h121v-110h-121v-173h91q94 0 144.5 50t50.5 162z" />
    <glyph glyph-name="uni0132" unicode="&#x132;" horiz-adv-x="838" 
d="M313 0h-274v114h70v422h-70v114h274v-114h-70v-422h70v-114zM809 536h-60v-351q0 -98 -54.5 -146.5t-142.5 -48.5q-83 0 -128.5 37t-66.5 86l94 71q17 -44 40.5 -57t47.5 -13q41 0 58.5 20t17.5 50v352h-114v114h308v-114z" />
    <glyph glyph-name="Iacute_Jacute" horiz-adv-x="838" 
d="M305 716l-215 -28l-16 57l202 88zM792 716l-215 -28l-16 57l202 88zM313 0h-274v114h70v422h-70v114h274v-114h-70v-422h70v-114zM809 536h-60v-351q0 -98 -54.5 -146.5t-142.5 -48.5q-83 0 -128.5 37t-66.5 86l94 71q17 -44 40.5 -57t47.5 -13q41 0 58.5 20t17.5 50v352
h-114v114h308v-114z" />
    <glyph glyph-name="uni0152" unicode="&#x152;" horiz-adv-x="996" 
d="M951 0h-439v29q-31 -18 -68.5 -28.5t-86.5 -10.5q-156 0 -245 99t-89 235q0 142 94 239t240 97q49 0 86 -11t69 -30v31h433l20 -190l-114 -10l-20 86h-185v-153h274v-113h-274v-156h191l20 86l114 -10zM512 165v318q-61 59 -149 59q-95 0 -145 -61t-50 -152
q0 -83 46 -152t153 -69q101 0 145 57z" />
    <glyph glyph-name="uni01C4" unicode="&#x1c4;" horiz-adv-x="1287" 
d="M1156 791l-135 -106h-45l-136 107l28 52l137 -60l122 60zM673 328q0 -148 -87 -238t-241 -90h-306v114h70v422h-70v114h298q167 0 251.5 -89t84.5 -233zM1248 0h-526l-3 69l330 466v1h-176l-20 -101l-114 10l20 205h486l2 -61l-335 -473v-2h222l20 120l114 -10zM529 326
q0 210 -195 210h-91v-422h91q94 0 144.5 50t50.5 162z" />
    <glyph glyph-name="uni01C5" unicode="&#x1c5;" horiz-adv-x="1175" 
d="M1101 633l-135 -126h-45l-136 127l34 49l135 -67l112 68zM673 328q0 -148 -87 -238t-241 -90h-306v114h70v422h-70v114h298q167 0 251.5 -89t84.5 -233zM529 326q0 210 -195 210h-91v-422h91q94 0 144.5 50t50.5 162zM1128 0h-394l-13 68l242 286h-135l-20 -69l-93 8
l16 158h396l10 -68l-249 -286h145l21 71l102 -10z" />
    <glyph glyph-name="uni01C7" unicode="&#x1c7;" horiz-adv-x="1044" 
d="M527 0h-488v114h70v422h-70v114h295v-114h-91v-422h170l20 126l114 -10zM1015 536h-60v-351q0 -98 -54.5 -146.5t-142.5 -48.5q-83 0 -128.5 37t-66.5 86l94 71q17 -44 40.5 -57t47.5 -13q41 0 58.5 20t17.5 50v352h-114v114h308v-114z" />
    <glyph glyph-name="uni01CA" unicode="&#x1ca;" horiz-adv-x="1233" 
d="M733 536h-70v-536l-75 -1l-349 413h-4v-298h90v-114h-285v114h70v422h-81v114h177l328 -386h4v272h-94v114h289v-114zM1204 536h-60v-351q0 -98 -54 -146.5t-143 -48.5q-83 0 -128.5 37t-66.5 86l94 71q17 -44 40.5 -57t47.5 -13q40 0 58 20t18 50v352h-114v114h308v-114
z" />
    <glyph glyph-name="uni01F1" unicode="&#x1f1;" horiz-adv-x="1282" 
d="M673 328q0 -148 -87 -238t-241 -90h-306v114h70v422h-70v114h298q167 0 251.5 -89t84.5 -233zM1243 0h-526l-3 69l330 466v1h-176l-20 -101l-114 10l20 205h486l2 -61l-335 -473v-2h222l20 120l114 -10zM529 326q0 210 -195 210h-91v-422h91q94 0 144.5 50t50.5 162z" />
    <glyph glyph-name="uni01F2" unicode="&#x1f2;" horiz-adv-x="1175" 
d="M673 328q0 -148 -87 -238t-241 -90h-306v114h70v422h-70v114h298q167 0 251.5 -89t84.5 -233zM529 326q0 210 -195 210h-91v-422h91q94 0 144.5 50t50.5 162zM1128 0h-394l-13 68l242 286h-135l-20 -69l-93 8l16 158h396l10 -68l-249 -286h145l21 71l102 -10z" />
    <glyph glyph-name="uni01C8" unicode="&#x1c8;" horiz-adv-x="812" 
d="M629 531v134h129v-134h-129zM527 0h-488v114h70v422h-70v114h295v-114h-91v-422h170l20 126l114 -10zM758 16q0 -128 -47 -189.5t-178 -48.5l-4 85q41 0 70.5 22.5t29.5 130.5v337h-70v98h199v-435z" />
    <glyph glyph-name="uni01CB" unicode="&#x1cb;" horiz-adv-x="1007" 
d="M824 531v134h129v-134h-129zM733 536h-70v-536l-75 -1l-349 413h-4v-298h90v-114h-285v114h70v422h-81v114h177l328 -386h4v272h-94v114h289v-114zM953 16q0 -128 -47 -189.5t-178 -48.5l-4 85q41 0 70.5 22.5t29.5 130.5v337h-70v98h199v-435z" />
    <glyph glyph-name="uni00E1" unicode="&#xe1;" horiz-adv-x="506" 
d="M402 599l-195 -91l-34 49l162 143zM68 419q59 24 98.5 32.5t94.5 8.5q73 0 126 -38t53 -115v-196q0 -35 31 -35q9 0 19 3l1 -68q-39 -21 -81 -21q-89 0 -99 89v1q-19 -34 -54.5 -62t-90.5 -28q-49 0 -94 29t-45 100q0 83 66.5 110t143.5 27q43 0 74 -4v15q0 35 -9.5 68
t-64.5 33q-20 0 -36.5 -2.5t-32.5 -10.5l-17 -64l-103 11zM311 184v6q-16 2 -32.5 4t-32.5 2q-34 0 -60 -12.5t-26 -49.5q0 -22 12 -37t41 -15q34 0 63.5 24.5t34.5 77.5z" />
    <glyph glyph-name="uni00E0" unicode="&#xe0;" horiz-adv-x="506" 
d="M332 557l-34 -49l-195 91l67 101zM68 419q59 24 98.5 32.5t94.5 8.5q73 0 126 -38t53 -115v-196q0 -35 31 -35q9 0 19 3l1 -68q-39 -21 -81 -21q-89 0 -99 89v1q-19 -34 -54.5 -62t-90.5 -28q-49 0 -94 29t-45 100q0 83 66.5 110t143.5 27q43 0 74 -4v15q0 35 -9.5 68
t-64.5 33q-20 0 -36.5 -2.5t-32.5 -10.5l-17 -64l-103 11zM311 184v6q-16 2 -32.5 4t-32.5 2q-34 0 -60 -12.5t-26 -49.5q0 -22 12 -37t41 -15q34 0 63.5 24.5t34.5 77.5z" />
    <glyph glyph-name="uni00E2" unicode="&#xe2;" horiz-adv-x="506" 
d="M413 557l-34 -49l-135 67l-112 -68l-35 51l135 126h45zM68 419q59 24 98.5 32.5t94.5 8.5q73 0 126 -38t53 -115v-196q0 -35 31 -35q9 0 19 3l1 -68q-39 -21 -81 -21q-89 0 -99 89v1q-19 -34 -54.5 -62t-90.5 -28q-49 0 -94 29t-45 100q0 83 66.5 110t143.5 27
q43 0 74 -4v15q0 35 -9.5 68t-64.5 33q-20 0 -36.5 -2.5t-32.5 -10.5l-17 -64l-103 11zM311 184v6q-16 2 -32.5 4t-32.5 2q-34 0 -60 -12.5t-26 -49.5q0 -22 12 -37t41 -15q34 0 63.5 24.5t34.5 77.5z" />
    <glyph glyph-name="uni00E4" unicode="&#xe4;" horiz-adv-x="506" 
d="M283 531v134h129v-134h-129zM98 531v134h129v-134h-129zM68 419q59 24 98.5 32.5t94.5 8.5q73 0 126 -38t53 -115v-196q0 -35 31 -35q9 0 19 3l1 -68q-39 -21 -81 -21q-89 0 -99 89v1q-19 -34 -54.5 -62t-90.5 -28q-49 0 -94 29t-45 100q0 83 66.5 110t143.5 27
q43 0 74 -4v15q0 35 -9.5 68t-64.5 33q-20 0 -36.5 -2.5t-32.5 -10.5l-17 -64l-103 11zM311 184v6q-16 2 -32.5 4t-32.5 2q-34 0 -60 -12.5t-26 -49.5q0 -22 12 -37t41 -15q34 0 63.5 24.5t34.5 77.5z" />
    <glyph glyph-name="uni00E3" unicode="&#xe3;" horiz-adv-x="506" 
d="M407 647q0 -43 -16.5 -86.5t-66.5 -43.5q-38 0 -66.5 20.5t-58.5 20.5q-33 0 -45 -43l-50 16q-2 19 6 48.5t27 52.5t52 23q34 0 62.5 -19t54.5 -19q34 0 47 41zM68 419q59 24 98.5 32.5t94.5 8.5q73 0 126 -38t53 -115v-196q0 -35 31 -35q9 0 19 3l1 -68q-39 -21 -81 -21
q-89 0 -99 89v1q-19 -34 -54.5 -62t-90.5 -28q-49 0 -94 29t-45 100q0 83 66.5 110t143.5 27q43 0 74 -4v15q0 35 -9.5 68t-64.5 33q-20 0 -36.5 -2.5t-32.5 -10.5l-17 -64l-103 11zM311 184v6q-16 2 -32.5 4t-32.5 2q-34 0 -60 -12.5t-26 -49.5q0 -22 12 -37t41 -15
q34 0 63.5 24.5t34.5 77.5z" />
    <glyph glyph-name="uni00E5" unicode="&#xe5;" horiz-adv-x="506" 
d="M360 608q0 -41 -25.5 -67.5t-80.5 -26.5q-52 0 -77.5 25t-25.5 66q0 42 26 67.5t80 25.5q55 0 79 -25.5t24 -64.5zM280 610q0 10 -3.5 19t-20.5 9q-25 0 -25 -33q0 -31 24 -31q25 0 25 36zM68 419q59 24 98.5 32.5t94.5 8.5q73 0 126 -38t53 -115v-196q0 -35 31 -35
q9 0 19 3l1 -68q-39 -21 -81 -21q-89 0 -99 89v1q-19 -34 -54.5 -62t-90.5 -28q-49 0 -94 29t-45 100q0 83 66.5 110t143.5 27q43 0 74 -4v15q0 35 -9.5 68t-64.5 33q-20 0 -36.5 -2.5t-32.5 -10.5l-17 -64l-103 11zM311 184v6q-16 2 -32.5 4t-32.5 2q-34 0 -60 -12.5
t-26 -49.5q0 -22 12 -37t41 -15q34 0 63.5 24.5t34.5 77.5z" />
    <glyph glyph-name="uni0103" unicode="&#x103;" horiz-adv-x="506" 
d="M390 653q0 -71 -39.5 -104.5t-102.5 -33.5q-137 0 -137 138h102q0 -61 37 -61q21 0 29.5 18.5t8.5 42.5h102zM68 419q59 24 98.5 32.5t94.5 8.5q73 0 126 -38t53 -115v-196q0 -35 31 -35q9 0 19 3l1 -68q-39 -21 -81 -21q-89 0 -99 89v1q-19 -34 -54.5 -62t-90.5 -28
q-49 0 -94 29t-45 100q0 83 66.5 110t143.5 27q43 0 74 -4v15q0 35 -9.5 68t-64.5 33q-20 0 -36.5 -2.5t-32.5 -10.5l-17 -64l-103 11zM311 184v6q-16 2 -32.5 4t-32.5 2q-34 0 -60 -12.5t-26 -49.5q0 -22 12 -37t41 -15q34 0 63.5 24.5t34.5 77.5z" />
    <glyph glyph-name="uni0101" unicode="&#x101;" horiz-adv-x="506" 
d="M383 536h-268v98h268v-98zM68 419q59 24 98.5 32.5t94.5 8.5q73 0 126 -38t53 -115v-196q0 -35 31 -35q9 0 19 3l1 -68q-39 -21 -81 -21q-89 0 -99 89v1q-19 -34 -54.5 -62t-90.5 -28q-49 0 -94 29t-45 100q0 83 66.5 110t143.5 27q43 0 74 -4v15q0 35 -9.5 68t-64.5 33
q-20 0 -36.5 -2.5t-32.5 -10.5l-17 -64l-103 11zM311 184v6q-16 2 -32.5 4t-32.5 2q-34 0 -60 -12.5t-26 -49.5q0 -22 12 -37t41 -15q34 0 63.5 24.5t34.5 77.5z" />
    <glyph glyph-name="uni0105" unicode="&#x105;" horiz-adv-x="506" 
d="M498 -188q-17 -8 -39.5 -14t-50.5 -6q-49 0 -83.5 21.5t-34.5 69.5q0 38 20.5 68t51.5 49q-45 19 -51 79v1q-19 -34 -54.5 -62t-90.5 -28q-49 0 -94 29t-45 100q0 83 66.5 110t143.5 27q43 0 74 -4v15q0 35 -9.5 68t-64.5 33q-20 0 -36.5 -2.5t-32.5 -10.5l-17 -64
l-103 11l20 117q59 24 98.5 32.5t94.5 8.5q73 0 126 -38t53 -115v-196q0 -35 31 -35q9 0 19 3l1 -68q-26 -14 -59 -19q-20 -17 -26 -34.5t-6 -31.5q0 -26 12.5 -35t30.5 -9q27 0 46 12zM311 184v6q-16 2 -32.5 4t-32.5 2q-34 0 -60 -12.5t-26 -49.5q0 -22 12 -37t41 -15
q34 0 63.5 24.5t34.5 77.5z" />
    <glyph glyph-name="uni00E6" unicode="&#xe6;" horiz-adv-x="773" 
d="M753 142q-5 -60 -59 -106t-151 -46q-134 0 -194 90q-24 -35 -66.5 -62.5t-105.5 -27.5q-57 0 -106 29t-49 100q0 83 69 110t146 27q19 0 38 -1t36 -3v15q0 35 -9.5 68t-64.5 33q-20 0 -36.5 -2.5t-32.5 -10.5l-17 -64l-103 11l20 117q59 24 98.5 32.5t94.5 8.5
q83 0 134 -46q59 46 142 46q95 0 153 -55t59 -143q0 -32 -7 -63h-291q10 -102 102 -102q52 0 70 22.5t22 42.5zM615 267q7 36 -11.5 66t-66.5 30q-75 0 -85 -96h163zM160 134q0 -22 12 -37t41 -15q34 0 66 25.5t32 79.5v3q-16 2 -32.5 4t-32.5 2q-34 0 -60 -12.5t-26 -49.5z
" />
    <glyph glyph-name="uni01FD" unicode="&#x1fd;" horiz-adv-x="773" 
d="M599 599l-195 -91l-34 49l162 143zM753 142q-5 -60 -59 -106t-151 -46q-134 0 -194 90q-24 -35 -66.5 -62.5t-105.5 -27.5q-57 0 -106 29t-49 100q0 83 69 110t146 27q19 0 38 -1t36 -3v15q0 35 -9.5 68t-64.5 33q-20 0 -36.5 -2.5t-32.5 -10.5l-17 -64l-103 11l20 117
q59 24 98.5 32.5t94.5 8.5q83 0 134 -46q59 46 142 46q95 0 153 -55t59 -143q0 -32 -7 -63h-291q10 -102 102 -102q52 0 70 22.5t22 42.5zM615 267q7 36 -11.5 66t-66.5 30q-75 0 -85 -96h163zM160 134q0 -22 12 -37t41 -15q34 0 66 25.5t32 79.5v3q-16 2 -32.5 4t-32.5 2
q-34 0 -60 -12.5t-26 -49.5z" />
    <glyph glyph-name="uni01E3" unicode="&#x1e3;" horiz-adv-x="773" 
d="M524 536h-268v98h268v-98zM753 142q-5 -60 -59 -106t-151 -46q-134 0 -194 90q-24 -35 -66.5 -62.5t-105.5 -27.5q-57 0 -106 29t-49 100q0 83 69 110t146 27q19 0 38 -1t36 -3v15q0 35 -9.5 68t-64.5 33q-20 0 -36.5 -2.5t-32.5 -10.5l-17 -64l-103 11l20 117
q59 24 98.5 32.5t94.5 8.5q83 0 134 -46q59 46 142 46q95 0 153 -55t59 -143q0 -32 -7 -63h-291q10 -102 102 -102q52 0 70 22.5t22 42.5zM615 267q7 36 -11.5 66t-66.5 30q-75 0 -85 -96h163zM160 134q0 -22 12 -37t41 -15q34 0 66 25.5t32 79.5v3q-16 2 -32.5 4t-32.5 2
q-34 0 -60 -12.5t-26 -49.5z" />
    <glyph glyph-name="uni00E7" unicode="&#xe7;" horiz-adv-x="471" 
d="M385 -122q0 -50 -41 -69t-89 -19q-79 0 -116 30l23 70q11 -8 30.5 -15.5t47.5 -7.5q36 0 36 21q0 10 -7.5 17.5t-31.5 7.5h-37v81q-80 12 -129.5 68t-49.5 156q0 120 69 181t167 61q37 0 79.5 -9.5t83.5 -31.5l20 -137l-103 -11l-15 74q-39 13 -68 13q-41 0 -70 -31.5
t-29 -102.5q0 -132 103 -132q76 0 89 96l108 -20q-6 -56 -43.5 -109.5t-123.5 -65.5v-35h8q50 0 69.5 -25.5t19.5 -54.5z" />
    <glyph glyph-name="uni0107" unicode="&#x107;" horiz-adv-x="471" 
d="M405 599l-195 -91l-34 49l162 143zM455 168q-7 -62 -53.5 -120t-155.5 -58q-98 0 -161.5 57t-63.5 171q0 120 69 181t167 61q37 0 79.5 -9.5t83.5 -31.5l20 -137l-103 -11l-15 74q-39 13 -68 13q-41 0 -70 -31.5t-29 -102.5q0 -132 103 -132q76 0 89 96z" />
    <glyph glyph-name="uni010D" unicode="&#x10d;" horiz-adv-x="471" 
d="M402 633l-135 -126h-45l-136 127l34 49l135 -67l112 68zM455 168q-7 -62 -53.5 -120t-155.5 -58q-98 0 -161.5 57t-63.5 171q0 120 69 181t167 61q37 0 79.5 -9.5t83.5 -31.5l20 -137l-103 -11l-15 74q-39 13 -68 13q-41 0 -70 -31.5t-29 -102.5q0 -132 103 -132
q76 0 89 96z" />
    <glyph glyph-name="uni0109" unicode="&#x109;" horiz-adv-x="471" 
d="M416 557l-34 -49l-135 67l-112 -68l-35 51l135 126h45zM455 168q-7 -62 -53.5 -120t-155.5 -58q-98 0 -161.5 57t-63.5 171q0 120 69 181t167 61q37 0 79.5 -9.5t83.5 -31.5l20 -137l-103 -11l-15 74q-39 13 -68 13q-41 0 -70 -31.5t-29 -102.5q0 -132 103 -132
q76 0 89 96z" />
    <glyph glyph-name="uni010B" unicode="&#x10b;" horiz-adv-x="471" 
d="M192 531v134h129v-134h-129zM455 168q-7 -62 -53.5 -120t-155.5 -58q-98 0 -161.5 57t-63.5 171q0 120 69 181t167 61q37 0 79.5 -9.5t83.5 -31.5l20 -137l-103 -11l-15 74q-39 13 -68 13q-41 0 -70 -31.5t-29 -102.5q0 -132 103 -132q76 0 89 96z" />
    <glyph glyph-name="uni010F" unicode="&#x10f;" horiz-adv-x="580" 
d="M556 0h-189v84q-19 -39 -56 -66.5t-98 -27.5q-89 0 -140 61t-51 166q0 101 50 172t151 71q55 0 90 -22t54 -56v208h-90v98h219v-591h60v-97zM675 681l-36 -224h-98l13 224h121zM367 228v11q0 56 -29.5 87.5t-73.5 31.5q-43 0 -75.5 -32t-32.5 -101q0 -65 30 -99t71 -34
q51 0 80.5 43t29.5 93z" />
    <glyph glyph-name="uni0111" unicode="&#x111;" horiz-adv-x="571" 
d="M556 0h-189v84q-19 -39 -56 -66.5t-98 -27.5q-89 0 -140 61t-51 166q0 101 50 172t151 71q55 0 90 -22t54 -56v105h-176v72h176v31h-90v98h219v-129h63v-72h-63v-390h60v-97zM367 228v11q0 56 -29.5 87.5t-73.5 31.5q-43 0 -75.5 -32t-32.5 -101q0 -65 30 -99t71 -34
q51 0 80.5 43t29.5 93z" />
    <glyph glyph-name="uni00E9" unicode="&#xe9;" horiz-adv-x="483" 
d="M430 599l-195 -91l-34 49l162 143zM463 142q-5 -60 -59 -106t-151 -46q-101 0 -166.5 57t-65.5 170q0 104 59.5 173.5t166.5 69.5q94 0 152.5 -54t59.5 -142q0 -33 -7 -65h-296q11 -107 106 -107q52 0 70.5 25t22.5 45zM326 274q4 34 -14.5 64t-64.5 30q-40 0 -62 -26
t-28 -68h169z" />
    <glyph glyph-name="uni00E8" unicode="&#xe8;" horiz-adv-x="483" 
d="M323 557l-34 -49l-195 91l67 101zM463 142q-5 -60 -59 -106t-151 -46q-101 0 -166.5 57t-65.5 170q0 104 59.5 173.5t166.5 69.5q94 0 152.5 -54t59.5 -142q0 -33 -7 -65h-296q11 -107 106 -107q52 0 70.5 25t22.5 45zM326 274q4 34 -14.5 64t-64.5 30q-40 0 -62 -26
t-28 -68h169z" />
    <glyph glyph-name="uni00EA" unicode="&#xea;" horiz-adv-x="483" 
d="M414 557l-34 -49l-135 67l-112 -68l-35 51l135 126h45zM463 142q-5 -60 -59 -106t-151 -46q-101 0 -166.5 57t-65.5 170q0 104 59.5 173.5t166.5 69.5q94 0 152.5 -54t59.5 -142q0 -33 -7 -65h-296q11 -107 106 -107q52 0 70.5 25t22.5 45zM326 274q4 34 -14.5 64
t-64.5 30q-40 0 -62 -26t-28 -68h169z" />
    <glyph glyph-name="uni00EB" unicode="&#xeb;" horiz-adv-x="483" 
d="M102 531v134h129v-134h-129zM287 531v134h129v-134h-129zM463 142q-5 -60 -59 -106t-151 -46q-101 0 -166.5 57t-65.5 170q0 104 59.5 173.5t166.5 69.5q94 0 152.5 -54t59.5 -142q0 -33 -7 -65h-296q11 -107 106 -107q52 0 70.5 25t22.5 45zM326 274q4 34 -14.5 64
t-64.5 30q-40 0 -62 -26t-28 -68h169z" />
    <glyph glyph-name="uni0115" unicode="&#x115;" horiz-adv-x="483" 
d="M394 653q0 -71 -39.5 -104.5t-102.5 -33.5q-137 0 -137 138h102q0 -61 37 -61q21 0 29.5 18.5t8.5 42.5h102zM463 142q-5 -60 -59 -106t-151 -46q-101 0 -166.5 57t-65.5 170q0 104 59.5 173.5t166.5 69.5q94 0 152.5 -54t59.5 -142q0 -33 -7 -65h-296q11 -107 106 -107
q52 0 70.5 25t22.5 45zM326 274q4 34 -14.5 64t-64.5 30q-40 0 -62 -26t-28 -68h169z" />
    <glyph glyph-name="uni011B" unicode="&#x11b;" horiz-adv-x="483" 
d="M407 633l-135 -126h-45l-136 127l34 49l135 -67l112 68zM463 142q-5 -60 -59 -106t-151 -46q-101 0 -166.5 57t-65.5 170q0 104 59.5 173.5t166.5 69.5q94 0 152.5 -54t59.5 -142q0 -33 -7 -65h-296q11 -107 106 -107q52 0 70.5 25t22.5 45zM326 274q4 34 -14.5 64
t-64.5 30q-40 0 -62 -26t-28 -68h169z" />
    <glyph glyph-name="uni0117" unicode="&#x117;" horiz-adv-x="483" 
d="M190 531v134h129v-134h-129zM463 142q-5 -60 -59 -106t-151 -46q-101 0 -166.5 57t-65.5 170q0 104 59.5 173.5t166.5 69.5q94 0 152.5 -54t59.5 -142q0 -33 -7 -65h-296q11 -107 106 -107q52 0 70.5 25t22.5 45zM326 274q4 34 -14.5 64t-64.5 30q-40 0 -62 -26t-28 -68
h169z" />
    <glyph glyph-name="uni0113" unicode="&#x113;" horiz-adv-x="483" 
d="M390 536h-268v98h268v-98zM463 142q-5 -60 -59 -106t-151 -46q-101 0 -166.5 57t-65.5 170q0 104 59.5 173.5t166.5 69.5q94 0 152.5 -54t59.5 -142q0 -33 -7 -65h-296q11 -107 106 -107q52 0 70.5 25t22.5 45zM326 274q4 34 -14.5 64t-64.5 30q-40 0 -62 -26t-28 -68
h169z" />
    <glyph glyph-name="uni1EBD" unicode="&#x1ebd;" horiz-adv-x="483" 
d="M401 647q0 -43 -16.5 -86.5t-66.5 -43.5q-38 0 -66.5 20.5t-58.5 20.5q-33 0 -45 -43l-50 16q-2 19 6 48.5t27 52.5t52 23q34 0 62.5 -19t54.5 -19q34 0 47 41zM463 142q-5 -60 -59 -106t-151 -46q-101 0 -166.5 57t-65.5 170q0 104 59.5 173.5t166.5 69.5
q94 0 152.5 -54t59.5 -142q0 -33 -7 -65h-296q11 -107 106 -107q52 0 70.5 25t22.5 45zM326 274q4 34 -14.5 64t-64.5 30q-40 0 -62 -26t-28 -68h169z" />
    <glyph glyph-name="uni0119" unicode="&#x119;" horiz-adv-x="483" 
d="M463 142q-4 -48 -39 -87.5t-99 -55.5q-25 -19 -33 -38t-8 -35q0 -26 12.5 -35t30.5 -9q27 0 46 12l9 -82q-17 -8 -39.5 -14t-50.5 -6q-49 0 -83.5 21.5t-34.5 69.5q0 34 17 61.5t42 46.5q-93 5 -152.5 61.5t-59.5 164.5q0 104 59.5 173.5t166.5 69.5q94 0 152.5 -54
t59.5 -142q0 -33 -7 -65h-296q11 -107 106 -107q52 0 70.5 25t22.5 45zM326 274q4 34 -14.5 64t-64.5 30q-40 0 -62 -26t-28 -68h169z" />
    <glyph glyph-name="uni011F" unicode="&#x11f;" horiz-adv-x="569" 
d="M402 653q0 -71 -39.5 -104.5t-102.5 -33.5q-137 0 -137 138h102q0 -61 37 -61q21 0 29.5 18.5t8.5 42.5h102zM555 353h-60v-330q0 -108 -61 -176.5t-188 -68.5q-70 0 -134 28.5t-93 106.5l99 56q48 -89 129 -89q52 0 85.5 37.5t33.5 105.5v59q-18 -34 -53 -58t-95 -24
q-79 0 -138 55t-59 162q0 101 54 172t149 71q53 0 88 -22t54 -57v70h189v-98zM366 228v11q0 56 -28.5 87.5t-72.5 31.5q-43 0 -71.5 -32t-28.5 -101q0 -65 25.5 -94t66.5 -29q53 0 81 38t28 88z" />
    <glyph glyph-name="uni011D" unicode="&#x11d;" horiz-adv-x="569" 
d="M427 557l-34 -49l-135 67l-112 -68l-35 51l135 126h45zM555 353h-60v-330q0 -108 -61 -176.5t-188 -68.5q-70 0 -134 28.5t-93 106.5l99 56q48 -89 129 -89q52 0 85.5 37.5t33.5 105.5v59q-18 -34 -53 -58t-95 -24q-79 0 -138 55t-59 162q0 101 54 172t149 71
q53 0 88 -22t54 -57v70h189v-98zM366 228v11q0 56 -28.5 87.5t-72.5 31.5q-43 0 -71.5 -32t-28.5 -101q0 -65 25.5 -94t66.5 -29q53 0 81 38t28 88z" />
    <glyph glyph-name="uni0123" unicode="&#x123;" horiz-adv-x="569" 
d="M202 538l26 155h98l-3 -155h-121zM555 353h-60v-330q0 -108 -61 -176.5t-188 -68.5q-70 0 -134 28.5t-93 106.5l99 56q48 -89 129 -89q52 0 85.5 37.5t33.5 105.5v59q-18 -34 -53 -58t-95 -24q-79 0 -138 55t-59 162q0 101 54 172t149 71q53 0 88 -22t54 -57v70h189v-98z
M366 228v11q0 56 -28.5 87.5t-72.5 31.5q-43 0 -71.5 -32t-28.5 -101q0 -65 25.5 -94t66.5 -29q53 0 81 38t28 88z" />
    <glyph glyph-name="uni0121" unicode="&#x121;" horiz-adv-x="569" 
d="M209 531v134h129v-134h-129zM555 353h-60v-330q0 -108 -61 -176.5t-188 -68.5q-70 0 -134 28.5t-93 106.5l99 56q48 -89 129 -89q52 0 85.5 37.5t33.5 105.5v59q-18 -34 -53 -58t-95 -24q-79 0 -138 55t-59 162q0 101 54 172t149 71q53 0 88 -22t54 -57v70h189v-98z
M366 228v11q0 56 -28.5 87.5t-72.5 31.5q-43 0 -71.5 -32t-28.5 -101q0 -65 25.5 -94t66.5 -29q53 0 81 38t28 88z" />
    <glyph glyph-name="uni0127" unicode="&#x127;" horiz-adv-x="582" 
d="M568 0h-249v97h60v157q0 58 -20.5 83t-58.5 25q-44 0 -68.5 -27t-26.5 -71v-167h60v-97h-249v97h60v390h-58v72h58v31h-60v98h189v-129h181v-72h-181v-105q45 78 145 78q64 0 111 -38t47 -118v-207h60v-97z" />
    <glyph glyph-name="uni0125" unicode="&#x125;" horiz-adv-x="582" 
d="M277 753l-34 -49l-135 67l-112 -68l-35 51l135 126h45zM568 0h-249v97h60v157q0 58 -20.5 83t-58.5 25q-44 0 -68.5 -27t-26.5 -71v-167h60v-97h-249v97h60v493h-60v98h189v-306q45 78 145 78q64 0 111 -38t47 -118v-207h60v-97z" />
    <glyph glyph-name="uni00ED" unicode="&#xed;" horiz-adv-x="299" 
d="M287 599l-195 -91l-34 49l162 143zM32 98h60v255h-65v98h194v-353h60v-98h-249v98z" />
    <glyph glyph-name="uni00EC" unicode="&#xec;" horiz-adv-x="299" 
d="M207 557l-34 -49l-195 91l67 101zM32 98h60v255h-65v98h194v-353h60v-98h-249v98z" />
    <glyph glyph-name="uni00EE" unicode="&#xee;" horiz-adv-x="299" 
d="M291 557l-34 -49l-135 67l-112 -68l-35 51l135 126h45zM32 98h60v255h-65v98h194v-353h60v-98h-249v98z" />
    <glyph glyph-name="uni00EF" unicode="&#xef;" horiz-adv-x="299" 
d="M174 531v134h129v-134h-129zM-11 531v134h129v-134h-129zM32 98h60v255h-65v98h194v-353h60v-98h-249v98z" />
    <glyph glyph-name="uni012D" unicode="&#x12d;" horiz-adv-x="299" 
d="M287 653q0 -71 -39.5 -104.5t-102.5 -33.5q-137 0 -137 138h102q0 -61 37 -61q21 0 29.5 18.5t8.5 42.5h102zM32 98h60v255h-65v98h194v-353h60v-98h-249v98z" />
    <glyph glyph-name="uni0131" unicode="&#x131;" horiz-adv-x="299" 
d="M32 98h60v255h-65v98h194v-353h60v-98h-249v98z" />
    <glyph glyph-name="uni012B" unicode="&#x12b;" horiz-adv-x="299" 
d="M278 536h-268v98h268v-98zM32 98h60v255h-65v98h194v-353h60v-98h-249v98z" />
    <glyph glyph-name="uni012F" unicode="&#x12f;" horiz-adv-x="299" 
d="M87 531v134h129v-134h-129zM239 -106l9 -82q-17 -8 -39.5 -14t-50.5 -6q-49 0 -83.5 21.5t-34.5 69.5q0 38 21 68t52 49h-81v98h60v255h-65v98h194v-353h60v-98h-88q-27 -19 -35 -38.5t-8 -35.5q0 -26 12.5 -35t30.5 -9q27 0 46 12z" />
    <glyph glyph-name="uni0129" unicode="&#x129;" horiz-adv-x="299" 
d="M299 647q0 -43 -16.5 -86.5t-66.5 -43.5q-38 0 -66.5 20.5t-58.5 20.5q-33 0 -45 -43l-50 16q-2 19 6 48.5t27 52.5t52 23q34 0 62.5 -19t54.5 -19q34 0 47 41zM32 98h60v255h-65v98h194v-353h60v-98h-249v98z" />
    <glyph glyph-name="uni0135" unicode="&#x135;" horiz-adv-x="265" 
d="M289 557l-34 -49l-135 67l-112 -68l-35 51l135 126h45zM12 451h199v-435q0 -128 -47 -189.5t-178 -48.5l-4 85q41 0 70.5 22.5t29.5 130.5v337h-70v98z" />
    <glyph glyph-name="uni0237" unicode="&#x237;" horiz-adv-x="265" 
d="M12 451h199v-435q0 -128 -47 -189.5t-178 -48.5l-4 85q41 0 70.5 22.5t29.5 130.5v337h-70v98z" />
    <glyph glyph-name="uni0137" unicode="&#x137;" horiz-adv-x="553" 
d="M539 0h-231v97h42l-78 89h-67v-89h41v-97h-230v97h60v493h-65v98h194v-411h75l66 76h-54v98h226v-98h-49l-97 -110l128 -146h39v-97zM338 -58l-26 -155h-98l3 155h121z" />
    <glyph glyph-name="uni013A" unicode="&#x13a;" horiz-adv-x="285" 
d="M237 744l-215 -28l-16 57l202 88zM267 0h-249v97h60v493h-65v98h194v-591h60v-97z" />
    <glyph glyph-name="uni013E" unicode="&#x13e;" horiz-adv-x="295" 
d="M267 0h-249v97h60v493h-65v98h194v-591h60v-97zM380 681l-36 -224h-98l13 224h121z" />
    <glyph glyph-name="uni013C" unicode="&#x13c;" horiz-adv-x="285" 
d="M267 0h-249v97h60v493h-65v98h194v-591h60v-97zM206 -58l-26 -155h-98l3 155h121z" />
    <glyph glyph-name="uni0140" unicode="&#x140;" horiz-adv-x="334" 
d="M267 0h-249v97h60v493h-65v98h194v-591h60v-97zM246 271v134h129v-134h-129z" />
    <glyph glyph-name="uni0142" unicode="&#x142;" horiz-adv-x="293" 
d="M8 225v100l75 34v231h-65v98h194v-270l69 32v-100l-69 -32v-221h60v-97h-249v97h60v162z" />
    <glyph glyph-name="uni00F1" unicode="&#xf1;" horiz-adv-x="593" 
d="M451 647q0 -43 -16.5 -86.5t-66.5 -43.5q-38 0 -66.5 20.5t-58.5 20.5q-33 0 -45 -43l-50 16q-2 19 6 48.5t27 52.5t52 23q34 0 62.5 -19t54.5 -19q34 0 47 41zM581 0h-249v97h60v157q0 58 -19.5 83t-57.5 25q-46 0 -71 -28.5t-26 -74.5v-162h60v-97h-249v97h60v256h-65
v98h194v-69q45 78 145 78q64 0 111 -38t47 -118v-207h60v-97z" />
    <glyph glyph-name="uni0144" unicode="&#x144;" horiz-adv-x="593" 
d="M476 599l-195 -91l-34 49l162 143zM581 0h-249v97h60v157q0 58 -19.5 83t-57.5 25q-46 0 -71 -28.5t-26 -74.5v-162h60v-97h-249v97h60v256h-65v98h194v-69q45 78 145 78q64 0 111 -38t47 -118v-207h60v-97z" />
    <glyph glyph-name="uni0149" unicode="&#x149;" horiz-adv-x="593" 
d="M37 539l54 214h115l-55 -214h-114zM581 0h-249v97h60v157q0 58 -19.5 83t-57.5 25q-46 0 -71 -28.5t-26 -74.5v-162h60v-97h-249v97h60v256h-65v98h194v-69q45 78 145 78q64 0 111 -38t47 -118v-207h60v-97z" />
    <glyph glyph-name="uni0148" unicode="&#x148;" horiz-adv-x="593" 
d="M457 633l-135 -126h-45l-136 127l34 49l135 -67l112 68zM581 0h-249v97h60v157q0 58 -19.5 83t-57.5 25q-46 0 -71 -28.5t-26 -74.5v-162h60v-97h-249v97h60v256h-65v98h194v-69q45 78 145 78q64 0 111 -38t47 -118v-207h60v-97z" />
    <glyph glyph-name="uni0146" unicode="&#x146;" horiz-adv-x="593" 
d="M581 0h-249v97h60v157q0 58 -19.5 83t-57.5 25q-46 0 -71 -28.5t-26 -74.5v-162h60v-97h-249v97h60v256h-65v98h194v-69q45 78 145 78q64 0 111 -38t47 -118v-207h60v-97zM365 -58l-26 -155h-98l3 155h121z" />
    <glyph glyph-name="uni1E47" unicode="&#x1e47;" horiz-adv-x="593" 
d="M581 0h-249v97h60v157q0 58 -19.5 83t-57.5 25q-46 0 -71 -28.5t-26 -74.5v-162h60v-97h-249v97h60v256h-65v98h194v-69q45 78 145 78q64 0 111 -38t47 -118v-207h60v-97zM240 -196v134h129v-134h-129z" />
    <glyph glyph-name="uni014B" unicode="&#x14b;" horiz-adv-x="569" 
d="M29 98h60v255h-65v98h194v-69q45 78 145 78q64 0 111 -38t47 -118v-288q0 -128 -47 -189.5t-178 -48.5l-4 85q40 0 69 21t31 121v249q0 58 -19.5 83t-57.5 25q-46 0 -71 -28.5t-26 -74.5v-161h60v-98h-249v98z" />
    <glyph glyph-name="uni00F3" unicode="&#xf3;" horiz-adv-x="522" 
d="M450 599l-195 -91l-34 49l162 143zM503 225q0 -107 -70 -171t-178 -64q-104 0 -169.5 60.5t-65.5 169.5q0 99 60 170t182 71t181.5 -70.5t59.5 -165.5zM370 229q0 69 -32 101t-78 32q-50 0 -78.5 -35.5t-28.5 -99.5q0 -58 26.5 -98t79.5 -40q50 0 80.5 37.5t30.5 102.5z
" />
    <glyph glyph-name="uni00F2" unicode="&#xf2;" horiz-adv-x="522" 
d="M337 557l-34 -49l-195 91l67 101zM503 225q0 -107 -70 -171t-178 -64q-104 0 -169.5 60.5t-65.5 169.5q0 99 60 170t182 71t181.5 -70.5t59.5 -165.5zM370 229q0 69 -32 101t-78 32q-50 0 -78.5 -35.5t-28.5 -99.5q0 -58 26.5 -98t79.5 -40q50 0 80.5 37.5t30.5 102.5z
" />
    <glyph glyph-name="uni00F4" unicode="&#xf4;" horiz-adv-x="522" 
d="M430 557l-34 -49l-135 67l-112 -68l-35 51l135 126h45zM503 225q0 -107 -70 -171t-178 -64q-104 0 -169.5 60.5t-65.5 169.5q0 99 60 170t182 71t181.5 -70.5t59.5 -165.5zM370 229q0 69 -32 101t-78 32q-50 0 -78.5 -35.5t-28.5 -99.5q0 -58 26.5 -98t79.5 -40
q50 0 80.5 37.5t30.5 102.5z" />
    <glyph glyph-name="uni00F6" unicode="&#xf6;" horiz-adv-x="522" 
d="M107 531v134h129v-134h-129zM292 531v134h129v-134h-129zM503 225q0 -107 -70 -171t-178 -64q-104 0 -169.5 60.5t-65.5 169.5q0 99 60 170t182 71t181.5 -70.5t59.5 -165.5zM370 229q0 69 -32 101t-78 32q-50 0 -78.5 -35.5t-28.5 -99.5q0 -58 26.5 -98t79.5 -40
q50 0 80.5 37.5t30.5 102.5z" />
    <glyph glyph-name="uni00F5" unicode="&#xf5;" horiz-adv-x="522" 
d="M416 647q0 -43 -17 -86.5t-66 -43.5q-38 0 -66.5 20.5t-58.5 20.5q-33 0 -45 -43l-50 16q-1 19 6.5 48.5t26.5 52.5t52 23q34 0 63 -19t54 -19q34 0 47 41zM503 225q0 -107 -70 -171t-178 -64q-104 0 -169.5 60.5t-65.5 169.5q0 99 60 170t182 71t181.5 -70.5
t59.5 -165.5zM370 229q0 69 -32 101t-78 32q-50 0 -78.5 -35.5t-28.5 -99.5q0 -58 26.5 -98t79.5 -40q50 0 80.5 37.5t30.5 102.5z" />
    <glyph glyph-name="uni014F" unicode="&#x14f;" horiz-adv-x="522" 
d="M407 653q0 -71 -39.5 -104.5t-102.5 -33.5q-137 0 -137 138h102q0 -61 37 -61q21 0 29.5 18.5t8.5 42.5h102zM503 225q0 -107 -70 -171t-178 -64q-104 0 -169.5 60.5t-65.5 169.5q0 99 60 170t182 71t181.5 -70.5t59.5 -165.5zM370 229q0 69 -32 101t-78 32
q-50 0 -78.5 -35.5t-28.5 -99.5q0 -58 26.5 -98t79.5 -40q50 0 80.5 37.5t30.5 102.5z" />
    <glyph glyph-name="uni0151" unicode="&#x151;" horiz-adv-x="522" 
d="M344 662l-150 -154l-49 34l101 191zM509 599l-195 -91l-34 49l162 143zM503 225q0 -107 -70 -171t-178 -64q-104 0 -169.5 60.5t-65.5 169.5q0 99 60 170t182 71t181.5 -70.5t59.5 -165.5zM370 229q0 69 -32 101t-78 32q-50 0 -78.5 -35.5t-28.5 -99.5q0 -58 26.5 -98
t79.5 -40q50 0 80.5 37.5t30.5 102.5z" />
    <glyph glyph-name="uni014D" unicode="&#x14d;" horiz-adv-x="522" 
d="M394 536h-268v98h268v-98zM503 225q0 -107 -70 -171t-178 -64q-104 0 -169.5 60.5t-65.5 169.5q0 99 60 170t182 71t181.5 -70.5t59.5 -165.5zM370 229q0 69 -32 101t-78 32q-50 0 -78.5 -35.5t-28.5 -99.5q0 -58 26.5 -98t79.5 -40q50 0 80.5 37.5t30.5 102.5z" />
    <glyph glyph-name="uni00F8" unicode="&#xf8;" horiz-adv-x="524" 
d="M504 225q0 -108 -70 -171.5t-178 -63.5q-76 0 -132 32l-19 -22h-85l55 62q-54 60 -54 157q0 99 60.5 170t181.5 71q77 0 134 -33l21 24h86l-57 -64q57 -65 57 -162zM160 227q0 -36 8 -60l150 170q-24 15 -57 15q-101 0 -101 -125zM365 229q0 30 -8 56l-152 -172
q23 -15 55 -15q49 0 77 34.5t28 96.5z" />
    <glyph glyph-name="uni01FF" unicode="&#x1ff;" horiz-adv-x="524" 
d="M460 599l-195 -91l-34 49l162 143zM504 225q0 -108 -70 -171.5t-178 -63.5q-76 0 -132 32l-19 -22h-85l55 62q-54 60 -54 157q0 99 60.5 170t181.5 71q77 0 134 -33l21 24h86l-57 -64q57 -65 57 -162zM160 227q0 -36 8 -60l150 170q-24 15 -57 15q-101 0 -101 -125z
M365 229q0 30 -8 56l-152 -172q23 -15 55 -15q49 0 77 34.5t28 96.5z" />
    <glyph glyph-name="uni0155" unicode="&#x155;" horiz-adv-x="441" 
d="M427 599l-195 -91l-34 49l162 143zM314 457q19 0 42.5 -5.5t46.5 -19.5l20 -158l-98 -11l-17 77q-20 12 -35 12q-22 0 -38.5 -17t-16.5 -50v-188h80v-97h-269v97h60v256h-65v98h184v-86q11 39 35.5 65.5t70.5 26.5z" />
    <glyph glyph-name="uni0159" unicode="&#x159;" horiz-adv-x="441" 
d="M396 633l-135 -126h-45l-136 127l34 49l135 -67l112 68zM314 457q19 0 42.5 -5.5t46.5 -19.5l20 -158l-98 -11l-17 77q-20 12 -35 12q-22 0 -38.5 -17t-16.5 -50v-188h80v-97h-269v97h60v256h-65v98h184v-86q11 39 35.5 65.5t70.5 26.5z" />
    <glyph glyph-name="uni0157" unicode="&#x157;" horiz-adv-x="441" 
d="M314 457q19 0 42.5 -5.5t46.5 -19.5l20 -158l-98 -11l-17 77q-20 12 -35 12q-22 0 -38.5 -17t-16.5 -50v-188h80v-97h-269v97h60v256h-65v98h184v-86q11 39 35.5 65.5t70.5 26.5zM212 -58l-26 -155h-98l3 155h121z" />
    <glyph glyph-name="uni015B" unicode="&#x15b;" horiz-adv-x="459" 
d="M393 599l-195 -91l-34 49l162 143zM435 138q0 -75 -59.5 -111.5t-154.5 -36.5q-49 0 -98.5 10.5t-94.5 33.5l18 126l100 -11v-56q18 -6 38 -7.5t30 -1.5q37 0 64 12t27 36q0 29 -41 38t-95 18t-95 37t-41 95q0 83 64.5 111.5t133.5 28.5q90 0 169 -41l11 -115l-100 -11
l-8 63q-33 11 -71 11q-25 0 -42.5 -10.5t-17.5 -32.5q0 -29 39.5 -38.5t92 -18.5t92 -36.5t39.5 -92.5z" />
    <glyph glyph-name="uni015F" unicode="&#x15f;" horiz-adv-x="459" 
d="M374 -121q0 -50 -41 -69t-89 -19q-79 0 -116 30l23 70q11 -7 30.5 -15t47.5 -8q36 0 36 21q0 11 -7.5 18t-31.5 7h-37v77q-41 3 -82 13t-79 30l18 126l100 -11v-56q18 -6 38 -7.5t30 -1.5q37 0 64 12t27 36q0 29 -41 38t-95 18t-95 37t-41 95q0 83 64.5 111.5t133.5 28.5
q90 0 169 -41l11 -115l-100 -11l-8 63q-33 11 -71 11q-25 0 -42.5 -10.5t-17.5 -32.5q0 -29 39.5 -38.5t92 -18.5t92 -36.5t39.5 -92.5q0 -64 -43.5 -99.5t-114.5 -44.5v-35h8q50 0 69.5 -25.5t19.5 -54.5z" />
    <glyph glyph-name="uni0161" unicode="&#x161;" horiz-adv-x="459" 
d="M386 633l-135 -126h-45l-136 127l34 49l135 -67l112 68zM435 138q0 -75 -59.5 -111.5t-154.5 -36.5q-49 0 -98.5 10.5t-94.5 33.5l18 126l100 -11v-56q18 -6 38 -7.5t30 -1.5q37 0 64 12t27 36q0 29 -41 38t-95 18t-95 37t-41 95q0 83 64.5 111.5t133.5 28.5
q90 0 169 -41l11 -115l-100 -11l-8 63q-33 11 -71 11q-25 0 -42.5 -10.5t-17.5 -32.5q0 -29 39.5 -38.5t92 -18.5t92 -36.5t39.5 -92.5z" />
    <glyph glyph-name="uni015D" unicode="&#x15d;" horiz-adv-x="459" 
d="M397 557l-34 -49l-135 67l-112 -68l-35 51l135 126h45zM435 138q0 -75 -59.5 -111.5t-154.5 -36.5q-49 0 -98.5 10.5t-94.5 33.5l18 126l100 -11v-56q18 -6 38 -7.5t30 -1.5q37 0 64 12t27 36q0 29 -41 38t-95 18t-95 37t-41 95q0 83 64.5 111.5t133.5 28.5q90 0 169 -41
l11 -115l-100 -11l-8 63q-33 11 -71 11q-25 0 -42.5 -10.5t-17.5 -32.5q0 -29 39.5 -38.5t92 -18.5t92 -36.5t39.5 -92.5z" />
    <glyph glyph-name="uni1E63" unicode="&#x1e63;" horiz-adv-x="459" 
d="M435 138q0 -75 -59.5 -111.5t-154.5 -36.5q-49 0 -98.5 10.5t-94.5 33.5l18 126l100 -11v-56q18 -6 38 -7.5t30 -1.5q37 0 64 12t27 36q0 29 -41 38t-95 18t-95 37t-41 95q0 83 64.5 111.5t133.5 28.5q90 0 169 -41l11 -115l-100 -11l-8 63q-33 11 -71 11
q-25 0 -42.5 -10.5t-17.5 -32.5q0 -29 39.5 -38.5t92 -18.5t92 -36.5t39.5 -92.5zM166 -196v134h129v-134h-129z" />
    <glyph glyph-name="uni0219" unicode="&#x219;" horiz-adv-x="459" 
d="M435 138q0 -75 -59.5 -111.5t-154.5 -36.5q-49 0 -98.5 10.5t-94.5 33.5l18 126l100 -11v-56q18 -6 38 -7.5t30 -1.5q37 0 64 12t27 36q0 29 -41 38t-95 18t-95 37t-41 95q0 83 64.5 111.5t133.5 28.5q90 0 169 -41l11 -115l-100 -11l-8 63q-33 11 -71 11
q-25 0 -42.5 -10.5t-17.5 -32.5q0 -29 39.5 -38.5t92 -18.5t92 -36.5t39.5 -92.5zM293 -58l-26 -155h-98l3 155h121z" />
    <glyph glyph-name="uni00DF" unicode="&#xdf;" horiz-adv-x="685" 
d="M681 137q0 -75 -59.5 -111t-162.5 -36q-49 0 -98.5 10.5t-94.5 33.5l18 126l100 -11v-52q18 -6 38 -7.5t30 -1.5q44 0 71.5 10t27.5 33q0 31 -41 40.5t-95 18.5t-95 35.5t-41 90.5q0 55 30 81t69 40.5t69 33.5t30 59q0 72 -118 72q-77 0 -109.5 -30.5t-32.5 -90.5v-481
h-189v98h60v255h-55v98h55v42q0 79 39 123.5t101.5 63t132.5 18.5q135 0 191 -49t56 -111q0 -52 -28.5 -80.5t-66.5 -46t-66.5 -35t-28.5 -47.5q0 -28 26.5 -39.5t66 -17.5t78.5 -17.5t65.5 -38t26.5 -79.5z" />
    <glyph glyph-name="uni0167" unicode="&#x167;" horiz-adv-x="401" 
d="M18 213v87h55v59h-64v92h64v137h129v-137h162v-92h-162v-59h144v-87h-144v-56q0 -59 54 -59q12 0 32.5 10.5t26.5 60.5l94 -29q-10 -78 -53.5 -114t-114.5 -36q-75 0 -121.5 37.5t-46.5 107.5v78h-55z" />
    <glyph glyph-name="uni0165" unicode="&#x165;" horiz-adv-x="398" 
d="M394 761l-36 -224h-98l13 224h121zM406 140q-10 -78 -54 -114t-114 -36q-75 0 -121.5 37.5t-46.5 107.5v224h-64v92h64v137h129v-137h162v-92h-162v-202q0 -59 54 -59q12 0 32.5 10.5t26.5 60.5z" />
    <glyph glyph-name="uni021B" unicode="&#x21b;" horiz-adv-x="398" 
d="M406 140q-10 -78 -54 -114t-114 -36q-75 0 -121.5 37.5t-46.5 107.5v224h-64v92h64v137h129v-137h162v-92h-162v-202q0 -59 54 -59q12 0 32.5 10.5t26.5 60.5zM301 -58l-26 -155h-98l3 155h121z" />
    <glyph glyph-name="uni0163" unicode="&#x163;" horiz-adv-x="398" 
d="M406 140q-10 -78 -54 -114t-114 -36q-75 0 -121.5 37.5t-46.5 107.5v224h-64v92h64v137h129v-137h162v-92h-162v-202q0 -59 54 -59q12 0 32.5 10.5t26.5 60.5zM301 -58l-26 -155h-98l3 155h121z" />
    <glyph glyph-name="uni00FA" unicode="&#xfa;" horiz-adv-x="585" 
d="M449 599l-195 -91l-34 49l162 143zM571 0h-194v69q-45 -78 -145 -78q-64 0 -111 38t-47 118v207h-60v97h189v-254q0 -59 19.5 -83.5t57.5 -24.5q46 0 71.5 30t25.5 77v158h-73v97h202v-354h65v-97z" />
    <glyph glyph-name="uni00F9" unicode="&#xf9;" horiz-adv-x="585" 
d="M328 557l-34 -49l-195 91l67 101zM571 0h-194v69q-45 -78 -145 -78q-64 0 -111 38t-47 118v207h-60v97h189v-254q0 -59 19.5 -83.5t57.5 -24.5q46 0 71.5 30t25.5 77v158h-73v97h202v-354h65v-97z" />
    <glyph glyph-name="uni00FB" unicode="&#xfb;" horiz-adv-x="585" 
d="M437 557l-34 -49l-135 67l-112 -68l-35 51l135 126h45zM571 0h-194v69q-45 -78 -145 -78q-64 0 -111 38t-47 118v207h-60v97h189v-254q0 -59 19.5 -83.5t57.5 -24.5q46 0 71.5 30t25.5 77v158h-73v97h202v-354h65v-97z" />
    <glyph glyph-name="uni00FC" unicode="&#xfc;" horiz-adv-x="585" 
d="M111 531v134h129v-134h-129zM296 531v134h129v-134h-129zM571 0h-194v69q-45 -78 -145 -78q-64 0 -111 38t-47 118v207h-60v97h189v-254q0 -59 19.5 -83.5t57.5 -24.5q46 0 71.5 30t25.5 77v158h-73v97h202v-354h65v-97z" />
    <glyph glyph-name="uni016D" unicode="&#x16d;" horiz-adv-x="585" 
d="M410 653q0 -71 -39.5 -104.5t-102.5 -33.5q-137 0 -137 138h102q0 -61 37 -61q21 0 29.5 18.5t8.5 42.5h102zM571 0h-194v69q-45 -78 -145 -78q-64 0 -111 38t-47 118v207h-60v97h189v-254q0 -59 19.5 -83.5t57.5 -24.5q46 0 71.5 30t25.5 77v158h-73v97h202v-354h65v-97
z" />
    <glyph glyph-name="uni0171" unicode="&#x171;" horiz-adv-x="585" 
d="M348 662l-150 -154l-49 34l101 191zM513 599l-195 -91l-34 49l162 143zM571 0h-194v69q-45 -78 -145 -78q-64 0 -111 38t-47 118v207h-60v97h189v-254q0 -59 19.5 -83.5t57.5 -24.5q46 0 71.5 30t25.5 77v158h-73v97h202v-354h65v-97z" />
    <glyph glyph-name="uni016B" unicode="&#x16b;" horiz-adv-x="585" 
d="M412 536h-268v98h268v-98zM571 0h-194v69q-45 -78 -145 -78q-64 0 -111 38t-47 118v207h-60v97h189v-254q0 -59 19.5 -83.5t57.5 -24.5q46 0 71.5 30t25.5 77v158h-73v97h202v-354h65v-97z" />
    <glyph glyph-name="uni0173" unicode="&#x173;" horiz-adv-x="585" 
d="M571 0h-63q-27 -19 -35 -38.5t-8 -35.5q0 -26 12.5 -35t30.5 -9q26 0 46 12l9 -82q-17 -8 -39 -14t-51 -6q-49 0 -83.5 21.5t-34.5 69.5q0 38 21 68t52 49h-51v69q-45 -78 -145 -78q-64 0 -111 38t-47 118v207h-60v97h189v-254q0 -59 19.5 -83.5t57.5 -24.5q46 0 71.5 30
t25.5 77v158h-73v97h202v-354h65v-97z" />
    <glyph glyph-name="uni016F" unicode="&#x16f;" horiz-adv-x="585" 
d="M381 608q0 -41 -25.5 -67.5t-80.5 -26.5q-53 0 -78 25t-25 66q0 42 26 67.5t80 25.5q55 0 79 -25.5t24 -64.5zM301 610q0 10 -3.5 19t-20.5 9q-25 0 -25 -33q0 -31 24 -31q25 0 25 36zM571 0h-194v69q-45 -78 -145 -78q-64 0 -111 38t-47 118v207h-60v97h189v-254
q0 -59 19.5 -83.5t57.5 -24.5q46 0 71.5 30t25.5 77v158h-73v97h202v-354h65v-97z" />
    <glyph glyph-name="utilde" unicode="&#x169;" horiz-adv-x="585" 
d="M433 647q0 -43 -16.5 -86.5t-66.5 -43.5q-38 0 -66.5 20.5t-58.5 20.5q-33 0 -45 -43l-50 16q-2 19 6 48.5t27 52.5t52 23q34 0 62.5 -19t54.5 -19q34 0 47 41zM571 0h-194v69q-45 -78 -145 -78q-64 0 -111 38t-47 118v207h-60v97h189v-254q0 -59 19.5 -83.5t57.5 -24.5
q46 0 71.5 30t25.5 77v158h-73v97h202v-354h65v-97z" />
    <glyph glyph-name="uni01D4" unicode="&#x1d4;" horiz-adv-x="585" 
d="M436 634l-135 -126h-45l-136 127l34 49l135 -67l112 68zM571 0h-194v69q-45 -78 -145 -78q-64 0 -111 38t-47 118v207h-60v97h189v-254q0 -59 19.5 -83.5t57.5 -24.5q46 0 71.5 30t25.5 77v158h-73v97h202v-354h65v-97z" />
    <glyph glyph-name="wacute" unicode="&#x1e83;" horiz-adv-x="761" 
d="M572 599l-195 -91l-34 49l162 143zM752 354h-41l-122 -354h-96l-117 270h-6l-106 -270h-91l-125 354h-41v97h240v-97h-62l55 -176h6l106 273h77l123 -269h6l37 172h-59v97h216v-97z" />
    <glyph glyph-name="wcircumflex" unicode="&#x175;" horiz-adv-x="761" 
d="M551 557l-34 -49l-135 67l-112 -68l-35 51l135 126h45zM752 354h-41l-122 -354h-96l-117 270h-6l-106 -270h-91l-125 354h-41v97h240v-97h-62l55 -176h6l106 273h77l123 -269h6l37 172h-59v97h216v-97z" />
    <glyph glyph-name="wdieresis" unicode="&#x1e85;" horiz-adv-x="761" 
d="M238 531v134h129v-134h-129zM423 531v134h129v-134h-129zM752 354h-41l-122 -354h-96l-117 270h-6l-106 -270h-91l-125 354h-41v97h240v-97h-62l55 -176h6l106 273h77l123 -269h6l37 172h-59v97h216v-97z" />
    <glyph glyph-name="wgrave" unicode="&#x1e81;" horiz-adv-x="761" 
d="M450 557l-34 -49l-195 91l67 101zM752 354h-41l-122 -354h-96l-117 270h-6l-106 -270h-91l-125 354h-41v97h240v-97h-62l55 -176h6l106 273h77l123 -269h6l37 172h-59v97h216v-97z" />
    <glyph glyph-name="ydieresis" unicode="&#xff;" horiz-adv-x="529" 
d="M127 531v134h129v-134h-129zM312 531v134h129v-134h-129zM523 354h-44l-145 -354l-43 -113h59v-100h-249v100h72l36 106l-158 361h-46v97h230v-97h-45l92 -208h6l68 208h-39v97h206v-97z" />
    <glyph glyph-name="ycircumflex" unicode="&#x177;" horiz-adv-x="529" 
d="M438 557l-34 -49l-135 67l-112 -68l-35 51l135 126h45zM523 354h-44l-145 -354l-43 -113h59v-100h-249v100h72l36 106l-158 361h-46v97h230v-97h-45l92 -208h6l68 208h-39v97h206v-97z" />
    <glyph glyph-name="uni0233" unicode="&#x233;" horiz-adv-x="529" 
d="M410 536h-268v98h268v-98zM523 354h-44l-145 -354l-43 -113h59v-100h-249v100h72l36 106l-158 361h-46v97h230v-97h-45l92 -208h6l68 208h-39v97h206v-97z" />
    <glyph glyph-name="ygrave" unicode="&#x1ef3;" horiz-adv-x="529" 
d="M354 557l-34 -49l-195 91l67 101zM523 354h-44l-145 -354l-43 -113h59v-100h-249v100h72l36 106l-158 361h-46v97h230v-97h-45l92 -208h6l68 208h-39v97h206v-97z" />
    <glyph glyph-name="yacute" unicode="&#xfd;" horiz-adv-x="529" 
d="M436 599l-195 -91l-34 49l162 143zM523 354h-44l-145 -354l-43 -113h59v-100h-249v100h72l36 106l-158 361h-46v97h230v-97h-45l92 -208h6l68 208h-39v97h206v-97z" />
    <glyph glyph-name="zacute" unicode="&#x17a;" horiz-adv-x="477" 
d="M394 599l-195 -91l-34 49l162 143zM430 0h-394l-13 68l242 286h-135l-20 -69l-93 8l16 158h396l10 -68l-249 -286h145l21 71l102 -10z" />
    <glyph glyph-name="zcaron" unicode="&#x17e;" horiz-adv-x="477" 
d="M403 633l-135 -126h-45l-136 127l34 49l135 -67l112 68zM430 0h-394l-13 68l242 286h-135l-20 -69l-93 8l16 158h396l10 -68l-249 -286h145l21 71l102 -10z" />
    <glyph glyph-name="zdotaccent" unicode="&#x17c;" horiz-adv-x="477" 
d="M173 531v134h129v-134h-129zM430 0h-394l-13 68l242 286h-135l-20 -69l-93 8l16 158h396l10 -68l-249 -286h145l21 71l102 -10z" />
    <glyph glyph-name="thorn" unicode="&#xfe;" horiz-adv-x="545" 
d="M-11 -115h60v705h-65v98h194v-323q18 39 54 67t98 28q86 0 139.5 -59t53.5 -165q0 -100 -52.5 -173t-154.5 -73q-95 0 -138 67v-172h80v-98h-269v98zM281 97q43 0 73 29.5t30 98.5q0 65 -27.5 96.5t-68.5 31.5q-50 0 -79 -38.5t-31 -87.5v-16q0 -56 29.5 -85t73.5 -29z
" />
    <glyph glyph-name="uni0259" unicode="&#x259;" horiz-adv-x="482" 
d="M20 308q4 60 58 106t152 46q100 0 166 -57t66 -170q0 -104 -59.5 -173.5t-166.5 -69.5q-94 0 -152 54t-60 142q0 33 7 65h296q-11 107 -106 107q-52 0 -70.5 -25t-22.5 -45zM157 176q-5 -34 14 -64t65 -30q40 0 62 26t28 68h-169z" />
    <glyph glyph-name="eth" unicode="&#xf0;" horiz-adv-x="528" 
d="M116 510l43 64l-57 30l55 94q35 -17 65 -33l36 53l69 -40l-37 -55q88 -62 150.5 -154t62.5 -218v-26q0 -108 -70 -171.5t-178 -63.5q-104 0 -169.5 60.5t-65.5 167.5q0 110 66 176t162 66q33 0 65 -10q-31 44 -86 82l-43 -64zM261 352q-102 0 -102 -125q0 -57 24.5 -93
t76.5 -36q48 0 76 32.5t28 89.5v37q0 47 -30 71t-73 24z" />
    <glyph glyph-name="ij" unicode="&#x133;" horiz-adv-x="564" 
d="M87 531v134h129v-134h-129zM381 531v134h129v-134h-129zM281 0h-249v97h60v256h-65v98h194v-354h60v-97zM510 16q0 -128 -47 -189.5t-178 -48.5l-4 85q41 0 70.5 22.5t29.5 130.5v337h-70v98h199v-435z" />
    <glyph glyph-name="iacute_jacute" horiz-adv-x="564" 
d="M287 599l-195 -91l-34 49l162 143zM584 599l-195 -91l-34 49l162 143zM311 451h199v-435q0 -128 -47 -189.5t-178 -48.5l-4 85q41 0 70.5 22.5t29.5 130.5v337h-70v98zM32 98h60v255h-65v98h194v-353h60v-98h-249v98z" />
    <glyph glyph-name="oe" unicode="&#x153;" horiz-adv-x="826" 
d="M806 142q-4 -60 -58 -106t-152 -46q-107 0 -169 59q-67 -59 -172 -59q-104 0 -169.5 60.5t-65.5 169.5q0 99 60 170t182 71q56 0 99 -16t72 -44q61 59 157 59q94 0 152 -54t60 -142q0 -33 -7 -65h-293l-2 -12q15 -95 105 -95q52 0 70.5 25t22.5 45zM669 274q5 34 -14 64
t-65 30q-40 0 -62 -26t-28 -68h169zM364 217q0 25 3 47q-8 50 -38 74t-69 24q-50 0 -78.5 -35.5t-28.5 -99.5q0 -58 26.5 -98t79.5 -40q85 0 106 95q-1 11 -1 33z" />
    <glyph glyph-name="uni0069.locl" horiz-adv-x="299" 
d="M87 531v134h129v-134h-129zM281 0h-249v97h60v256h-65v98h194v-354h60v-97z" />
    <glyph glyph-name="FL989" horiz-adv-x="687" 
d="M459 727l-43 -40l-170 134l84 85zM323 745l-16 -57l-215 28l29 117zM687 0h-259v114h52l-24 66h-221l-27 -66h61v-114h-256v114h59l186 422h-90v114h223l234 -536h62v-114zM420 276l-68 183h-6l-73 -183h147z" />
    <glyph glyph-name="FL990" horiz-adv-x="506" 
d="M373 542l-49 -34l-150 154l98 71zM238 557l-34 -49l-195 91l67 101zM68 419q59 24 98.5 32.5t94.5 8.5q73 0 126 -38t53 -115v-196q0 -35 31 -35q9 0 19 3l1 -68q-39 -21 -81 -21q-89 0 -99 89v1q-19 -34 -54.5 -62t-90.5 -28q-49 0 -94 29t-45 100q0 83 66.5 110
t143.5 27q43 0 74 -4v15q0 35 -9.5 68t-64.5 33q-20 0 -36.5 -2.5t-32.5 -10.5l-17 -64l-103 11zM311 184v6q-16 2 -32.5 4t-32.5 2q-34 0 -60 -12.5t-26 -49.5q0 -22 12 -37t41 -15q34 0 63.5 24.5t34.5 77.5z" />
    <glyph glyph-name="FL991" horiz-adv-x="687" 
d="M479 695h-102q0 61 -37 61q-21 0 -29.5 -18.5t-8.5 -42.5h-102q0 71 38 104.5t102 33.5q139 0 139 -138zM687 0h-259v114h52l-24 66h-221l-27 -66h61v-114h-256v114h59l186 422h-90v114h223l234 -536h62v-114zM420 276l-68 183h-6l-73 -183h147z" />
    <glyph glyph-name="FL992" horiz-adv-x="506" 
d="M394 515h-102q0 61 -37 61q-21 0 -29.5 -18.5t-8.5 -42.5h-102q0 71 39.5 104.5t102.5 33.5q137 0 137 -138zM68 419q59 24 98.5 32.5t94.5 8.5q73 0 126 -38t53 -115v-196q0 -35 31 -35q9 0 19 3l1 -68q-39 -21 -81 -21q-89 0 -99 89v1q-19 -34 -54.5 -62t-90.5 -28
q-49 0 -94 29t-45 100q0 83 66.5 110t143.5 27q43 0 74 -4v15q0 35 -9.5 68t-64.5 33q-20 0 -36.5 -2.5t-32.5 -10.5l-17 -64l-103 11zM311 184v6q-16 2 -32.5 4t-32.5 2q-34 0 -60 -12.5t-26 -49.5q0 -22 12 -37t41 -15q34 0 63.5 24.5t34.5 77.5z" />
    <glyph glyph-name="FL993" horiz-adv-x="592" 
d="M465 727l-43 -40l-170 134l84 85zM329 745l-16 -57l-215 28l29 117zM541 0h-502v114h70v422h-70v114h496l20 -190l-114 -10l-20 86h-178v-153h274v-113h-274v-156h184l20 86l114 -10z" />
    <glyph glyph-name="FL994" horiz-adv-x="483" 
d="M378 542l-49 -34l-150 154l98 71zM243 557l-34 -49l-195 91l67 101zM463 142q-5 -60 -59 -106t-151 -46q-101 0 -166.5 57t-65.5 170q0 104 59.5 173.5t166.5 69.5q94 0 152.5 -54t59.5 -142q0 -33 -7 -65h-296q11 -107 106 -107q52 0 70.5 25t22.5 45zM326 274
q4 34 -14.5 64t-64.5 30q-40 0 -62 -26t-28 -68h169z" />
    <glyph glyph-name="FL995" horiz-adv-x="592" 
d="M476 695h-102q0 61 -37 61q-21 0 -29.5 -18.5t-8.5 -42.5h-102q0 71 38 104.5t102 33.5q139 0 139 -138zM541 0h-502v114h70v422h-70v114h496l20 -190l-114 -10l-20 86h-178v-153h274v-113h-274v-156h184l20 86l114 -10z" />
    <glyph glyph-name="FL996" horiz-adv-x="483" 
d="M377 515h-102q0 61 -37 61q-21 0 -29.5 -18.5t-8.5 -42.5h-102q0 71 39.5 104.5t102.5 33.5q137 0 137 -138zM463 142q-5 -60 -59 -106t-151 -46q-101 0 -166.5 57t-65.5 170q0 104 59.5 173.5t166.5 69.5q94 0 152.5 -54t59.5 -142q0 -33 -7 -65h-296q11 -107 106 -107
q52 0 70.5 25t22.5 45zM326 274q4 34 -14.5 64t-64.5 30q-40 0 -62 -26t-28 -68h169z" />
    <glyph glyph-name="FL997" horiz-adv-x="352" 
d="M324 727l-43 -40l-170 134l84 85zM188 745l-16 -57l-215 28l29 117zM313 0h-274v114h70v422h-70v114h274v-114h-70v-422h70v-114z" />
    <glyph glyph-name="FL998" horiz-adv-x="299" 
d="M273 542l-49 -34l-150 154l98 71zM138 557l-34 -49l-195 91l67 101zM32 98h60v255h-65v98h194v-353h60v-98h-249v98z" />
    <glyph glyph-name="FL999" horiz-adv-x="352" 
d="M324 695h-102q0 61 -37 61q-21 0 -29.5 -18.5t-8.5 -42.5h-102q0 71 38 104.5t102 33.5q139 0 139 -138zM313 0h-274v114h70v422h-70v114h274v-114h-70v-422h70v-114z" />
    <glyph glyph-name="FL1000" horiz-adv-x="299" 
d="M276 515h-102q0 61 -37 61q-21 0 -29.5 -18.5t-8.5 -42.5h-102q0 71 39.5 104.5t102.5 33.5q137 0 137 -138zM32 98h60v255h-65v98h194v-353h60v-98h-249v98z" />
    <glyph glyph-name="FL1001" horiz-adv-x="712" 
d="M496 727l-43 -40l-170 134l84 85zM360 745l-16 -57l-215 28l29 117zM688 326q0 -138 -88.5 -237t-246.5 -99q-159 0 -244 99t-85 235q0 142 90 239t243 97q156 0 243.5 -98.5t87.5 -235.5zM543 322q0 104 -48 162t-139 58q-97 0 -142 -61.5t-45 -153.5q0 -89 44 -154
t147 -65q95 0 139 59.5t44 154.5z" />
    <glyph glyph-name="FL1002" horiz-adv-x="523" 
d="M378 542l-49 -34l-150 154l98 71zM243 557l-34 -49l-195 91l67 101zM503 225q0 -107 -70 -171t-178 -64q-104 0 -169.5 60.5t-65.5 169.5q0 99 60 170t182 71t181.5 -70.5t59.5 -165.5zM370 229q0 69 -32 101t-78 32q-50 0 -78.5 -35.5t-28.5 -99.5q0 -58 26.5 -98
t79.5 -40q50 0 80.5 37.5t30.5 102.5z" />
    <glyph glyph-name="FL1003" horiz-adv-x="712" 
d="M500 695h-102q0 61 -37 61q-21 0 -29.5 -18.5t-8.5 -42.5h-102q0 71 38 104.5t102 33.5q139 0 139 -138zM688 326q0 -138 -88.5 -237t-246.5 -99q-159 0 -244 99t-85 235q0 142 90 239t243 97q156 0 243.5 -98.5t87.5 -235.5zM543 322q0 104 -48 162t-139 58
q-97 0 -142 -61.5t-45 -153.5q0 -89 44 -154t147 -65q95 0 139 59.5t44 154.5z" />
    <glyph glyph-name="FL1004" horiz-adv-x="523" 
d="M397 515h-102q0 61 -37 61q-21 0 -29.5 -18.5t-8.5 -42.5h-102q0 71 39.5 104.5t102.5 33.5q137 0 137 -138zM503 225q0 -107 -70 -171t-178 -64q-104 0 -169.5 60.5t-65.5 169.5q0 99 60 170t182 71t181.5 -70.5t59.5 -165.5zM370 229q0 69 -32 101t-78 32
q-50 0 -78.5 -35.5t-28.5 -99.5q0 -58 26.5 -98t79.5 -40q50 0 80.5 37.5t30.5 102.5z" />
    <glyph glyph-name="FL1009" horiz-adv-x="719" 
d="M521 727l-43 -40l-170 134l84 85zM385 745l-16 -57l-215 28l29 117zM692 536h-58v-267q0 -69 -26 -133t-87 -105t-165 -41q-148 0 -209 81.5t-61 186.5v278h-58v114h268v-114h-76v-274q0 -67 32.5 -110.5t110.5 -43.5q77 0 111.5 44t34.5 117v267h-76v114h259v-114z" />
    <glyph glyph-name="FL1010" horiz-adv-x="585" 
d="M402 542l-49 -34l-150 154l98 71zM267 557l-34 -49l-195 91l67 101zM571 0h-194v69q-45 -78 -145 -78q-64 0 -111 38t-47 118v207h-60v97h189v-254q0 -59 19.5 -83.5t57.5 -24.5q46 0 71.5 30t25.5 77v158h-73v97h202v-354h65v-97z" />
    <glyph glyph-name="FL1011" horiz-adv-x="719" 
d="M501 695h-102q0 61 -37 61q-21 0 -29.5 -18.5t-8.5 -42.5h-102q0 71 38 104.5t102 33.5q139 0 139 -138zM692 536h-58v-267q0 -69 -26 -133t-87 -105t-165 -41q-148 0 -209 81.5t-61 186.5v278h-58v114h268v-114h-76v-274q0 -67 32.5 -110.5t110.5 -43.5q77 0 111.5 44
t34.5 117v267h-76v114h259v-114z" />
    <glyph glyph-name="FL1012" horiz-adv-x="585" 
d="M411 515h-102q0 61 -37 61q-21 0 -29.5 -18.5t-8.5 -42.5h-102q0 71 39.5 104.5t102.5 33.5q137 0 137 -138zM571 0h-194v69q-45 -78 -145 -78q-64 0 -111 38t-47 118v207h-60v97h189v-254q0 -59 19.5 -83.5t57.5 -24.5q46 0 71.5 30t25.5 77v158h-73v97h202v-354h65v-97
z" />
    <glyph glyph-name="uni01C6" unicode="&#x1c6;" horiz-adv-x="1047" 
d="M556 0h-189v84q-19 -39 -56 -66.5t-98 -27.5q-89 0 -140 61t-51 166q0 101 50 172t151 71q55 0 90 -22t54 -56v208h-90v98h219v-591h60v-97zM973 633l-135 -126h-45l-136 127l34 49l135 -67l112 68zM1000 0h-394l-13 68l242 286h-135l-20 -69l-93 8l16 158h396l10 -68
l-249 -286h145l21 71l102 -10zM367 228v11q0 56 -29.5 87.5t-73.5 31.5q-43 0 -75.5 -32t-32.5 -101q0 -65 30 -99t71 -34q51 0 80.5 43t29.5 93z" />
    <glyph glyph-name="uni01C9" unicode="&#x1c9;" horiz-adv-x="550" 
d="M267 0h-249v97h60v493h-65v98h194v-591h60v-97zM367 531v134h129v-134h-129zM496 16q0 -128 -47 -189.5t-178 -48.5l-4 85q41 0 70.5 22.5t29.5 130.5v337h-70v98h199v-435z" />
    <glyph glyph-name="uni01CC" unicode="&#x1cc;" horiz-adv-x="854" 
d="M671 531v134h129v-134h-129zM581 0h-249v97h60v157q0 58 -19.5 83t-57.5 25q-46 0 -71 -28.5t-26 -74.5v-162h60v-97h-249v97h60v256h-65v98h194v-69q45 78 145 78q64 0 111 -38t47 -118v-207h60v-97zM800 16q0 -128 -47 -189.5t-178 -48.5l-4 85q41 0 70.5 22.5
t29.5 130.5v337h-70v98h199v-435z" />
    <glyph glyph-name="uni01F3" unicode="&#x1f3;" horiz-adv-x="1047" 
d="M556 0h-189v84q-19 -39 -56 -66.5t-98 -27.5q-89 0 -140 61t-51 166q0 101 50 172t151 71q55 0 90 -22t54 -56v208h-90v98h219v-591h60v-97zM1000 0h-394l-13 68l242 286h-135l-20 -69l-93 8l16 158h396l10 -68l-249 -286h145l21 71l102 -10zM367 228v11q0 56 -29.5 87.5
t-73.5 31.5q-43 0 -75.5 -32t-32.5 -101q0 -65 30 -99t71 -34q51 0 80.5 43t29.5 93z" />
    <glyph glyph-name="comma" unicode="," horiz-adv-x="222" 
d="M3 -85l60 234h126l-60 -234h-126z" />
    <glyph glyph-name="period" unicode="." horiz-adv-x="228" 
d="M37 0v163h153v-163h-153z" />
    <glyph glyph-name="ellipsis" unicode="&#x2026;" horiz-adv-x="660" 
d="M37 0v163h153v-163h-153zM253 0v163h153v-163h-153zM469 0v163h153v-163h-153z" />
    <glyph glyph-name="colon" unicode=":" horiz-adv-x="248" 
d="M59 289v162h134v-162h-134zM59 0v162h134v-162h-134z" />
    <glyph glyph-name="semicolon" unicode=";" horiz-adv-x="249" 
d="M61 289v162h134v-162h-134zM192 149l-60 -234h-126l60 234h126z" />
    <glyph glyph-name="question" unicode="?" horiz-adv-x="481" 
d="M136 456l-103 11l21 153q58 24 109.5 31.5t87.5 7.5q89 0 147 -39t58 -107q0 -51 -29 -81t-67.5 -48t-67.5 -33.5t-29 -38.5q0 -28 41 -28v-79q-181 -23 -181 91q0 48 28 72.5t65 39.5t65 32t28 51q0 51 -76 51q-18 0 -42 -3.5t-40 -11.5zM151 0v145h151v-145h-151z" />
    <glyph glyph-name="questiondown" unicode="&#xbf;" horiz-adv-x="474" 
d="M327 454v-145h-151v145h151zM342 -2l103 -11l-21 -153q-58 -24 -109.5 -31.5t-87.5 -7.5q-89 0 -147 39t-58 107q0 51 29 81t67.5 48t67.5 33.5t29 38.5q0 28 -41 28v79q181 23 181 -91q0 -48 -28 -72.5t-65 -39.5t-65 -32t-28 -51q0 -51 76 -51q18 0 42 3.5t40 11.5z
" />
    <glyph glyph-name="questiondown.lnum" horiz-adv-x="481" 
d="M330 654v-145h-151v145h151zM345 198l103 -11l-21 -153q-58 -24 -109.5 -31.5t-87.5 -7.5q-89 0 -147 39t-58 107q0 51 29 81t67.5 48t67.5 33.5t29 38.5q0 28 -41 28v79q181 23 181 -91q0 -48 -28 -72.5t-65 -39.5t-65 -32t-28 -51q0 -51 76 -51q18 0 42 3.5t40 11.5z
" />
    <glyph glyph-name="question.aalt" horiz-adv-x="417" 
d="M119 361l-91 7l18 128q48 20 92.5 26.5t74.5 6.5q80 0 131 -32t51 -88q0 -41 -24 -63.5t-55.5 -36t-55.5 -25t-24 -28.5q0 -21 31 -21v-68q-166 -20 -166 75q0 39 23 58t53 29.5t53 22.5t23 38q0 21 -17 29.5t-42 8.5q-36 0 -62 -13zM128 0v124h136v-124h-136z" />
    <glyph glyph-name="questiondown.c2sc" horiz-adv-x="418" 
d="M289 524v-124h-136v124h136zM298 163l91 -7l-18 -128q-48 -20 -92.5 -26.5t-74.5 -6.5q-80 0 -131 32t-51 88q0 41 24 63.5t55.5 36t55.5 25t24 28.5q0 21 -31 21v68q166 20 166 -75q0 -39 -23 -58t-53 -29.5t-53 -22.5t-23 -38q0 -21 17 -29.5t42 -8.5q36 0 62 13z" />
    <glyph glyph-name="exclam" unicode="!" horiz-adv-x="261" 
d="M207 650l-30 -418h-94l-30 418h154zM56 0v145h151v-145h-151z" />
    <glyph glyph-name="exclamdown" unicode="&#xa1;" horiz-adv-x="247" 
d="M47 309v145h151v-145h-151zM201 -196h-154l30 418h94z" />
    <glyph glyph-name="exclamdown.lnum" horiz-adv-x="262" 
d="M54 509v145h151v-145h-151zM208 4h-154l30 418h94z" />
    <glyph glyph-name="exclam.aalt" horiz-adv-x="251" 
d="M199 521l-29 -330h-90l-29 330h148zM61 0v124h136v-124h-136z" />
    <glyph glyph-name="exclamdown.c2sc" horiz-adv-x="251" 
d="M61 400v124h136v-124h-136zM199 3h-148l29 330h90z" />
    <glyph glyph-name="uni203D" unicode="&#x203d;" horiz-adv-x="732" 
d="M379 464l-96 26l39 148q57 16 133 16q96 0 172.5 -35.5t76.5 -126.5q0 -65 -38 -99.5t-90 -56.5t-97.5 -47.5t-60.5 -71.5l-83 31q5 53 38.5 83t75 50.5t72.5 41.5t31 56q0 41 -39 54.5t-64 13.5q-22 0 -40 -6zM313 243l-85 -40l-207 364l139 67zM253 0v145h151v-145
h-151z" />
    <glyph glyph-name="uni203D.smcp" horiz-adv-x="646" 
d="M342 374l-89 23l41 122q48 10 106 10q77 0 146.5 -31.5t69.5 -106.5q0 -50 -30 -77.5t-72 -45t-80 -37t-53 -53.5l-78 27q5 40 31.5 63.5t58.5 39t56 32t24 42.5q0 32 -30.5 39.5t-43.5 7.5q-18 0 -35 -5zM284 200l-81 -35l-185 284l133 58zM231 0v124h136v-124h-136z
" />
    <glyph glyph-name="hyphen" unicode="-" horiz-adv-x="321" 
d="M41 288h239v-108h-239v108z" />
    <glyph glyph-name="hyphen.lnum" horiz-adv-x="321" 
d="M41 393h239v-108h-239v108z" />
    <glyph glyph-name="endash" unicode="&#x2013;" horiz-adv-x="590" 
d="M44 278h502v-85h-502v85z" />
    <glyph glyph-name="endash.aalt" horiz-adv-x="586" 
d="M42 388h502v-85h-502v85z" />
    <glyph glyph-name="emdash" unicode="&#x2014;" horiz-adv-x="1028" 
d="M44 278h940v-85h-940v85z" />
    <glyph glyph-name="emdash.aalt" horiz-adv-x="1024" 
d="M42 388h940v-85h-940v85z" />
    <glyph glyph-name="underscore" unicode="_" horiz-adv-x="502" 
d="M35 -68h432v-85h-432v85z" />
    <glyph glyph-name="at" unicode="@" horiz-adv-x="894" 
d="M292 419q42 24 82 32.5t77 8.5q97 0 147.5 -42t50.5 -111v-196q0 -19 13 -27t27 -8q41 0 53.5 48.5t12.5 103.5q0 187 -85 258.5t-209 71.5q-149 0 -237 -85t-88 -245q0 -122 48.5 -195.5t125 -106t159.5 -32.5q46 0 99.5 11t98.5 43l42 -78q-48 -32 -114.5 -52
t-143.5 -20q-115 0 -211 49t-153.5 142t-57.5 225q0 124 53 223.5t149 158t225 58.5q98 0 191.5 -38.5t154 -122t60.5 -218.5q0 -65 -19 -131t-63 -110t-119 -44q-54 0 -93.5 24.5t-46.5 66.5q-20 -35 -55.5 -63t-90.5 -28q-49 0 -96.5 29t-47.5 100q0 56 32.5 85.5
t82.5 40.5t103 11q16 0 35 -1t36 -3v15q0 60 -15.5 80.5t-52.5 20.5q-11 0 -27.5 -2.5t-32.5 -10.5l-24 -69l-98 11zM520 190q-16 2 -32.5 4t-32.5 2q-35 0 -60.5 -12.5t-25.5 -49.5q0 -22 12 -37t41 -15q34 0 64.5 25t33.5 80v3z" />
    <glyph glyph-name="ampersand" unicode="&#x26;" horiz-adv-x="702" 
d="M436 385h251v-114h-64q-34 -77 -103 -144q37 -14 71 -14t64 13l27 -110q-26 -14 -55 -20t-57 -6q-82 0 -167 49q-41 -23 -85 -36t-89 -13q-71 0 -138.5 38t-67.5 124q0 67 40.5 102.5t88.5 60.5q-40 86 -40 158q0 70 44.5 128.5t151.5 58.5q82 0 132 -39t50 -110
q0 -67 -48 -108t-142 -88q56 -87 139 -145q32 40 46 101h-49v114zM358 505q0 14 -8 35.5t-45 21.5q-44 0 -53.5 -30.5t-9.5 -47.5q0 -51 25 -107q51 33 71 64t20 64zM186 253q-35 -31 -35 -75q0 -46 33 -62.5t82 -16.5q24 0 49 3q-78 69 -129 151z" />
    <glyph glyph-name="slash" unicode="/" horiz-adv-x="376" 
d="M361 688l-195 -688h-127l195 688h127z" />
    <glyph glyph-name="slash.c2sc" horiz-adv-x="334" 
d="M312 520l-175 -520h-115l175 520h115z" />
    <glyph glyph-name="backslash" unicode="\" horiz-adv-x="421" 
d="M60 688h127l195 -688h-127z" />
    <glyph glyph-name="backslash.aalt" horiz-adv-x="334" 
d="M22 520h115l175 -520h-115z" />
    <glyph glyph-name="bar" unicode="|" horiz-adv-x="244" 
d="M177 730v-810h-110v810h110z" />
    <glyph glyph-name="parenleft" unicode="(" horiz-adv-x="289" 
d="M184 718h114q-166 -211 -166 -448q0 -116 41.5 -233t124.5 -220h-116q-83 110 -121 224.5t-38 228.5q0 116 39.5 229t121.5 219z" />
    <glyph glyph-name="parenleft.lnum" horiz-adv-x="279" 
d="M169 688h114q-76 -94 -113 -184t-37 -188q0 -196 150 -369h-116q-72 85 -107.5 178t-35.5 186q0 98 37.5 193.5t107.5 183.5z" />
    <glyph glyph-name="parenright" unicode=")" horiz-adv-x="289" 
d="M105 -183h-114q166 211 166 448q0 116 -41.5 232.5t-124.5 220.5h116q83 -110 121 -224.5t38 -228.5q0 -115 -39 -228t-122 -220z" />
    <glyph glyph-name="parenright.lnum" horiz-adv-x="278" 
d="M109 -53h-114q76 95 113 184.5t37 187.5q0 196 -150 369h116q72 -86 107.5 -178.5t35.5 -185.5q0 -98 -37.5 -193.5t-107.5 -183.5z" />
    <glyph glyph-name="bracketleft" unicode="[" horiz-adv-x="299" 
d="M67 -248v1033h223v-87h-114v-859h114v-87h-223z" />
    <glyph glyph-name="bracketleft.lnum" horiz-adv-x="304" 
d="M67 -97v843h223v-87h-114v-669h114v-87h-223z" />
    <glyph glyph-name="bracketright" unicode="]" horiz-adv-x="299" 
d="M232 -248h-223v87h114v859h-114v87h223v-1033z" />
    <glyph glyph-name="bracketright.lnum" horiz-adv-x="304" 
d="M237 -97h-223v87h114v669h-114v87h223v-843z" />
    <glyph glyph-name="braceleft" unicode="{" horiz-adv-x="299" 
d="M119 267q67 -8 94 -36.5t27 -57.5q0 -32 -21.5 -78.5t-43 -97t-21.5 -94.5q0 -64 63 -64h64v-87h-64q-97 0 -133.5 46.5t-36.5 100.5q0 53 21.5 108t42.5 101t21 74q0 37 -37.5 47t-60.5 10h-19v57h19q22 0 60 10t38 46q0 27 -21 74t-42.5 103t-21.5 110q0 59 38 102.5
t132 43.5h64v-87h-64q-63 0 -63 -64q0 -44 21.5 -95.5t43 -99t21.5 -79.5q0 -28 -27 -57t-94 -36z" />
    <glyph glyph-name="braceleft.lnum" horiz-adv-x="304" 
d="M120 327q68 -8 94.5 -36.5t26.5 -57.5q0 -32 -21.5 -56t-43 -52t-21.5 -72q0 -64 63 -64h64v-87h-64q-98 0 -134 46.5t-36 100.5q0 53 21 85.5t42.5 56t21.5 51.5q0 37 -37.5 47t-60.5 10h-19v57h19q23 0 60.5 10t37.5 46q0 27 -21.5 49.5t-42.5 53.5t-21 85
q0 59 38 102.5t132 43.5h64v-87h-64q-63 0 -63 -64q0 -44 21.5 -70.5t43 -49.5t21.5 -55q0 -28 -26.5 -57t-94.5 -36z" />
    <glyph glyph-name="braceright" unicode="}" horiz-adv-x="299" 
d="M180 271q-68 8 -94.5 36.5t-26.5 57.5q0 32 21.5 78.5t43 97t21.5 94.5q0 64 -63 64h-64v87h64q98 0 134 -46.5t36 -100.5q0 -53 -21 -108t-42.5 -101t-21.5 -74q0 -37 37.5 -47t60.5 -10h19v-57h-19q-23 0 -60.5 -10t-37.5 -46q0 -27 21.5 -74t42.5 -103t21 -110
q0 -59 -38 -102.5t-132 -43.5h-64v87h64q63 0 63 64q0 44 -21.5 95.5t-43 99t-21.5 79.5q0 28 26.5 57t94.5 36z" />
    <glyph glyph-name="braceright.lnum" horiz-adv-x="305" 
d="M184 322q-68 8 -94.5 36.5t-26.5 57.5q0 32 21.5 56t43 52t21.5 72q0 64 -63 64h-64v87h64q98 0 134 -46.5t36 -100.5q0 -53 -21 -85.5t-42.5 -56.5t-21.5 -51q0 -37 37.5 -47t60.5 -10h19v-57h-19q-23 0 -60.5 -10t-37.5 -46q0 -27 21.5 -49t42.5 -53.5t21 -85.5
q0 -59 -38 -102.5t-132 -43.5h-64v87h64q63 0 63 64q0 44 -21.5 71t-43 49.5t-21.5 54.5q0 29 26.5 57t94.5 36z" />
    <glyph glyph-name="uni301A" unicode="&#x301a;" horiz-adv-x="479" 
d="M67 -248v1033h393v-87h-114v-859h114v-87h-393zM176 698v-859h61v859h-61z" />
    <glyph glyph-name="uni301B" unicode="&#x301b;" horiz-adv-x="479" 
d="M412 -248h-393v87h114v859h-114v87h393v-1033zM303 -161v859h-61v-859h61z" />
    <glyph glyph-name="uni301A.cap" horiz-adv-x="474" 
d="M67 -98v844h393v-87h-114v-670h114v-87h-393zM176 659v-670h61v670h-61z" />
    <glyph glyph-name="uni301B.cap" horiz-adv-x="474" 
d="M407 -98h-393v87h114v670h-114v87h393v-844zM298 -11v670h-61v-670h61z" />
    <glyph glyph-name="dblparenleft" horiz-adv-x="453" 
d="M184 718h114q-166 -211 -166 -448q0 -116 41.5 -233t124.5 -220h-116q-83 110 -121 224.5t-38 228.5q0 116 39.5 229t121.5 219zM348 718h114q-166 -211 -166 -448q0 -116 41.5 -233t124.5 -220h-116q-83 110 -121 224.5t-38 228.5q0 116 39.5 229t121.5 219z" />
    <glyph glyph-name="dblparenleft.cap" horiz-adv-x="439" 
d="M169 688h114q-76 -94 -113 -184t-37 -188q0 -196 150 -369h-116q-72 85 -107.5 178t-35.5 186q0 98 37.5 193.5t107.5 183.5zM329 688h114q-76 -94 -113 -184t-37 -188q0 -196 150 -369h-116q-72 85 -107.5 178t-35.5 186q0 98 37.5 193.5t107.5 183.5z" />
    <glyph glyph-name="dblparenright" horiz-adv-x="453" 
d="M269 -183h-114q166 211 166 448q0 116 -41.5 232.5t-124.5 220.5h116q83 -110 121 -224.5t38 -228.5q0 -115 -39 -228t-122 -220zM105 -183h-114q166 211 166 448q0 116 -41.5 232.5t-124.5 220.5h116q83 -110 121 -224.5t38 -228.5q0 -115 -39 -228t-122 -220z" />
    <glyph glyph-name="dblparenright.cap" horiz-adv-x="438" 
d="M269 688q70 -88 107.5 -183.5t37.5 -193.5q0 -93 -35.5 -186t-107.5 -178h-116q150 173 150 369q0 98 -37 188t-113 184h114zM109 688q70 -88 107.5 -183.5t37.5 -193.5q0 -93 -35.5 -186t-107.5 -178h-116q150 173 150 369q0 98 -37 188t-113 184h114z" />
    <glyph glyph-name="asciicircum" unicode="^" horiz-adv-x="469" 
d="M189 650h81l171 -283h-118l-93 158l-83 -158h-119z" />
    <glyph glyph-name="asciitilde" unicode="~" horiz-adv-x="568" 
d="M379 176q-41 0 -74.5 16.5t-64 33t-65.5 16.5q-19 0 -39 -11t-46 -51l-71 48q63 132 159 132q36 0 65 -16.5t60 -33t73 -16.5q28 0 48.5 13.5t45.5 55.5l80 -53q-28 -57 -70 -95.5t-101 -38.5z" />
    <glyph glyph-name="degree" unicode="&#xb0;" horiz-adv-x="363" 
d="M181 342q-77 0 -118 45t-41 113t43.5 114t117.5 46q79 0 118.5 -46.5t39.5 -112.5q0 -67 -41.5 -113t-118.5 -46zM181 432q23 0 39 15t16 54t-15.5 54t-37.5 15q-23 0 -39.5 -15t-16.5 -55q0 -38 16 -53t38 -15z" />
    <glyph glyph-name="section" unicode="&#xa7;" horiz-adv-x="631" 
d="M532 151q0 -71 -57 -116t-154 -45q-42 0 -116 10t-128 34l19 136l100 -11l-5 -65q18 -6 60.5 -10t62.5 -4q44 0 67.5 18t23.5 45q0 37 -39 45t-88 13q-54 5 -111 16t-96 37t-39 78q0 41 24 66t55 40q-19 30 -19 71q0 70 56 110.5t159 40.5q44 0 96 -9t103 -32l13 -129
l-100 -11l-10 70q-13 7 -43 14.5t-62 7.5t-58.5 -11t-26.5 -41q0 -32 31 -49t75 -24q47 -7 113 -15.5t116.5 -37t50.5 -95.5q0 -44 -22.5 -70.5t-53.5 -45.5q3 -14 3 -31zM488 282q0 32 -37 46t-86.5 19t-86.5 10q-25 3 -52.5 10t-53.5 20q-23 -13 -23 -37q0 -34 46.5 -41.5
t129.5 -17.5q37 -5 77 -12.5t72 -25.5q4 4 9 10.5t5 18.5z" />
    <glyph glyph-name="bullet" unicode="&#x2022;" horiz-adv-x="351" 
d="M50 242q0 53 36 90t89 37t90 -37t37 -90q0 -52 -37 -88.5t-90 -36.5t-89 36.5t-36 88.5z" />
    <glyph glyph-name="paragraph" unicode="&#xb6;" horiz-adv-x="657" 
d="M620 650v-109h-64v-541h-120v541h-40v-541h-120v310h-46q-86 0 -145.5 39.5t-59.5 134.5q0 68 54.5 117t156.5 49h384z" />
    <glyph glyph-name="paragraph.aalt" horiz-adv-x="570" 
d="M196 521h339v-93h-51v-428h-115v428h-27v-428h-115v249h-36q-70 0 -119.5 31.5t-49.5 107.5q0 55 46 94t128 39z" />
    <glyph glyph-name="numbersign" unicode="#" horiz-adv-x="574" 
d="M510 521l-20 -101h53v-98h-71l-24 -123h65v-98h-84l-19 -101h-110l19 101h-129l-19 -101h-110l19 101h-49v98h68l24 123h-62v98h80l20 101h110l-20 -101h129l20 101h110zM209 199h129l24 123h-129z" />
    <glyph glyph-name="numbersign.aalt" horiz-adv-x="572" 
d="M519 652l-31 -162h55v-98h-74l-24 -123h68v-98h-86l-33 -171h-110l33 171h-129l-33 -171h-110l33 171h-47v98h65l24 123h-59v98h78l31 162h110l-31 -162h129l31 162h110zM206 269h129l24 123h-129z" />
    <glyph glyph-name="percent" unicode="%" horiz-adv-x="738" 
d="M184 240q-76 0 -116.5 41.5t-40.5 102.5q0 62 42.5 104.5t118.5 42.5t115 -42.5t39 -101.5q0 -62 -41 -104.5t-117 -42.5zM635 521l-209 -262l-195 -259h-134l235 285l169 236h134zM184 322q22 0 38 14t16 50q0 35 -15 49t-37 14t-38.5 -14t-16.5 -50q0 -35 15.5 -49
t37.5 -14zM553 -10q-77 0 -117 41.5t-40 102.5q0 62 42 104.5t119 42.5t115.5 -42.5t38.5 -101.5q0 -62 -40.5 -104.5t-117.5 -42.5zM553 72q23 0 38.5 14t15.5 50q0 35 -15 49t-37 14q-23 0 -39 -14t-16 -50q0 -35 15.5 -49t37.5 -14z" />
    <glyph glyph-name="perthousand" unicode="&#x2030;" horiz-adv-x="1062" 
d="M184 240q-76 0 -116.5 41.5t-40.5 102.5q0 62 42.5 104.5t118.5 42.5t115 -42.5t39 -101.5q0 -62 -41 -104.5t-117 -42.5zM635 521l-209 -262l-195 -259h-134l235 285l169 236h134zM184 322q22 0 38 14t16 50q0 35 -15 49t-37 14t-38.5 -14t-16.5 -50q0 -35 15.5 -49
t37.5 -14zM553 -10q-77 0 -117 41.5t-40 102.5q0 62 42 104.5t119 42.5t115.5 -42.5t38.5 -101.5q0 -62 -40.5 -104.5t-117.5 -42.5zM878 -10q-76 0 -116.5 41.5t-40.5 102.5q0 62 42.5 104.5t118.5 42.5t115 -42.5t39 -101.5q0 -62 -41 -104.5t-117 -42.5zM553 72
q23 0 38.5 14t15.5 50q0 35 -15 49t-37 14q-23 0 -39 -14t-16 -50q0 -35 15.5 -49t37.5 -14zM878 72q22 0 38 14t16 50q0 35 -15 49t-37 14t-38.5 -14t-16.5 -50q0 -35 15.5 -49t37.5 -14z" />
    <glyph glyph-name="percent.aalt" horiz-adv-x="705" 
d="M187 344q-77 0 -119 45t-42 113q0 66 45 112t118 46q82 0 121 -46t39 -110q0 -68 -45 -114t-117 -46zM614 651l-206 -321l-190 -330h-134l234 357l164 294h132zM187 433q23 0 39 15t16 54t-15 54t-38 15t-39.5 -15t-16.5 -55q0 -38 15.5 -53t38.5 -15zM517 -10
q-77 0 -119 45t-42 113q0 66 45 112t118 46q82 0 121 -46t39 -110q0 -68 -45 -114t-117 -46zM517 79q23 0 39 15t16 54t-15 54t-38 15t-39.5 -15t-16.5 -55q0 -38 15.5 -53t38.5 -15z" />
    <glyph glyph-name="perthousand.aalt" horiz-adv-x="1039" 
d="M187 344q-77 0 -119 45t-42 113q0 66 45 112t118 46q82 0 121 -46t39 -110q0 -68 -45 -114t-117 -46zM614 651l-206 -321l-190 -330h-134l234 357l164 294h132zM187 433q23 0 39 15t16 54t-15 54t-38 15t-39.5 -15t-16.5 -55q0 -38 15.5 -53t38.5 -15zM517 -10
q-77 0 -119 45t-42 113q0 66 45 112t118 46q82 0 121 -46t39 -110q0 -68 -45 -114t-117 -46zM852 -10q-77 0 -119 45t-42 113q0 66 45 112t118 46q82 0 121 -46t39 -110q0 -68 -45 -114t-117 -46zM517 79q23 0 39 15t16 54t-15 54t-38 15t-39.5 -15t-16.5 -55
q0 -38 15.5 -53t38.5 -15zM852 79q23 0 39 15t16 54t-15.5 54t-37.5 15q-23 0 -39.5 -15t-16.5 -55q0 -38 16 -53t38 -15z" />
    <glyph glyph-name="ordfeminine" unicode="&#xaa;" horiz-adv-x="375" 
d="M174 643q-20 0 -41 -9l-13 -45l-77 8l14 78q31 14 62 22t66 8q136 0 136 -100v-125q0 -22 17 -22q4 0 12 2l1 -47q-30 -15 -60 -15q-62 0 -69 59q-14 -23 -37 -41t-60 -18q-34 0 -66 19.5t-32 65.5q0 54 46 71.5t100 17.5q12 0 24.5 -0.5t23.5 -1.5v6q0 22 -4.5 44.5
t-42.5 22.5zM221 523v3q-22 5 -41 5t-32.5 -7.5t-13.5 -29.5q0 -31 32 -31q49 0 55 60z" />
    <glyph glyph-name="ordfeminine.aalt" horiz-adv-x="427" 
d="M27 466h37l84 163h-44v68h150l111 -231h38v-69h-148v69h19l-10 23h-104l-11 -23h24v-69h-146v69zM211 603l-30 -66h62l-29 66h-3z" />
    <glyph glyph-name="ordmasculine" unicode="&#xba;" horiz-adv-x="374" 
d="M20 547q0 65 41.5 111.5t125.5 46.5q85 0 126 -46t41 -107q0 -71 -49 -112.5t-123 -41.5q-70 0 -116 39t-46 110zM128 553q0 -35 14 -57t43 -22q61 0 61 80q0 42 -18 58.5t-42 16.5q-58 0 -58 -76z" />
    <glyph glyph-name="dagger" unicode="&#x2020;" horiz-adv-x="460" 
d="M25 440h150v210h110v-210h150v-109h-150v-472h-110v472h-150v109z" />
    <glyph glyph-name="daggerdbl" unicode="&#x2021;" horiz-adv-x="482" 
d="M36 160h150v171h-150v109h150v210h110v-210h150v-109h-150v-171h150v-109h-150v-192h-110v192h-150v109z" />
    <glyph glyph-name="quotesingle" unicode="'" horiz-adv-x="208" 
d="M158 377h-109l-10 273h129z" />
    <glyph glyph-name="quotedbl" unicode="&#x22;" horiz-adv-x="387" 
d="M158 377h-109l-10 273h129zM338 377h-109l-10 273h129z" />
    <glyph glyph-name="quotedblleft" unicode="&#x201c;" horiz-adv-x="401" 
d="M213 669l-60 -234h-126l60 234h126zM389 669l-60 -234h-126l60 234h126z" />
    <glyph glyph-name="quotedblleft.aalt" horiz-adv-x="412" 
d="M216 549l-60 -234h-126l60 234h126zM392 549l-60 -234h-126l60 234h126z" />
    <glyph glyph-name="quotedblright" unicode="&#x201d;" horiz-adv-x="395" 
d="M13 436l60 234h126l-60 -234h-126zM189 436l60 234h126l-60 -234h-126z" />
    <glyph glyph-name="quotedblright.aalt" horiz-adv-x="410" 
d="M29 316l60 234h126l-60 -234h-126zM205 316l60 234h126l-60 -234h-126z" />
    <glyph glyph-name="quoteleft" unicode="&#x2018;" horiz-adv-x="230" 
d="M213 639l-60 -234h-126l60 234h126z" />
    <glyph glyph-name="quoteleft.aalt" horiz-adv-x="236" 
d="M216 549l-60 -234h-126l60 234h126z" />
    <glyph glyph-name="quoteright" unicode="&#x2019;" horiz-adv-x="222" 
d="M23 496l60 234h126l-60 -234h-126z" />
    <glyph glyph-name="quoteright.aalt" horiz-adv-x="234" 
d="M29 316l60 234h126l-60 -234h-126z" />
    <glyph glyph-name="quotesinglbase" unicode="&#x201a;" horiz-adv-x="222" 
d="M3 -85l60 234h126l-60 -234h-126z" />
    <glyph glyph-name="quotedblbase" unicode="&#x201e;" horiz-adv-x="400" 
d="M3 -85l60 234h126l-60 -234h-126zM181 -85l60 234h126l-60 -234h-126z" />
    <glyph glyph-name="guilsinglleft" unicode="&#x2039;" horiz-adv-x="301" 
d="M270 25h-107l-138 246l138 240h107l-117 -240z" />
    <glyph glyph-name="guilsinglright.aalt" horiz-adv-x="302" 
d="M139 85h-107l117 246l-117 240h107l138 -240z" />
    <glyph glyph-name="guilsinglright" unicode="&#x203a;" horiz-adv-x="301" 
d="M138 25h-107l117 246l-117 240h107l138 -240z" />
    <glyph glyph-name="guilsinglleft.aalt" horiz-adv-x="302" 
d="M270 85h-107l-138 246l138 240h107l-117 -240z" />
    <glyph glyph-name="guillemotleft" unicode="&#xab;" horiz-adv-x="471" 
d="M270 25h-107l-138 246l138 240h107l-117 -240zM440 25h-107l-138 246l138 240h107l-117 -240z" />
    <glyph glyph-name="guillemotleft.aalt" horiz-adv-x="472" 
d="M270 85h-107l-138 246l138 240h107l-117 -240zM440 85h-107l-138 246l138 240h107l-117 -240z" />
    <glyph glyph-name="guillemotright" unicode="&#xbb;" horiz-adv-x="471" 
d="M308 25h-107l117 246l-117 240h107l138 -240zM138 25h-107l117 246l-117 240h107l138 -240z" />
    <glyph glyph-name="guillemotright.aalt" horiz-adv-x="472" 
d="M309 85h-107l117 246l-117 240h107l138 -240zM139 85h-107l117 246l-117 240h107l138 -240z" />
    <glyph glyph-name="asterisk" unicode="*" horiz-adv-x="416" 
d="M386 532l-106 -53l106 -53l-48 -75l-93 63l7 -105h-89l7 104l-92 -62l-48 75l105 53l-105 53l47 75l94 -64l-8 107h89l-8 -108l95 65z" />
    <glyph glyph-name="periodcentered" unicode="&#xb7;" horiz-adv-x="230" 
d="M38 251v163h153v-163h-153z" />
    <glyph glyph-name="periodcentered.aalt" horiz-adv-x="242" 
d="M44 192v163h153v-163h-153z" />
    <glyph glyph-name="glyph424" horiz-adv-x="597" 
d="M390 98v255h-173v-255h75v-98h-264v98h60v255h-55v98h55v69q0 70 56 124t165 54q38 0 85 -9t91 -32l20 -122l-100 -11l-19 64q-7 2 -27.5 7.5t-49.5 5.5q-59 0 -75.5 -25t-16.5 -54v-71h302v-353h60v-98h-249v98h60z" />
    <glyph glyph-name="glyph425" horiz-adv-x="598" 
d="M580 0h-249v98h60v472q-35 32 -83 32q-46 0 -68.5 -24t-22.5 -59v-68h91v-98h-91v-255h75v-98h-264v98h60v255h-55v98h55v62q0 79 50 132t138 53q31 0 60.5 -8t54.5 -28v26h129v-590h60v-98z" />
    <glyph glyph-name="brokenbar" unicode="&#xa6;" horiz-adv-x="240" 
d="M175 730v-304h-110v304h110zM175 224v-304h-110v304h110z" />
    <glyph glyph-name="minus" unicode="&#x2212;" horiz-adv-x="435" 
d="M44 237v88h347v-88h-347z" />
    <glyph glyph-name="plus" unicode="+" horiz-adv-x="401" 
d="M27 237v88h132v130h88v-130h127v-88h-127v-129h-88v129h-132z" />
    <glyph glyph-name="multiply" unicode="&#xd7;" horiz-adv-x="372" 
d="M94 120l-63 62l94 94l-92 92l62 62l92 -92l90 90l62 -62l-90 -90l91 -91l-62 -63l-91 91z" />
    <glyph glyph-name="less" unicode="&#x3c;" horiz-adv-x="397" 
d="M344 14l-319 243v44l318 248v-122l-187 -145l188 -146v-122z" />
    <glyph glyph-name="equal" unicode="=" horiz-adv-x="545" 
d="M44 347v88h457v-88h-457zM44 125v88h457v-88h-457z" />
    <glyph glyph-name="greater" unicode="&#x3e;" horiz-adv-x="395" 
d="M371 257l-319 -243v122l188 146l-187 145v122l318 -248v-44z" />
    <glyph glyph-name="infinity" unicode="&#x221e;" horiz-adv-x="706" 
d="M510 79q-65 0 -100 33t-58 76q-22 -43 -55.5 -76t-98.5 -33q-82 0 -126 52.5t-44 121.5q0 75 48 127t126 52q65 0 97 -35.5t53 -80.5q26 45 62 80.5t102 35.5q78 0 119.5 -51t41.5 -124q0 -76 -44 -127t-123 -51zM487 174q82 0 82 83q0 30 -16 54.5t-60 24.5
q-43 0 -68 -25t-43 -60q17 -32 40.5 -54.5t64.5 -22.5zM210 174q39 0 63.5 23t44.5 57q-19 34 -42 58t-63 24q-41 0 -59.5 -26t-18.5 -58q0 -78 75 -78z" />
    <glyph glyph-name="plusminus" unicode="&#xb1;" horiz-adv-x="418" 
d="M36 249v88h132v130h88v-130h127v-88h-127v-129h-88v129h-132zM36 0v88h347v-88h-347z" />
    <glyph glyph-name="lessequal" unicode="&#x2264;" horiz-adv-x="398" 
d="M351 94l-319 183v64l318 188v-112l-184 -103l185 -108v-112zM31 0v88h320v-88h-320z" />
    <glyph glyph-name="notequal" unicode="&#x2260;" horiz-adv-x="535" 
d="M40 347v88h268l42 69h106l-40 -69h81v-88h-132l-77 -134h209v-88h-260l-40 -69h-117l41 69h-81v88h134l81 134h-215z" />
    <glyph glyph-name="greaterequal" unicode="&#x2265;" horiz-adv-x="398" 
d="M47 94v112l185 108l-184 103v112l318 -188v-64zM367 0h-320v88h320v-88z" />
    <glyph glyph-name="divide" unicode="&#xf7;" horiz-adv-x="405" 
d="M126 361v163h153v-163h-153zM376 237h-347v88h347v-88zM126 39v163h153v-163h-153z" />
    <glyph glyph-name="logicalnot" unicode="&#xac;" horiz-adv-x="569" 
d="M434 75v162h-393v88h481v-250h-88z" />
    <glyph glyph-name="approxequal" unicode="&#x2248;" horiz-adv-x="590" 
d="M390 289q-42 0 -75 16.5t-64 33t-65 16.5q-19 0 -39.5 -11t-45.5 -51l-71 48q63 132 159 132q36 0 65 -16.5t59.5 -33t73.5 -16.5q29 0 49 13.5t45 55.5l80 -53q-28 -57 -70.5 -95.5t-100.5 -38.5zM390 78q-42 0 -75 16.5t-64 33t-65 16.5q-19 0 -39.5 -11t-45.5 -51
l-71 48q63 132 159 132q36 0 65 -16.5t59.5 -33t73.5 -16.5q29 0 49 13.5t45 55.5l80 -53q-28 -57 -70.5 -95.5t-100.5 -38.5z" />
    <glyph glyph-name="radical" unicode="&#x221a;" horiz-adv-x="587" 
d="M243 0l-110 344h-122v97h201l85 -264l196 520h106l-270 -697h-86z" />
    <glyph glyph-name="partialdiff" unicode="&#x2202;" horiz-adv-x="447" 
d="M71 321q0 42 19 74l-80 80l48 47l78 -77q38 27 86 27q46 0 86 -27l78 77l48 -47l-80 -80q19 -35 19 -74q0 -43 -22 -79l83 -83l-48 -47l-83 82q-37 -24 -81 -24t-82 24l-82 -82l-48 47l83 83q-22 36 -22 79zM181 321q0 -21 12 -36t29 -15t29 15t12 36t-12 36t-29 15
t-29 -15t-12 -36z" />
    <glyph glyph-name="summation" unicode="&#x2211;" horiz-adv-x="555" 
d="M30 -140v114l233 279l-233 283v114h494v-114h-336l213 -258v-40l-213 -264h336v-114h-494z" />
    <glyph glyph-name="product" unicode="&#x220f;" horiz-adv-x="685" 
d="M37 114h70v422h-70v114h611v-114h-70v-422h70v-114h-274v114h70v422h-203v-422h70v-114h-274v114z" />
    <glyph glyph-name="lozenge" unicode="&#x25ca;" horiz-adv-x="578" 
d="M290 -11l-268 331l268 340l267 -340zM290 136l143 184l-143 181l-144 -181z" />
    <glyph glyph-name="integral" unicode="&#x222b;" horiz-adv-x="371" 
d="M3 -140v107h42q51 0 66 16.5t15 75.5v436q0 96 38 145t158 49h47v-108h-55q-46 0 -62.5 -15t-16.5 -74v-438q0 -96 -42.5 -145t-152.5 -49h-37z" />
    <glyph glyph-name="mu" unicode="&#xb5;" horiz-adv-x="592" 
d="M78 -213v566h-60v98h189v-254q0 -59 19.5 -83.5t57.5 -24.5q45 0 70.5 28.5t26.5 73.5v162h-73v98h202v-353h65v-98h-194v69q-45 -78 -145 -78q-11 0 -29 2v-206h-129z" />
    <glyph glyph-name="pi" unicode="&#x3c0;" horiz-adv-x="599" 
d="M30 98h60v255h-65v98h551v-98h-67v-255h60v-98h-249v98h60v255h-161v-255h60v-98h-249v98z" />
    <glyph glyph-name="Delta" unicode="&#x2206;" horiz-adv-x="533" 
d="M21 0l251 661l240 -661h-491zM164 98h205l-100 296z" />
    <glyph glyph-name="uni0394" unicode="&#x394;" horiz-adv-x="477" 
d="M-8 0l251 661l240 -661h-491zM135 98h205l-100 296z" />
    <glyph glyph-name="Sigma" unicode="&#x3a3;" horiz-adv-x="555" 
d="M35 0v114l173 200l-173 222v114h494v-114h-336l153 -197v-40l-153 -185h336v-114h-494z" />
    <glyph glyph-name="Omega" unicode="&#x2126;" horiz-adv-x="688" 
d="M347 543q-100 0 -134 -51.5t-34 -125.5q0 -91 36 -120.5t93 -33.5v-212h-274v108h165v28q-49 8 -107 66t-58 173q0 96 45.5 159.5t117 94.5t149.5 31q77 0 147.5 -31t115.5 -95t45 -162q0 -100 -47 -164t-118 -72v-28h165v-108h-264v212q66 0 92 37.5t26 115.5
q0 73 -30 125.5t-131 52.5z" />
    <glyph glyph-name="acute" unicode="&#xb4;" horiz-adv-x="440" 
d="M404 599l-195 -91l-34 49l162 143z" />
    <glyph glyph-name="grave" unicode="`" horiz-adv-x="440" 
d="M374 557l-34 -49l-195 91l67 101z" />
    <glyph glyph-name="circumflex" unicode="&#x2c6;" horiz-adv-x="338" 
d="M361 557l-34 -49l-135 67l-112 -68l-35 51l135 126h45z" />
    <glyph glyph-name="dieresis" unicode="&#xa8;" horiz-adv-x="412" 
d="M57 531v134h129v-134h-129zM242 531v134h129v-134h-129z" />
    <glyph glyph-name="tilde" unicode="&#x2dc;" horiz-adv-x="374" 
d="M340 647q0 -43 -17 -86.5t-66 -43.5q-38 0 -66.5 20.5t-58.5 20.5q-33 0 -45 -43l-50 16q-1 19 6.5 48.5t26.5 52.5t52 23q34 0 63 -19t54 -19q34 0 47 41z" />
    <glyph glyph-name="macron" unicode="&#xaf;" horiz-adv-x="335" 
d="M310 536h-268v98h268v-98z" />
    <glyph glyph-name="breve" unicode="&#x2d8;" horiz-adv-x="399" 
d="M337 653q0 -71 -39.5 -104.5t-102.5 -33.5q-137 0 -137 138h102q0 -61 37 -61q21 0 29.5 18.5t8.5 42.5h102z" />
    <glyph glyph-name="dotaccent" unicode="&#x2d9;" horiz-adv-x="229" 
d="M40 531v134h129v-134h-129z" />
    <glyph glyph-name="ring" unicode="&#x2da;" horiz-adv-x="260" 
d="M235 608q0 -41 -25.5 -67.5t-80.5 -26.5q-53 0 -78 25t-25 66q0 42 26 67.5t80 25.5q55 0 79 -25.5t24 -64.5zM155 610q0 10 -3.5 19t-20.5 9q-25 0 -25 -33q0 -31 24 -31q25 0 25 36z" />
    <glyph glyph-name="cedilla" unicode="&#xb8;" horiz-adv-x="256" 
d="M301 -121q0 -50 -41 -69t-89 -19q-79 0 -116 30l23 70q11 -7 30.5 -15t47.5 -8q36 0 36 21q0 11 -7.5 18t-31.5 7h-37v92h88v-47h8q50 0 69.5 -25.5t19.5 -54.5z" />
    <glyph glyph-name="hungarumlaut" unicode="&#x2dd;" horiz-adv-x="430" 
d="M239 662l-150 -154l-49 34l101 191zM404 599l-195 -91l-34 49l162 143z" />
    <glyph glyph-name="ogonek" unicode="&#x2db;" horiz-adv-x="280" 
d="M239 -188q-17 -8 -39 -14t-51 -6q-49 0 -83.5 21.5t-34.5 69.5q0 45 29 79t68 50l70 -4q-36 -20 -46.5 -42t-10.5 -40q0 -26 12.5 -35t30.5 -9q26 0 46 12z" />
    <glyph glyph-name="caron" unicode="&#x2c7;" horiz-adv-x="338" 
d="M361 633l-135 -126h-45l-136 127l34 49l135 -67l112 68z" />
    <glyph glyph-name="glyph466" horiz-adv-x="274" 
d="M270 716l-215 -28l-16 57l202 88z" />
    <glyph glyph-name="glyph467" horiz-adv-x="364" 
d="M313 833q0 -71 -38 -104.5t-102 -33.5q-139 0 -139 138h102q0 -61 37 -61q21 0 29.5 18.5t8.5 42.5h102z" />
    <glyph glyph-name="glyph468" horiz-adv-x="341" 
d="M335 791l-135 -106h-45l-136 107l28 52l137 -60l122 60z" />
    <glyph glyph-name="glyph469" horiz-adv-x="341" 
d="M335 737l-28 -52l-135 60l-124 -60l-29 53l135 106h45z" />
    <glyph glyph-name="glyph470" horiz-adv-x="404" 
d="M45 705v134h129v-134h-129zM230 705v134h129v-134h-129z" />
    <glyph glyph-name="glyph471" horiz-adv-x="184" 
d="M24 705v134h129v-134h-129z" />
    <glyph glyph-name="glyph472" horiz-adv-x="417" 
d="M276 821l-170 -134l-43 40l129 179zM430 716l-215 -28l-16 57l202 88z" />
    <glyph glyph-name="glyph473" horiz-adv-x="274" 
d="M270 745l-16 -57l-215 28l29 117z" />
    <glyph glyph-name="glyph474" horiz-adv-x="375" 
d="M350 721h-308v98h308v-98z" />
    <glyph glyph-name="glyph475" horiz-adv-x="374" 
d="M347 820q0 -44 -16.5 -82t-68.5 -38q-37 0 -64.5 15.5t-61.5 15.5q-33 0 -42 -33l-50 16q-2 28 16.5 69t69.5 41q33 0 61.5 -15.5t53.5 -15.5q14 0 27.5 8t20.5 30z" />
    <glyph glyph-name="commaaccent" horiz-adv-x="203" 
d="M163 -58l-26 -155h-98l3 155h121z" />
    <glyph glyph-name="glyph477" horiz-adv-x="260" 
d="M235 783q0 -41 -25.5 -67.5t-80.5 -26.5q-53 0 -78 25t-25 66q0 42 26 67.5t80 25.5q55 0 79 -25.5t24 -64.5zM155 785q0 10 -3.5 19t-20.5 9q-25 0 -25 -33q0 -31 24 -31q25 0 25 36z" />
    <glyph glyph-name="glyph478" horiz-adv-x="226" 
d="M198 681l-36 -224h-98l13 224h121z" />
    <glyph glyph-name="dotbelowcomb" unicode="&#x323;" horiz-adv-x="833" 
d="M67 -196v134h129v-134h-129z" />
    <glyph glyph-name="downbreve" horiz-adv-x="399" 
d="M337 515h-102q0 61 -37 61q-21 0 -29.5 -18.5t-8.5 -42.5h-102q0 71 39.5 104.5t102.5 33.5q137 0 137 -138z" />
    <glyph glyph-name="downbreve.cap" horiz-adv-x="364" 
d="M313 695h-102q0 61 -37 61q-21 0 -29.5 -18.5t-8.5 -42.5h-102q0 71 38 104.5t102 33.5q139 0 139 -138z" />
    <glyph glyph-name="horumlaut" horiz-adv-x="430" 
d="M404 542l-49 -34l-150 154l98 71zM269 557l-34 -49l-195 91l67 101z" />
    <glyph glyph-name="horumlaut.cap" horiz-adv-x="417" 
d="M430 727l-43 -40l-170 134l84 85zM294 745l-16 -57l-215 28l29 117z" />
    <glyph glyph-name="uni0030.zero.c2sc" horiz-adv-x="519" 
d="M28 254q0 67 20.5 130t71 104t141.5 41t141 -41t69.5 -103.5t19.5 -124.5q0 -112 -54 -190t-181 -78q-128 0 -178 78t-50 184zM168 264q0 -69 16.5 -119.5t72.5 -50.5q53 0 74 47.5t21 121.5q0 73 -20.5 119t-74.5 46q-56 0 -72.5 -48t-16.5 -116zM306 308v-89h-94v89h94
z" />
    <glyph glyph-name="uni0030.c2sc" horiz-adv-x="519" 
d="M28 254q0 67 20.5 130t71 104t141.5 41t141 -41t69.5 -103.5t19.5 -124.5q0 -112 -54 -190t-181 -78q-128 0 -178 78t-50 184zM168 264q0 -69 16.5 -119.5t72.5 -50.5q53 0 74 47.5t21 121.5q0 73 -20.5 119t-74.5 46q-56 0 -72.5 -48t-16.5 -116z" />
    <glyph glyph-name="uni0031.c2sc" horiz-adv-x="363" 
d="M30 98h103v325h-103v98h232v-423h92v-98h-324v98z" />
    <glyph glyph-name="uni0032.c2sc" horiz-adv-x="487" 
d="M137 347l-102 9l18 138q37 15 89 25t101 10q103 0 147.5 -41.5t44.5 -94.5q0 -60 -43.5 -115t-102.5 -101.5t-104 -78.5h159l14 76l111 -10l-21 -164h-411l-11 91q57 46 119 96.5t105 99.5t43 89q0 55 -68 55q-16 0 -38.5 -4.5t-36.5 -11.5z" />
    <glyph glyph-name="uni0033.c2sc" horiz-adv-x="465" 
d="M145 347l-102 9l18 138q37 15 87 25.5t91 10.5q64 0 122 -31t58 -101q0 -35 -20 -66t-69 -52v-3q50 -10 79 -43t29 -87q0 -61 -34.5 -94.5t-84 -47t-94.5 -13.5q-92 0 -139.5 42.5t-49.5 109.5l113 28q0 -29 14 -56t64 -27q41 0 56 23t15 48q0 40 -31 56t-87 18v75
q34 2 67 12t33 55q0 56 -63 56q-34 0 -59 -14z" />
    <glyph glyph-name="uni0034.c2sc" horiz-adv-x="492" 
d="M388 0h-129v101h-236l-14 96l157 324h222v-324h81l-9 -96h-72v-101zM259 197v226h-28l-109 -226h137z" />
    <glyph glyph-name="uni0035.c2sc" horiz-adv-x="452" 
d="M432 162q0 -84 -65 -127t-142 -43q-71 0 -129 37t-66 115l113 28q0 -29 14 -56t64 -27q41 0 56 23.5t15 48.5q0 47 -29.5 61.5t-76.5 14.5q-19 0 -39.5 -1.5t-40.5 -2.5l-41 35v253h336v-1l3 1l12 -158l-100 -8l-14 68h-118v-93q7 1 14 1h14q89 0 154.5 -34t65.5 -135z
" />
    <glyph glyph-name="uni0036.c2sc" horiz-adv-x="466" 
d="M436 176q0 -82 -55.5 -133t-145.5 -51q-107 0 -156.5 72t-49.5 184q0 129 59.5 205.5t164.5 76.5q48 0 92.5 -17.5t72.5 -52.5l-53 -69q-42 42 -100 42q-41 0 -65 -26t-30 -105q0 -4 -0.5 -9t-0.5 -9q14 22 41.5 38.5t72.5 16.5q85 0 119 -53t34 -110zM303 170
q0 34 -14 55t-50 21q-66 0 -69 -68q9 -85 68 -85q65 0 65 77z" />
    <glyph glyph-name="uni0037.c2sc" horiz-adv-x="423" 
d="M19 521h389l15 -53l-189 -468h-127l176 424h-159v-88h-105v185z" />
    <glyph glyph-name="uni0038.c2sc" horiz-adv-x="468" 
d="M228 -8q-87 0 -143 34.5t-56 102.5q0 53 31.5 80t73.5 45q-38 22 -66 52.5t-28 79.5q0 65 53 104t142 39q84 0 135.5 -35t51.5 -95q0 -44 -26.5 -69t-63.5 -42q44 -22 77 -56t33 -90q0 -74 -61 -112t-153 -38zM179 395q0 -25 25.5 -42t62.5 -34q26 24 26 61
q0 35 -19.5 46t-39.5 11q-55 0 -55 -42zM236 85q36 0 51.5 15t15.5 34q0 32 -32.5 52t-75.5 39q-36 -28 -36 -70q0 -29 18.5 -49.5t58.5 -20.5z" />
    <glyph glyph-name="uni0039.c2sc" horiz-adv-x="466" 
d="M437 274q0 -129 -59.5 -205.5t-164.5 -76.5q-48 0 -92.5 17.5t-72.5 52.5l53 69q42 -42 100 -42q42 0 66 27.5t29 112.5q1 3 1 9q-14 -22 -41.5 -38.5t-72.5 -16.5q-85 0 -119 53t-34 110q0 82 55.5 133t145.5 51q107 0 156.5 -72t49.5 -184zM296 344q-9 85 -68 85
q-65 0 -65 -77q0 -34 14 -55t50 -21q66 0 69 68z" />
    <glyph glyph-name="uni0030.zero.case" horiz-adv-x="594" 
d="M30 317q0 84 23.5 162.5t82 129.5t163.5 51q107 0 164 -51.5t79 -129t22 -155.5q0 -140 -61 -237t-210 -97q-99 0 -156.5 44.5t-82 119t-24.5 163.5zM175 329q0 -90 22.5 -155.5t97.5 -65.5q72 0 98.5 62t26.5 159q0 91 -25.5 152t-99.5 61q-76 0 -98 -62.5t-22 -150.5z
M342 385v-111h-98v111h98z" />
    <glyph glyph-name="uni0030.lnum" horiz-adv-x="594" 
d="M30 317q0 84 23.5 162.5t82 129.5t163.5 51q107 0 164 -51.5t79 -129t22 -155.5q0 -140 -61 -237t-210 -97q-99 0 -156.5 44.5t-82 119t-24.5 163.5zM175 329q0 -90 22.5 -155.5t97.5 -65.5q72 0 98.5 62t26.5 159q0 91 -25.5 152t-99.5 61q-76 0 -98 -62.5t-22 -150.5z
" />
    <glyph glyph-name="uni0031.lnum" horiz-adv-x="413" 
d="M32 114h124v422h-124v114h258v-536h113v-114h-371v114z" />
    <glyph glyph-name="uni0032.lnum" horiz-adv-x="552" 
d="M152 452l-107 11l21 157q40 16 94.5 28t110.5 12q85 0 153.5 -37t68.5 -128q0 -78 -48.5 -146t-118.5 -126.5t-133 -108.5h214l20 93l109 -10l-20 -197h-478l-12 106q69 58 143.5 122.5t125.5 127t51 114.5q0 76 -93 76q-18 0 -44 -4t-42 -12z" />
    <glyph glyph-name="uni0033.lnum" horiz-adv-x="531" 
d="M69 622q58 24 113 31.5t88 7.5q90 0 149.5 -39.5t59.5 -121.5q0 -49 -25.5 -87.5t-86.5 -63.5v-4q71 -14 103 -57t32 -103q0 -101 -74 -148.5t-176 -47.5q-108 0 -162 48.5t-55 130.5l109 33q0 -35 24 -66.5t83 -31.5q57 0 81.5 30.5t24.5 67.5q0 50 -40 71t-112 23v88
q59 0 86.5 17t35.5 39.5t8 36.5q0 71 -84 71q-18 0 -43.5 -3.5t-41.5 -11.5l-15 -74l-103 11z" />
    <glyph glyph-name="uni0034.lnum" horiz-adv-x="563" 
d="M542 270l-10 -111h-88v-159h-134v159h-288l-14 111l198 381h238v-381h98zM310 270v267h-38l-136 -267h174z" />
    <glyph glyph-name="uni0035.lnum" horiz-adv-x="516" 
d="M496 201q0 -118 -74 -165t-176 -47q-108 0 -162 48.5t-55 130.5l109 33q0 -35 24 -66.5t83 -31.5q57 0 81.5 30.5t24.5 67.5q0 63 -46.5 82t-106.5 19q-24 0 -48 -2t-46 -3l-43 41v313h400l19 -183l-114 -10l-18 79h-163v-127q9 1 18.5 1h18.5q70 0 133 -17.5t102 -62.5
t39 -130z" />
    <glyph glyph-name="uni0036.lnum" horiz-adv-x="536" 
d="M504 216q0 -100 -62.5 -163t-169.5 -63q-128 0 -184.5 90t-56.5 231q0 92 25 171.5t82.5 128.5t156.5 49q55 0 107 -20t87 -70l-77 -77q-39 53 -122 53q-59 0 -84.5 -41t-29.5 -140q-1 -7 -1 -23q17 32 52 55t94 23q101 0 142 -65t41 -139zM366 211q0 46 -20 73t-69 27
t-73 -25.5t-26 -64.5q5 -58 26 -85.5t70 -27.5q92 0 92 103z" />
    <glyph glyph-name="uni0037.lnum" horiz-adv-x="486" 
d="M486 588l-230 -588h-132l217 538h-204v-109h-117v222h450z" />
    <glyph glyph-name="uni0038.lnum" horiz-adv-x="539" 
d="M511 170q0 -84 -70 -132t-172 -48q-108 0 -173.5 43t-65.5 126q0 67 39 102t92 58q-48 27 -82.5 65t-34.5 100q0 79 62 127.5t164 48.5q97 0 157.5 -44t60.5 -118q0 -56 -33.5 -87t-79.5 -53q53 -28 94.5 -71t41.5 -117zM354 475q0 47 -26 62t-58 15q-82 0 -82 -59
q0 -35 36 -58t86 -46q44 34 44 86zM367 168q0 42 -44.5 68t-100.5 52q-26 -17 -41.5 -40t-15.5 -57q0 -41 26.5 -67t79.5 -26q47 0 71.5 20.5t24.5 49.5z" />
    <glyph glyph-name="uni0039.lnum" horiz-adv-x="536" 
d="M32 434q0 100 62.5 163t169.5 63q128 0 184.5 -90t56.5 -231q0 -92 -25 -171.5t-82.5 -128.5t-156.5 -49q-55 0 -107 20t-87 70l77 77q39 -53 122 -53q59 0 84.5 41t29.5 140q1 7 1 23q-17 -32 -52 -55t-94 -23q-101 0 -142 65t-41 139zM170 439q0 -46 20 -73t69 -27
t73 25.5t26 64.5q-5 58 -26 85.5t-70 27.5q-92 0 -92 -103z" />
    <glyph glyph-name="uni0030.lnum.tnum.zero" horiz-adv-x="600" 
d="M33 317q0 84 23.5 162.5t81.5 129.5t164 51t163.5 -51.5t79.5 -129t22 -155.5q0 -140 -61.5 -237t-209.5 -97q-99 0 -156.5 44.5t-82 119t-24.5 163.5zM178 329q0 -90 22.5 -155.5t97.5 -65.5q72 0 98.5 62t26.5 159q0 91 -25.5 152t-99.5 61q-76 0 -98 -62.5t-22 -150.5
zM349 385v-111h-98v111h98z" />
    <glyph glyph-name="uni0030.lnum.tnum" horiz-adv-x="600" 
d="M33 317q0 84 23.5 162.5t81.5 129.5t164 51t163.5 -51.5t79.5 -129t22 -155.5q0 -140 -61.5 -237t-209.5 -97q-99 0 -156.5 44.5t-82 119t-24.5 163.5zM178 329q0 -90 22.5 -155.5t97.5 -65.5q72 0 98.5 62t26.5 159q0 91 -25.5 152t-99.5 61q-76 0 -98 -62.5t-22 -150.5
z" />
    <glyph glyph-name="uni0031.lnum.tnum" horiz-adv-x="600" 
d="M125 114h124v422h-124v114h258v-536h113v-114h-371v114z" />
    <glyph glyph-name="uni0032.lnum.tnum" horiz-adv-x="600" 
d="M165 452l-107 11l21 157q40 16 94.5 28t110.5 12q85 0 153.5 -37t68.5 -128q0 -78 -48.5 -146t-118 -126.5t-133.5 -108.5h214l20 93l109 -10l-20 -197h-478l-12 106q69 58 143 122.5t125.5 127t51.5 114.5q0 76 -93 76q-18 0 -44 -4t-42 -12z" />
    <glyph glyph-name="uni0033.lnum.tnum" horiz-adv-x="600" 
d="M104 622q58 24 113 31.5t88 7.5q90 0 149.5 -39.5t59.5 -121.5q0 -49 -25.5 -87.5t-86.5 -63.5v-4q70 -14 102.5 -57t32.5 -103q0 -101 -74 -148.5t-176 -47.5q-108 0 -161.5 48.5t-55.5 130.5l109 33q0 -35 24 -66.5t83 -31.5q57 0 81.5 30.5t24.5 67.5q0 50 -40 71
t-112 23v88q59 0 86.5 17t35.5 39.5t8 36.5q0 71 -84 71q-18 0 -43.5 -3.5t-41.5 -11.5l-15 -74l-103 11z" />
    <glyph glyph-name="uni0034.lnum.tnum" horiz-adv-x="600" 
d="M462 0h-134v159h-288l-14 111l198 381h238v-381h98l-10 -111h-88v-159zM328 270v267h-38l-136 -267h174z" />
    <glyph glyph-name="uni0035.lnum.tnum" horiz-adv-x="600" 
d="M538 201q0 -118 -74 -165t-176 -47q-108 0 -162 48.5t-55 130.5l109 33q0 -35 24 -66.5t83 -31.5q57 0 81.5 30.5t24.5 67.5q0 63 -46.5 82t-106.5 19q-24 0 -48 -2t-46 -3l-43 41v313h400l19 -183l-114 -10l-18 79h-163v-127q9 1 18.5 1h18.5q70 0 133 -17.5t102 -62.5
t39 -130z" />
    <glyph glyph-name="uni0036.lnum.tnum" horiz-adv-x="600" 
d="M536 216q0 -100 -62.5 -163t-169.5 -63q-128 0 -184.5 90t-56.5 231q0 92 25 171.5t82.5 128.5t156.5 49q55 0 107 -20t87 -70l-77 -77q-39 53 -122 53q-59 0 -84.5 -41t-29.5 -140q-1 -7 -1 -23q17 32 52 55t94 23q101 0 142 -65t41 -139zM398 211q0 46 -20 73t-69 27
t-73 -25.5t-26 -64.5q5 -58 26 -85.5t70 -27.5q92 0 92 103z" />
    <glyph glyph-name="uni0037.lnum.tnum" horiz-adv-x="600" 
d="M543 588l-230 -588h-132l217 538h-204v-109h-117v222h450z" />
    <glyph glyph-name="uni0038.lnum.tnum" horiz-adv-x="600" 
d="M541 170q0 -84 -70 -132t-172 -48q-108 0 -173.5 43t-65.5 126q0 67 39 102t92 58q-48 27 -82.5 65t-34.5 100q0 79 62 127.5t164 48.5q97 0 157.5 -44t60.5 -118q0 -56 -33.5 -87t-79.5 -53q53 -28 94.5 -71t41.5 -117zM384 475q0 47 -26 62t-58 15q-82 0 -82 -59
q0 -35 36 -58t86 -46q44 34 44 86zM397 168q0 42 -44.5 68t-100.5 52q-26 -17 -41.5 -40t-15.5 -57q0 -41 26.5 -67t79.5 -26q47 0 71.5 20.5t24.5 49.5z" />
    <glyph glyph-name="uni0039.lnum.tnum" horiz-adv-x="600" 
d="M64 434q0 100 62.5 163t169.5 63q128 0 184.5 -90t56.5 -231q0 -92 -25 -171.5t-82.5 -128.5t-156.5 -49q-55 0 -107 20t-87 70l77 77q39 -53 122 -53q59 0 84.5 41t29.5 140q1 7 1 23q-17 -32 -52 -55t-94 -23q-101 0 -142 65t-41 139zM202 439q0 -46 20 -73t69 -27
t73 25.5t26 64.5q-5 58 -26 85.5t-70 27.5q-92 0 -92 -103z" />
    <glyph glyph-name="uni0030.tnum.zero" horiz-adv-x="600" 
d="M557 254q0 -136 -71.5 -200t-189.5 -64t-185.5 63t-67.5 199q0 124 66 201.5t191 77.5q133 0 195 -78.5t62 -198.5zM413 261q0 92 -31.5 122t-82.5 30q-54 0 -82.5 -31.5t-28.5 -120.5q0 -90 29 -121.5t82 -31.5q49 0 81.5 29t32.5 124zM350 319v-111h-98v111h98z" />
    <glyph glyph-name="uni0030.tnum" horiz-adv-x="600" 
d="M557 254q0 -136 -71.5 -200t-189.5 -64t-185.5 63t-67.5 199q0 124 66 201.5t191 77.5q133 0 195 -78.5t62 -198.5zM413 261q0 92 -31.5 122t-82.5 30q-54 0 -82.5 -31.5t-28.5 -120.5q0 -90 29 -121.5t82 -31.5q49 0 81.5 29t32.5 124z" />
    <glyph glyph-name="uni0031.tnum" horiz-adv-x="600" 
d="M485 0h-344v114h110v293h-110v114h244v-407h100v-114z" />
    <glyph glyph-name="uni0032.tnum" horiz-adv-x="600" 
d="M103 492q58 24 109.5 31.5t87.5 7.5q118 0 165.5 -46.5t47.5 -105.5q0 -65 -44.5 -111t-111.5 -82t-135 -72h212l7 59l107 -10l-15 -163h-454l-12 106q79 50 148 92t111.5 80.5t42.5 79.5q0 32 -26 45.5t-61 13.5q-18 0 -42 -3.5t-40 -11.5l-15 -74l-103 11z" />
    <glyph glyph-name="uni0033.tnum" horiz-adv-x="600" 
d="M105 492q58 24 113 31.5t88 7.5q90 0 149.5 -39.5t59.5 -121.5q0 -49 -25.5 -87.5t-86.5 -63.5v-4q71 -14 103 -57t32 -103q0 -101 -74 -148.5t-176 -47.5q-108 0 -162 48.5t-55 130.5l109 33q0 -35 24 -66.5t83 -31.5q57 0 81.5 30.5t24.5 67.5q0 50 -40 71t-112 23v88
q59 0 86.5 17t35.5 39.5t8 36.5q0 71 -84 71q-18 0 -43.5 -3.5t-41.5 -11.5l-15 -74l-103 11z" />
    <glyph glyph-name="uni0034.tnum" horiz-adv-x="600" 
d="M466 -130h-134v159h-288l-14 111l198 381h238v-381h98l-10 -111h-88v-159zM332 140v267h-38l-136 -267h174z" />
    <glyph glyph-name="uni0035.tnum" horiz-adv-x="600" 
d="M537 71q0 -118 -74 -165t-176 -47q-108 0 -161.5 48.5t-55.5 130.5l109 33q0 -35 24 -66.5t83 -31.5q57 0 81.5 30.5t24.5 67.5q0 63 -46.5 82t-106.5 19q-24 0 -47.5 -2t-46.5 -3l-43 41v313h400l19 -183l-114 -10l-18 79h-163v-127q9 1 18.5 1h18.5q71 0 133.5 -17.5
t101.5 -62.5t39 -130z" />
    <glyph glyph-name="uni0036.tnum" horiz-adv-x="600" 
d="M536 216q0 -100 -62.5 -163t-169.5 -63q-128 0 -184.5 90t-56.5 231q0 92 25 171.5t82.5 128.5t156.5 49q55 0 107 -20t87 -70l-77 -77q-39 53 -122 53q-59 0 -84.5 -41t-29.5 -140q-1 -7 -1 -23q17 32 52 55t94 23q101 0 142 -65t41 -139zM398 211q0 46 -20 73t-69 27
t-73 -25.5t-26 -64.5q5 -58 26 -85.5t70 -27.5q92 0 92 103z" />
    <glyph glyph-name="uni0037.tnum" horiz-adv-x="600" 
d="M542 458l-230 -588h-132l217 538h-204v-109h-117v222h450z" />
    <glyph glyph-name="uni0038.tnum" horiz-adv-x="600" 
d="M541 170q0 -84 -70 -132t-172 -48q-108 0 -173.5 43t-65.5 126q0 67 39 102t92 58q-48 27 -82.5 65t-34.5 100q0 79 62 127.5t164 48.5q97 0 157.5 -44t60.5 -118q0 -56 -33.5 -87t-79.5 -53q53 -28 94.5 -71t41.5 -117zM384 475q0 47 -26 62t-58 15q-82 0 -82 -59
q0 -35 36 -58t86 -46q44 34 44 86zM397 168q0 42 -44.5 68t-100.5 52q-26 -17 -41.5 -40t-15.5 -57q0 -41 26.5 -67t79.5 -26q47 0 71.5 20.5t24.5 49.5z" />
    <glyph glyph-name="uni0039.tnum" horiz-adv-x="600" 
d="M64 304q0 100 62.5 163t169.5 63q128 0 184.5 -90t56.5 -231q0 -92 -25 -171.5t-82.5 -128.5t-156.5 -49q-55 0 -107 20t-87 70l77 77q39 -53 122 -53q59 0 84.5 41t29.5 140q1 7 1 23q-17 -32 -52 -55t-94 -23q-101 0 -142 65t-41 139zM202 309q0 -46 20 -73t69 -27
t73 25.5t26 64.5q-5 58 -26 85.5t-70 27.5q-92 0 -92 -103z" />
    <glyph glyph-name="uni0030.zero.numr" horiz-adv-x="391" 
d="M26 467q0 70 35.5 131.5t134.5 61.5q100 0 134.5 -62t34.5 -127q0 -77 -40.5 -132t-132.5 -55t-129 54.5t-37 128.5zM135 475q0 -45 11 -79t47 -34q35 0 49 31t14 81q0 49 -13 78.5t-48 29.5q-36 0 -48 -31t-12 -76z" />
    <glyph glyph-name="uni0031.numr" horiz-adv-x="282" 
d="M29 362h73v214h-73v75h174v-289h65v-75h-239v75z" />
    <glyph glyph-name="uni0032.numr" horiz-adv-x="369" 
d="M110 529l-77 6l14 99q27 11 63 18.5t73 7.5q79 0 111 -32t32 -66q0 -41 -33 -79t-75 -68.5t-69 -49.5h105l12 55l81 -10l-10 -120h-303l-9 70q41 31 85 65t74.5 66.5t30.5 57.5q0 36 -49 36q-25 0 -46 -11z" />
    <glyph glyph-name="uni0033.numr" horiz-adv-x="351" 
d="M113 533l-77 6l13 95q27 12 64 18.5t68 6.5q65 0 98.5 -27t33.5 -66q0 -53 -61 -81v-2q39 -10 56 -35t17 -56q0 -52 -44 -80.5t-114 -28.5q-53 0 -90 22.5t-47 76.5l73 25q16 -45 59 -45q54 0 54 44q0 26 -23.5 35t-55.5 10v56q25 1 46 8t21 35q0 34 -40 34
q-23 0 -42 -10z" />
    <glyph glyph-name="uni0034.numr" horiz-adv-x="370" 
d="M189 287v65h-165l-10 73l106 226h170v-221h58l-7 -78h-51v-65h-101zM173 576l-71 -146h87v146h-16z" />
    <glyph glyph-name="uni0035.numr" horiz-adv-x="341" 
d="M321 401q0 -57 -44 -89t-114 -32q-53 0 -90 22.5t-47 76.5l73 25q16 -45 59 -45q54 0 54 44q0 29 -20.5 37t-49.5 8q-16 0 -31 -1t-29 -2l-31 26v180h240l10 -108l-84 -8l-7 41h-66v-57h18q64 0 111.5 -23.5t47.5 -94.5z" />
    <glyph glyph-name="uni0036.numr" horiz-adv-x="348" 
d="M197 585q-26 0 -42 -17t-20 -75q10 15 28.5 25.5t49.5 10.5q61 0 84.5 -38t23.5 -77q0 -58 -41.5 -94t-105.5 -36q-76 0 -112 50.5t-36 129.5q0 78 38 137t126 59q74 0 119 -47l-54 -57q-25 29 -58 29zM178 458q-40 0 -43 -40q4 -56 42 -56q41 0 41 48t-40 48z" />
    <glyph glyph-name="uni0037.numr" horiz-adv-x="321" 
d="M20 651h283l11 -40l-132 -325h-99l122 291h-98v-61h-87v135z" />
    <glyph glyph-name="uni0038.numr" horiz-adv-x="351" 
d="M171 284q-64 0 -104 24.5t-40 71.5q0 36 21.5 54.5t50.5 31.5q-27 15 -46 36.5t-19 55.5q0 46 39 74t103 28q62 0 99 -25t37 -66q0 -30 -18 -47t-43 -29q29 -16 52 -39.5t23 -62.5q0 -53 -44 -80t-111 -27zM143 565q0 -15 16 -26t39 -21q13 15 13 36q0 23 -12.5 29
t-22.5 6q-33 0 -33 -24zM175 355q24 0 33 9.5t9 19.5q0 20 -21 33t-49 26q-19 -17 -19 -43q0 -18 10 -31.5t37 -13.5z" />
    <glyph glyph-name="uni0039.numr" horiz-adv-x="349" 
d="M151 359q31 0 45.5 17.5t16.5 74.5q-22 -36 -78 -36q-61 0 -84.5 38t-23.5 77q0 58 41.5 94t105.5 36q76 0 112 -50.5t36 -134.5t-38 -137.5t-124 -53.5q-76 0 -121 47l54 57q14 -16 30.5 -22.5t27.5 -6.5zM170 486q40 0 43 38q-5 58 -42 58q-41 0 -41 -48t40 -48z" />
    <glyph glyph-name="trademark" unicode="&#x2122;" horiz-adv-x="1092" 
d="M1050 570h-52v-263h44v-80h-182v80h34v141h-3l-103 -184h-42l-114 193h-2v-150h37v-80h-178v80h44v263h-52v80h138l150 -250h3l138 250h140v-80zM470 497l-80 -7l-13 80h-66v-263h69v-80h-237v80h64v263h-68l-14 -80l-79 7l14 153h396z" />
    <glyph glyph-name="uni2120" unicode="&#x2120;" horiz-adv-x="1003" 
d="M215 224q-43 0 -93.5 12.5t-76.5 35.5l14 111l73 -7l-3 -51q37 -18 74 -18q67 0 67 47q0 28 -22.5 39.5t-60.5 19.5q-27 6 -60 15t-56.5 32t-23.5 70q0 72 52.5 100.5t110.5 28.5q44 0 85 -13.5t62 -36.5l5 -96l-74 -7l-6 52q-18 12 -35 16t-34 4q-23 0 -38.5 -7.5
t-15.5 -29.5q0 -23 18 -31t49 -15t67.5 -19t62.5 -38t26 -78q0 -70 -50 -103t-117 -33zM403 307h44v263h-52v80h138l150 -250h3l138 250h140v-80h-52v-263h44v-80h-182v80h34v141h-3l-103 -184h-42l-114 193h-2v-150h37v-80h-178v80z" />
    <glyph glyph-name="registered" unicode="&#xae;" horiz-adv-x="561" 
d="M280 159q-104 0 -177 72.5t-73 177.5q0 104 73 177.5t178 73.5t177.5 -73.5t72.5 -177.5t-73.5 -177t-177.5 -73zM280 224q84 0 132.5 55t48.5 130t-47.5 130.5t-132.5 55.5t-133 -55.5t-48 -130.5q0 -76 48 -130.5t132 -54.5zM167 334h27v160h-27v48h122q104 0 104 -78
q0 -49 -49 -69l35 -61h29v-48h-73l-51 96h-28v-48h26v-48h-115v48zM275 427q30 0 40.5 9t10.5 26q0 32 -49 32h-21v-67h19z" />
    <glyph glyph-name="copyright" unicode="&#xa9;" horiz-adv-x="596" 
d="M566 261q0 -113 -78.5 -190.5t-189.5 -77.5t-189.5 77.5t-78.5 189.5t78 190.5t191 78.5t190 -78.5t77 -189.5zM496 261q0 82 -51.5 142t-145.5 60t-146.5 -60.5t-52.5 -142.5q0 -83 53 -142.5t145 -59.5q88 0 143 60t55 143zM409 156q-16 -16 -49.5 -27t-67.5 -11
q-56 0 -98.5 33t-42.5 109q0 64 38.5 106.5t105.5 42.5q40 0 68.5 -9.5t43.5 -23.5l8 -73l-52 -5l-7 41q-20 15 -57 15q-74 0 -74 -91q0 -49 21.5 -69t52.5 -20q36 0 57 14l7 46l52 -5z" />
    <glyph glyph-name="copyright.aalt" horiz-adv-x="767" 
d="M717 327q0 -92 -45 -167.5t-120.5 -120.5t-168.5 -45q-92 0 -167.5 45t-120.5 120.5t-45 167.5t45 167.5t120.5 120.5t167.5 45q93 0 168.5 -45t120.5 -120.5t45 -167.5zM647 324q0 113 -75.5 192t-190.5 79q-118 0 -189.5 -80t-71.5 -186q0 -111 77 -190.5t189 -79.5
q106 0 183.5 74.5t77.5 190.5zM529 186q-19 -22 -63 -36.5t-90 -14.5q-90 0 -142.5 54t-52.5 138q0 85 54 142t147 57q50 0 86 -15.5t55 -33.5l11 -91l-70 -6l-9 47q-33 25 -75 25q-99 0 -99 -123q0 -71 31.5 -95t73.5 -24q24 0 41.5 5t30.5 13l9 52l70 -7z" />
    <glyph glyph-name="uni2117" unicode="&#x2117;" horiz-adv-x="596" 
d="M298 -7q-111 0 -189.5 77.5t-78.5 189.5t78 190.5t191 78.5t190 -78.5t77 -189.5q0 -113 -78.5 -190.5t-189.5 -77.5zM298 58q88 0 143 60t55 143q0 82 -51.5 142t-145.5 60t-146.5 -60.5t-52.5 -142.5q0 -83 53 -142.5t145 -59.5zM189 172h31v183h-31v55h142
q118 0 118 -97q0 -51 -35 -75.5t-80 -24.5h-42v-41h44v-55h-147v55zM320 268q32 0 41.5 12t9.5 31q0 44 -49 44h-30v-87h28z" />
    <glyph glyph-name="uni2117.pnum_lnum" horiz-adv-x="767" 
d="M383 -6q-92 0 -167.5 45t-120.5 120.5t-45 167.5t45 167.5t120.5 120.5t167.5 45q93 0 168.5 -45t120.5 -120.5t45 -167.5t-45 -167.5t-120.5 -120.5t-168.5 -45zM383 59q109 0 186.5 74t77.5 194q0 109 -75 188.5t-189 79.5q-120 0 -191.5 -79.5t-71.5 -188.5
q0 -73 35.5 -133.5t95 -97.5t132.5 -37zM238 198h41v243h-41v74h190q75 0 116 -34.5t41 -95.5q0 -67 -47 -100t-107 -33h-56v-54h59v-75h-196v75zM413 325q41 0 54.5 16.5t13.5 42.5q0 28 -14 42.5t-52 14.5h-40v-116h38z" />
    <glyph glyph-name="uni267E" unicode="&#x267e;" horiz-adv-x="596" 
d="M298 -7q-111 0 -189.5 77.5t-78.5 189.5t78 190.5t191 78.5t190 -78.5t77 -189.5q0 -113 -78.5 -190.5t-189.5 -77.5zM298 58q88 0 143 60t55 143q0 82 -51.5 142t-145.5 60t-146.5 -60.5t-52.5 -142.5q0 -83 53 -142.5t145 -59.5zM377 158q-34 0 -51.5 20t-29.5 46
q-10 -26 -27.5 -46t-49.5 -20q-42 0 -64 32t-22 74q0 46 24 77.5t64 31.5q32 0 48.5 -21.5t26.5 -48.5q14 27 32 48.5t51 21.5q40 0 61 -31.5t21 -75.5q0 -46 -22 -77t-62 -31zM368 315q-22 0 -34.5 -15.5t-21.5 -37.5q8 -20 20 -33.5t33 -13.5q41 0 41 51q0 18 -8 33.5
t-30 15.5zM225 215q19 0 31.5 14.5t22.5 34.5q-9 21 -21 36t-32 15t-29.5 -16.5t-9.5 -35.5q0 -48 38 -48z" />
    <glyph glyph-name="uni267E.pnum_lnum" horiz-adv-x="767" 
d="M383 -6q-92 0 -167.5 45t-120.5 120.5t-45 167.5t45 167.5t120.5 120.5t167.5 45q93 0 168.5 -45t120.5 -120.5t45 -167.5t-45 -167.5t-120.5 -120.5t-168.5 -45zM383 59q109 0 186.5 74t77.5 194q0 109 -75 188.5t-189 79.5q-120 0 -191.5 -79.5t-71.5 -188.5
q0 -73 35.5 -133.5t95 -97.5t132.5 -37zM489 215q-43 0 -65.5 21t-37.5 49q-14 -28 -36 -49t-64 -21q-53 0 -81.5 34t-28.5 79q0 49 31 82.5t82 33.5q42 0 62.5 -23t34.5 -52q16 29 39.5 52t66.5 23q51 0 78 -33.5t27 -80.5q0 -49 -28.5 -82t-79.5 -33zM478 382
q-28 0 -44 -16.5t-28 -39.5q10 -21 25.5 -35.5t42.5 -14.5q53 0 53 54q0 20 -10.5 36t-38.5 16zM294 276q25 0 41 15t29 37q-12 22 -27 38t-41 16q-27 0 -39 -17t-12 -38q0 -51 49 -51z" />
    <glyph glyph-name="uni24CA" unicode="&#x24ca;" horiz-adv-x="596" 
d="M298 -7q-111 0 -189.5 77.5t-78.5 189.5t78 190.5t191 78.5t190 -78.5t77 -189.5q0 -113 -78.5 -190.5t-189.5 -77.5zM298 58q88 0 143 60t55 143q0 82 -51.5 142t-145.5 60t-146.5 -60.5t-52.5 -142.5q0 -83 53 -142.5t145 -59.5zM328 390h121v-53h-25v-111
q0 -45 -28 -83t-98 -38q-67 0 -95 35.5t-28 80.5v116h-24v53h124v-53h-31v-114q0 -26 12.5 -44.5t44.5 -18.5q59 0 59 66v111h-32v53z" />
    <glyph glyph-name="uni24CA.pnum_lnum" horiz-adv-x="767" 
d="M383 -6q-92 0 -167.5 45t-120.5 120.5t-45 167.5t45 167.5t120.5 120.5t167.5 45q93 0 168.5 -45t120.5 -120.5t45 -167.5t-45 -167.5t-120.5 -120.5t-168.5 -45zM383 59q109 0 186.5 74t77.5 194q0 109 -75 188.5t-189 79.5q-120 0 -191.5 -79.5t-71.5 -188.5
q0 -73 35.5 -133.5t95 -97.5t132.5 -37zM420 490h160v-70h-33v-147q0 -60 -37 -110t-130 -50q-88 0 -125 47t-37 107v153h-33v70h165v-70h-41v-151q0 -35 16.5 -59t58.5 -24t59.5 24.5t17.5 62.5v147h-41v70z" />
    <glyph glyph-name="Euro" unicode="&#x20ac;" horiz-adv-x="592" 
d="M30 277v75h63q23 78 83.5 127.5t160.5 49.5q66 0 115.5 -20t75.5 -43l13 -123l-108 -8l-12 70q-17 14 -35.5 18.5t-36.5 4.5q-87 0 -116 -76h131v-75h-144v-18q0 -19 1 -27h118v-75h-102q29 -64 117 -64q46 0 68 21l12 77l108 -8l-10 -125q-28 -28 -83.5 -47t-116.5 -19
q-92 0 -153 44t-84 121h-65v75h51v45h-51z" />
    <glyph glyph-name="Euro.aalt" horiz-adv-x="681" 
d="M29 349v88h76q22 85 89 154t204 69q83 0 136.5 -24.5t84.5 -53.5l16 -151l-109 -10l-14 86q-52 35 -120 35q-111 0 -143 -105h177v-88h-191v-25v-19t1 -18h160v-88h-142q35 -91 147 -91q37 0 64.5 8t46.5 19l14 97l109 -10l-13 -153q-32 -35 -96 -57t-134 -22
q-110 0 -183.5 56t-101.5 153h-78v88h63q-1 7 -1 15.5v16.5v15t1 15h-63z" />
    <glyph glyph-name="dollar" unicode="$" horiz-adv-x="491" 
d="M462 162q0 -74 -50 -116t-129 -51v-60h-64v58q-56 2 -103.5 17t-78.5 37l19 131l108 -8l-4 -59q14 -7 29.5 -11t29.5 -5v129h-1q-42 8 -82.5 20t-67 40.5t-26.5 84.5q0 84 56.5 118t120.5 40v66h64v-65q48 -4 86 -17t65 -32l13 -128l-108 -8l-12 69q-21 10 -44 13v-102
q29 -5 71.5 -19t75 -47t32.5 -95zM181 384q0 -31 38 -46v86q-38 -9 -38 -40zM323 147q0 39 -40 58v-107q40 11 40 49z" />
    <glyph glyph-name="dollar.lnum" horiz-adv-x="553" 
d="M523 197q0 -91 -56 -143.5t-155 -61.5v-73h-69v72q-61 3 -118 19.5t-92 47.5l20 161l107 -10l-1 -79q27 -14 47.5 -19t36.5 -6v177q-47 8 -94 23.5t-78.5 51t-31.5 105.5q0 99 62.5 144t141.5 52v81h69v-81q53 -5 100 -23.5t74 -46.5l6 -141l-107 -10l-9 76
q-31 20 -64 26v-147q41 -8 90.5 -24t85 -55t35.5 -116zM183 479q0 -29 17 -44.5t43 -24.5v129q-60 -10 -60 -60zM379 181q0 36 -19 55.5t-48 29.5v-158q31 4 49 20.5t18 52.5z" />
    <glyph glyph-name="cent" unicode="&#xa2;" horiz-adv-x="494" 
d="M466 168q-6 -56 -44.5 -109.5t-124.5 -65.5v-77h-69v76q-86 8 -141 64t-55 162q0 107 56 167.5t140 71.5v72h69v-71q31 -3 65.5 -12.5t68.5 -26.5l20 -137l-103 -11l-15 69q-19 6 -36 9v-249q51 12 61 88zM171 224q0 -98 57 -121v243q-26 -10 -41.5 -39t-15.5 -83z" />
    <glyph glyph-name="cent.lnum" horiz-adv-x="494" 
d="M466 268q-6 -56 -44.5 -109.5t-124.5 -65.5v-77h-69v75q-86 8 -141 64.5t-55 162.5q0 107 56 167.5t140 71.5v72h69v-71q31 -3 65.5 -12.5t68.5 -26.5l20 -137l-103 -11l-15 69q-19 6 -36 9v-249q51 12 61 88zM171 324q0 -98 57 -121v243q-26 -10 -41.5 -39t-15.5 -83z
" />
    <glyph glyph-name="sterling" unicode="&#xa3;" horiz-adv-x="495" 
d="M466 83q-8 -22 -48 -52.5t-104 -30.5h-272v96q34 20 42 48t8 68h-58v75h58v47q0 97 54 145.5t134 48.5q34 0 77 -11t71 -39l13 -117l-99 -8l-13 65q-14 7 -25 8.5t-18 1.5q-33 0 -49 -20.5t-16 -72.5v-48h141v-75h-141q-1 -32 -9.5 -61.5t-46.5 -52.5h123q45 0 72.5 11
t50.5 34z" />
    <glyph glyph-name="sterling.aalt" horiz-adv-x="572" 
d="M544 104q-10 -27 -55.5 -65.5t-119.5 -38.5h-328v111q47 27 57 66t10 92h-72v88h72v60q0 121 62.5 182t156.5 61q41 0 92 -13t84 -45l16 -151l-109 -10l-14 86q-16 8 -36 11.5t-35 3.5q-42 0 -62.5 -27.5t-20.5 -96.5v-61h181v-88h-181q0 -42 -10.5 -83.5t-58.5 -71.5
h169q53 0 85.5 15t57.5 44z" />
    <glyph glyph-name="florin" unicode="&#x192;" horiz-adv-x="365" 
d="M32 289h65l6 92q5 73 55.5 110.5t123.5 37.5q12 0 31 -1t35 -3v-86q-19 2 -35 4t-28 2q-41 0 -47 -18.5t-8 -47.5l-5 -90h97v-75h-101l-11 -196q-3 -47 -38.5 -88.5t-127.5 -41.5q-16 0 -45 4v84q15 -3 20 -3.5t14 -0.5q23 0 35 10t15 62l10 170h-61v75z" />
    <glyph glyph-name="florin.aalt" horiz-adv-x="429" 
d="M42 357h83l7 118q5 91 62.5 138t143.5 47q37 0 79 -5v-101q-23 3 -42 5t-34 2q-49 0 -62.5 -23.5t-15.5 -64.5l-7 -116h123v-88h-127l-13 -247q-3 -59 -41.5 -110.5t-142.5 -51.5q-20 0 -54 5v98q29 -5 44 -5q30 0 44.5 15t18.5 79l12 217h-78v88z" />
    <glyph glyph-name="yen" unicode="&#xa5;" horiz-adv-x="595" 
d="M264 423h-40l81 -117h5l80 117h-48v98h223v-98h-43l-99 -137h72v-67h-120l-10 -15v-14h130v-67h-130v-25h87v-98h-297v98h81v25h-129v67h129v16l-10 13h-119v67h69l-102 137h-45v98h235v-98z" />
    <glyph glyph-name="yen.aalt" horiz-adv-x="684" 
d="M658 536h-56l-126 -187h93v-78h-145l-11 -17v-25h156v-78h-156v-37h106v-114h-340v114h100v37h-157v78h157v26l-11 16h-146v78h92l-130 187h-58v114h269v-114h-54l109 -164h6l108 164h-62v114h256v-114z" />
    <glyph glyph-name="uni20B9" unicode="&#x20b9;" horiz-adv-x="539" 
d="M40 287h169q80 0 98 35h-267v72h268q-15 26 -79 29h-189v98h459v-98h-55q6 -18 7 -29h41v-72h-44q-10 -37 -35.5 -61.5t-60.5 -38.5l71 -124h62v-98h-149l-108 196h-188v91z" />
    <glyph glyph-name="uni20B9.pnum_lnum" horiz-adv-x="598" 
d="M34 354h197q56 0 85.5 13.5t39.5 39.5h-322v84h323q-18 42 -110 45h-213v114h533v-114h-75q10 -24 13 -45h52v-84h-54q-22 -94 -119 -131l88 -162h78v-114h-166l-129 248h-221v106z" />
    <glyph glyph-name="currency" unicode="&#xa4;" horiz-adv-x="478" 
d="M88 264q0 42 19 74l-80 80l48 47l78 -77q38 27 86 27q46 0 86 -27l78 77l48 -47l-80 -80q19 -35 19 -74q0 -43 -22 -79l83 -83l-48 -47l-83 82q-37 -24 -81 -24t-82 24l-82 -82l-48 47l83 83q-22 36 -22 79zM198 264q0 -21 12 -36t29 -15t29 15t12 36t-12 36t-29 15
t-29 -15t-12 -36z" />
    <glyph glyph-name="uni20A5" unicode="&#x20a5;" horiz-adv-x="908" 
d="M882 0h-189v254q0 58 -19.5 83t-57.5 25q-27 0 -44 -10l-43 -99v-156h60v-97h-171l-57 -130h-89l128 291v93q0 58 -19.5 83t-57.5 25q-47 0 -67 -30t-20 -77v-158h86v-97h-275v97h60v256h-59v98h188v-68q43 77 137 77q39 0 74 -15.5t56 -47.5l74 168h89l-49 -112
q21 7 50 7q61 0 108 -38t47 -118v-207h60v-97z" />
    <glyph glyph-name="lira" unicode="&#x20a4;" horiz-adv-x="576" 
d="M548 104q-10 -27 -55.5 -65.5t-119.5 -38.5h-328v111q32 19 45.5 43t18.5 55h-69v78h72v52h-72v78h72q0 121 62.5 182t156.5 61q41 0 92 -13t84 -45l16 -151l-109 -10l-14 86q-16 8 -36 11.5t-35 3.5q-42 0 -62.5 -27.5t-20.5 -96.5v-1h181v-78h-181v-52h181v-78h-186
q-5 -27 -19 -51t-45 -44h169q53 0 85.5 15t57.5 44z" />
    <glyph glyph-name="colonmonetary" unicode="&#x20a1;" horiz-adv-x="685" 
d="M558 689h89l-205 -571q26 8 43 17l14 97l109 -10l-13 -153q-26 -27 -82.5 -47t-114.5 -28l-23 -65h-89l22 63q-13 1 -34 5l-24 -68h-89l34 96q-73 39 -117 116t-44 180q0 143 85 241t227 98q20 0 38 -2.5t35 -6.5l14 38h89l-27 -74q13 -11 27 -26zM362 542
q-85 0 -134.5 -56t-49.5 -163q0 -118 62 -174l140 392q-6 1 -18 1zM458 511l-143 -398q9 -2 17.5 -3t17.5 -2l132 368q-9 20 -24 35z" />
    <glyph glyph-name="uni20A2" unicode="&#x20a2;" horiz-adv-x="661" 
d="M600 69q-32 -35 -102.5 -57t-140.5 -22q-139 0 -233 89.5t-94 234.5q0 76 32 156t105 135t196 55q83 0 143 -24.5t91 -53.5l16 -151l-109 -10l-14 86q-26 17 -63 26t-70 9q-84 0 -133.5 -56t-49.5 -163q0 -80 27.5 -128.5t74.5 -69.5v158h-65v98h184v-77q9 34 29.5 58
t59.5 24q36 0 73 -20l11 -118l-80 -9l-9 41q-17 9 -32 9q-42 0 -42 -44v-135q52 6 85 25l14 97l109 -10z" />
    <glyph glyph-name="dong" unicode="&#x20ab;" horiz-adv-x="550" 
d="M199 638h144v50h118v-50h50v-77h-50v-339h54v-77h-172v65q-17 -31 -51 -52t-89 -21q-80 0 -127 48.5t-47 131.5q0 79 45.5 135t137.5 56q50 0 82 -17t49 -44v114h-144v77zM249 424q-38 0 -65.5 -23.5t-27.5 -77.5q0 -51 25 -76t62 -25q47 0 73.5 31.5t26.5 71.5v9
q0 44 -26.5 67t-67.5 23zM64 87h423v-87h-423v87z" />
    <glyph glyph-name="franc" unicode="&#x20a3;" horiz-adv-x="800" 
d="M244 536v-142h309v-87q11 39 35.5 65.5t70.5 26.5q19 0 42.5 -5.5t46.5 -19.5l21 -158l-98 -11l-18 77q-19 12 -35 12q-22 0 -38.5 -17t-16.5 -50v-129h80v-98h-269v98h60v183h-190v-167h96v-114h-300v114h70v422h-70v114h488l20 -200l-114 -10l-20 96h-170z" />
    <glyph glyph-name="uni20A6" unicode="&#x20a6;" horiz-adv-x="783" 
d="M746 536h-70v-107h69v-78h-69v-42h69v-78h-69v-231l-75 -1l-196 232h-157v-117h90v-114h-285v114h70v117h-80v78h80v42h-80v78h80v107h-81v114h177l188 -221h144v107h-94v114h289v-114zM248 351v-42h91l-36 42h-55zM473 351l35 -42h43v42h-78z" />
    <glyph glyph-name="peseta" unicode="&#x20a7;" horiz-adv-x="1434" 
d="M583 438q0 -111 -72.5 -165.5t-168.5 -54.5h-100v-104h100v-114h-304v114h70v422h-70v114h298q121 0 184 -57t63 -155zM990 140q-10 -78 -54 -114t-114 -36q-75 0 -121.5 37.5t-46.5 107.5v224h-64v92h64v137h129v-137h162v-92h-162v-202q0 -59 54 -59q12 0 32.5 10.5
t26.5 60.5zM439 436q0 48 -26.5 74t-93.5 26h-77v-205h75q69 0 95.5 29t26.5 76zM1404 138q0 -75 -60 -111.5t-154 -36.5q-49 0 -98.5 10.5t-94.5 33.5l18 126l100 -11v-56q18 -6 37.5 -7.5t30.5 -1.5q37 0 64 12t27 36q0 29 -41 38t-95 18t-95 37t-41 95q0 83 64.5 111.5
t133.5 28.5q90 0 169 -41l11 -115l-100 -11l-8 63q-33 11 -71 11q-25 0 -42.5 -10.5t-17.5 -32.5q0 -29 39.5 -38.5t92 -18.5t92 -36.5t39.5 -92.5z" />
    <glyph glyph-name="uni20A8" unicode="&#x20a8;" horiz-adv-x="1008" 
d="M776 362q-20 0 -40 -8t-20 -30q0 -31 39.5 -41t92 -18.5t92 -34.5t39.5 -88q0 -67 -59 -109.5t-184 -42.5q-115 0 -219.5 45.5t-159.5 158.5l-27 54h-86v-134h70v-114h-274v114h70v422h-70v114h294q120 0 185.5 -49.5t65.5 -142.5q0 -70 -34.5 -115.5t-90.5 -66.5l28 -54
q30 -58 78 -86.5t98.5 -38t86.5 -9.5q43 0 70.5 10t27.5 34q0 25 -27.5 35t-68 15.5t-81 17t-68 38.5t-27.5 81q0 57 30.5 87.5t76.5 42t91 11.5q90 0 169 -41l11 -115l-100 -11l-8 56q-39 13 -71 13zM308 354q76 0 104.5 25t28.5 71q0 49 -28.5 67.5t-102.5 18.5h-66v-182
h64z" />
    <glyph glyph-name="uni20AA" unicode="&#x20aa;" horiz-adv-x="802" 
d="M71 0v650h253q98 0 151.5 -22.5t74 -79t20.5 -159.5v-145h-132v150q0 70 -8 100.5t-32.5 38.5t-75.5 8h-118v-541h-133zM386 109h138q72 0 84 47t12 120v374h132v-369q0 -103 -16.5 -164.5t-65.5 -89t-147 -27.5h-269v406h132v-297z" />
    <glyph glyph-name="uni20A9" unicode="&#x20a9;" horiz-adv-x="1030" 
d="M1002 536h-52l-16 -47h49v-88h-78l-14 -42h92v-88h-122l-90 -271h-95l-99 271h-111l-94 -271h-97l-96 271h-130v88h98l-15 42h-83v88h52l-16 47h-56v114h259v-114h-60l14 -47h187l18 47h-51v114h259v-114h-46l17 -47h177l13 47h-70v114h256v-114zM269 401l13 -42h99
l16 42h-128zM657 401l15 -42h96l12 42h-123zM511 401l-15 -42h49l-15 42h-19zM724 216h6l15 55h-41zM325 222h6l18 49h-39z" />
    <glyph glyph-name="uni20AD" unicode="&#x20ad;" horiz-adv-x="697" 
d="M62 274v109h49v153h-70v114h262v-114h-58v-153h82l115 153h-56v114h270v-114h-73l-122 -153h106v-109h-88l121 -160h67v-114h-283v114h60l-119 160h-80v-160h55v-114h-259v114h70v160h-49z" />
    <glyph glyph-name="uni20AE" unicode="&#x20ae;" horiz-adv-x="664" 
d="M636 430l-114 -10l-20 116h-103v-106l93 23v-90l-93 -23v-30l93 23v-90l-93 -23v-106h106v-114h-340v114h100v73l-86 -21v90l86 21v30l-86 -21v90l86 21v139h-103l-20 -116l-114 10l20 220h568z" />
    <glyph glyph-name="uni20B1" unicode="&#x20b1;" horiz-adv-x="666" 
d="M53 443v68h65v25h-70v114h298q96 0 156 -37t80 -102h57v-68h-46v-5q0 -12 -1 -17h47v-68h-61q-26 -68 -88.5 -101.5t-137.5 -33.5h-100v-104h100v-114h-304v114h70v239h-65v68h65v22h-65zM252 536v-25h169q-30 25 -92 25h-77zM449 436v7h-197v-22h196q1 5 1 15zM327 331
q57 0 87 22h-162v-22h75z" />
    <glyph glyph-name="uni20B4" unicode="&#x20b4;" horiz-adv-x="611" 
d="M28 355v55h335q38 26 38 67q0 37 -26.5 51t-69.5 14q-19 0 -41.5 -3.5t-58.5 -15.5l-17 -86l-103 11l22 173q47 13 105 26t118 13q80 0 147.5 -35.5t67.5 -134.5q0 -47 -19 -80h54v-55h-109q-23 -13 -49 -22t-53 -17h211v-54h-342q-33 -30 -33 -77q0 -33 22 -55t86 -22
q37 0 65.5 8t47.5 19l14 87l109 -10l-13 -143q-32 -35 -97 -57t-135 -22q-91 0 -167 44.5t-76 141.5q0 51 20 86h-53v54h105q19 13 41 22.5t44 16.5h-190z" />
    <glyph glyph-name="uni20BA" unicode="&#x20ba;" horiz-adv-x="605" 
d="M52 247l71 30v40l-71 -30v80l71 30v139h-70v114h284v-114h-80v-81l160 69v-80l-160 -69v-40l160 69v-80l-160 -69v-141h20q77 0 124.5 46.5t47.5 173.5h131q0 -159 -75 -246.5t-228 -87.5h-224v114h70v83l-71 -30v80z" />
    <glyph glyph-name="uni20BD" unicode="&#x20bd;" horiz-adv-x="623" 
d="M52 114h70v31h-70v69h70v34h-70v113h70v175h-70v114h298q247 0 247 -198q0 -111 -72.5 -157.5t-168.5 -46.5h-100v-34h239v-69h-239v-31h100v-114h-304v114zM331 361q69 0 95.5 19t26.5 66q0 48 -26.5 69t-93.5 21h-77v-175h75z" />
    <glyph glyph-name="onehalf" unicode="&#xbd;" horiz-adv-x="785" 
d="M592 650l-191 -325l-181 -325h-88l198 337l174 313h88zM34 361h73v214h-73v75h174v-289h65v-75h-239v75zM528 239l-77 6l14 99q27 11 63 18.5t73 7.5q79 0 111 -32t32 -66q0 -41 -33 -79t-75 -68.5t-69 -49.5h105l12 55l81 -10l-10 -120h-303l-9 70q41 31 85 65
t74.5 66.5t30.5 57.5q0 36 -49 36q-25 0 -46 -11z" />
    <glyph glyph-name="onequarter" unicode="&#xbc;" horiz-adv-x="744" 
d="M592 650l-191 -325l-181 -325h-88l198 337l174 313h88zM36 361h73v214h-73v75h174v-289h65v-75h-239v75zM560 0v65h-165l-10 73l106 226h170v-221h58l-7 -78h-51v-65h-101zM544 289l-71 -146h87v146h-16z" />
    <glyph glyph-name="threequarters" unicode="&#xbe;" horiz-adv-x="776" 
d="M116 534l-77 6l13 95q27 12 64 18.5t68 6.5q64 0 98 -27t34 -66q0 -53 -61 -81v-2q39 -10 56 -35t17 -56q0 -52 -44 -80.5t-114 -28.5q-52 0 -89 22.5t-48 76.5l73 25q16 -45 59 -45q54 0 54 44q0 25 -23.5 34t-55.5 11v56q26 2 46.5 8t20.5 35q0 34 -40 34
q-23 0 -42 -10zM619 650l-191 -325l-181 -325h-88l198 337l174 313h88zM592 0v65h-165l-10 73l106 226h170v-221h58l-7 -78h-51v-65h-101zM576 289l-71 -146h87v146h-16z" />
    <glyph glyph-name="onethird" unicode="&#x2153;" horiz-adv-x="785" 
d="M599 650l-191 -325l-181 -325h-88l198 337l174 313h88zM35 361h73v214h-73v75h174v-289h65v-75h-239v75zM547 243l-77 6l13 95q27 12 64 18.5t68 6.5q65 0 98.5 -27t33.5 -66q0 -53 -61 -81v-2q39 -10 56 -35t17 -56q0 -52 -44 -80.5t-114 -28.5q-53 0 -90 22.5t-47 76.5
l73 25q16 -45 59 -45q54 0 54 44q0 26 -23.5 35t-55.5 10v56q25 1 46 8t21 35q0 34 -40 34q-23 0 -42 -10z" />
    <glyph glyph-name="twothirds" unicode="&#x2154;" horiz-adv-x="842" 
d="M115 529l-77 6l14 99q27 11 63 18.5t73 7.5q79 0 111 -32t32 -66q0 -41 -33 -79t-75.5 -68.5t-68.5 -49.5h105l12 55l81 -10l-10 -120h-303l-9 70q40 31 84.5 65t75 66.5t30.5 57.5q0 36 -49 36q-25 0 -46 -11zM659 650l-191 -325l-181 -325h-88l198 337l174 313h88z
M603 243l-77 6l13 95q27 12 64 18.5t68 6.5q65 0 98.5 -27t33.5 -66q0 -53 -61 -81v-2q39 -10 56 -35t17 -56q0 -52 -44 -80.5t-114 -28.5q-53 0 -90 22.5t-47 76.5l73 25q16 -45 59 -45q54 0 54 44q0 26 -23.5 35t-55.5 10v56q25 1 46 8t21 35q0 34 -40 34q-23 0 -42 -10z
" />
    <glyph glyph-name="uni215B" unicode="&#x215b;" horiz-adv-x="758" 
d="M600 650l-191 -325l-181 -325h-88l198 337l174 313h88zM35 361h73v214h-73v75h174v-289h65v-75h-239v75zM577 -6q-64 0 -104 24.5t-40 71.5q0 36 21.5 54.5t50.5 31.5q-27 15 -46 36.5t-19 55.5q0 46 39 74t103 28q62 0 99 -25t37 -66q0 -30 -18 -47t-43 -29
q29 -16 52 -39.5t23 -62.5q0 -53 -44 -80t-111 -27zM549 275q0 -15 16 -26t39 -21q13 15 13 36q0 23 -12.5 29t-22.5 6q-33 0 -33 -24zM581 65q24 0 33 9.5t9 19.5q0 20 -21 33t-49 26q-19 -17 -19 -43q0 -18 10 -31.5t37 -13.5z" />
    <glyph glyph-name="threesup_fraction_eightinf" horiz-adv-x="778" 
d="M116 534l-77 6l13 95q27 12 64 18.5t68 6.5q64 0 98 -27t34 -66q0 -53 -61 -81v-2q39 -10 56 -35t17 -56q0 -52 -44 -80.5t-114 -28.5q-52 0 -89 22.5t-48 76.5l73 25q16 -45 59 -45q54 0 54 44q0 25 -23.5 34t-55.5 11v56q26 2 46.5 8t20.5 35q0 34 -40 34
q-23 0 -42 -10zM619 650l-191 -325l-181 -325h-88l198 337l174 313h88zM597 -6q-64 0 -104 24.5t-40 71.5q0 36 21.5 54.5t50.5 31.5q-27 15 -46 36.5t-19 55.5q0 46 39 74t103 28q62 0 99 -25t37 -66q0 -30 -18 -47t-43 -29q29 -16 52 -39.5t23 -62.5q0 -53 -44 -80
t-111 -27zM569 275q0 -15 16 -26t39 -21q13 15 13 36q0 23 -12.5 29t-22.5 6q-33 0 -33 -24zM601 65q24 0 33 9.5t9 19.5q0 20 -21 33t-49 26q-19 -17 -19 -43q0 -18 10 -31.5t37 -13.5z" />
    <glyph glyph-name="fivesup_fraction_eightinf" horiz-adv-x="777" 
d="M325 400q0 -57 -44 -89t-114 -32q-53 0 -90 22.5t-47 76.5l73 25q16 -45 59 -45q54 0 54 44q0 28 -20.5 36.5t-49.5 8.5q-16 0 -31 -1t-29 -2l-31 26v180h240l10 -108l-84 -8l-7 41h-66v-57h18q64 0 111.5 -24t47.5 -94zM615 650l-191 -325l-181 -325h-88l198 337
l174 313h88zM596 -6q-64 0 -104 24.5t-40 71.5q0 36 21.5 54.5t50.5 31.5q-27 15 -46 36.5t-19 55.5q0 46 38.5 74t103.5 28q61 0 98.5 -25t37.5 -66q0 -30 -18 -47t-43 -29q29 -16 52 -39.5t23 -62.5q0 -53 -44 -80t-111 -27zM568 275q0 -15 16 -26t39 -21q13 15 13 36
q0 23 -12 29t-23 6q-33 0 -33 -24zM600 65q24 0 33 9.5t9 19.5q0 20 -21 33t-49 26q-19 -17 -19 -43q0 -18 10 -31.5t37 -13.5z" />
    <glyph glyph-name="sevensup_fraction_eightinf" horiz-adv-x="753" 
d="M28 650h283l11 -40l-132 -325h-99l122 291h-98v-61h-87v135zM567 650l-191 -325l-181 -325h-88l198 337l174 313h88zM572 -6q-64 0 -104 24.5t-40 71.5q0 36 21.5 54.5t50.5 31.5q-27 15 -46 36.5t-19 55.5q0 46 38.5 74t103.5 28q61 0 98.5 -25t37.5 -66q0 -30 -18 -47
t-43 -29q29 -16 52 -39.5t23 -62.5q0 -53 -44 -80t-111 -27zM544 275q0 -15 16 -26t39 -21q13 15 13 36q0 23 -12 29t-23 6q-33 0 -33 -24zM576 65q24 0 33 9.5t9 19.5q0 20 -21 33t-49 26q-19 -17 -19 -43q0 -18 10 -31.5t37 -13.5z" />
    <glyph glyph-name="fraction" unicode="&#x2044;" horiz-adv-x="160" 
d="M310 650l-191 -325l-181 -325h-88l198 337l174 313h88z" />
    <glyph glyph-name="uni0061.sc" horiz-adv-x="590" 
d="M15 98h47l153 325h-74v98h198l198 -423h50v-98h-226v98h38l-17 45h-173l-17 -45h45v-98h-222v98zM294 358l-53 -133h109l-51 133h-5z" />
    <glyph glyph-name="uni0062.sc" horiz-adv-x="543" 
d="M333 521q73 0 120 -33.5t47 -88.5q0 -40 -26 -70.5t-75 -37.5v-3q61 -9 90 -45.5t29 -87.5q0 -62 -43.5 -108.5t-138.5 -46.5h-297v98h55v325h-55v98h294zM287 310q47 0 60.5 17.5t13.5 39.5q0 35 -19 45.5t-44 10.5h-75v-113h64zM301 98q79 0 79 62q0 61 -75 61h-82
v-123h78z" />
    <glyph glyph-name="uni0063.sc" horiz-adv-x="555" 
d="M507 58q-28 -28 -90.5 -47t-123.5 -19q-118 0 -193.5 72.5t-75.5 191.5q0 115 73 194t201 79q66 0 123 -20t82 -43l13 -123l-108 -8l-12 70q-34 23 -87 23q-65 0 -105.5 -42t-40.5 -127q0 -90 43 -128t103 -38q30 0 51.5 6t36.5 15l12 77l108 -8z" />
    <glyph glyph-name="uni0064.sc" horiz-adv-x="599" 
d="M291 521q143 0 213 -71t70 -187q0 -119 -73 -191t-202 -72h-260v98h55v325h-55v98h252zM288 98q70 0 108.5 38t38.5 126q0 161 -147 161h-65v-325h65z" />
    <glyph glyph-name="uni0065.sc" horiz-adv-x="516" 
d="M470 0h-431v98h55v325h-55v98h433l16 -150l-109 -11l-10 63h-146v-113h222v-97h-222v-115h144l10 64l113 -10z" />
    <glyph glyph-name="uni0066.sc" horiz-adv-x="492" 
d="M472 361l-113 -10l-11 72h-125v-136h223v-98h-223v-91h87v-98h-271v98h55v325h-55v98h413z" />
    <glyph glyph-name="uni0067.sc" horiz-adv-x="585" 
d="M425 50q-25 -26 -62.5 -42t-88.5 -16q-116 0 -183 75.5t-67 187.5q0 115 73.5 194.5t201.5 79.5q63 0 123 -18.5t86 -44.5l13 -123l-110 -8l-12 69q-36 24 -89 24q-147 0 -147 -166q0 -89 39.5 -129t97.5 -40q48 0 77 24.5t29 72.5v4h-99v97h251v-97h-22v-194h-99z" />
    <glyph glyph-name="uni0068.sc" horiz-adv-x="654" 
d="M38 98h56v325h-56v98h240v-98h-55v-110h208v110h-56v98h240v-98h-55v-325h55v-98h-240v98h56v117h-208v-117h55v-98h-240v98z" />
    <glyph glyph-name="uni0131.aalt" horiz-adv-x="317" 
d="M38 98h56v325h-56v98h240v-98h-55v-325h55v-98h-240v98z" />
    <glyph glyph-name="uni006A.sc" horiz-adv-x="428" 
d="M131 521h268v-98h-48v-272q0 -80 -51 -119.5t-128 -39.5q-75 0 -112 31t-55 71l90 61q13 -36 33 -46t38 -10q56 0 56 51v273h-91v98z" />
    <glyph glyph-name="uni006B.sc" horiz-adv-x="589" 
d="M322 98h51l-92 118h-58v-118h40v-98h-225v98h56v325h-56v98h228v-98h-43v-113h60l89 113h-46v98h238v-98h-58l-125 -150l139 -175h53v-98h-251v98z" />
    <glyph glyph-name="uni006C.sc" horiz-adv-x="487" 
d="M453 0h-414v98h55v325h-55v98h256v-98h-72v-325h124l13 98l113 -10z" />
    <glyph glyph-name="uni006D.sc" horiz-adv-x="774" 
d="M40 98h56v325h-66v98h173l192 -303h3l171 303h175v-98h-66v-325h56v-98h-228v98h43v176h-3l-131 -229h-52l-144 234h-3v-181h48v-98h-224v98z" />
    <glyph glyph-name="uni006E.sc" horiz-adv-x="659" 
d="M378 521h253v-98h-55v-423l-71 -1l-285 318h-4v-219h72v-98h-249v98h57v325h-66v98h158l264 -294h4v196h-78v98z" />
    <glyph glyph-name="uni006F.sc" horiz-adv-x="609" 
d="M306 529q134 0 206.5 -78.5t72.5 -188.5q0 -111 -73.5 -190.5t-209.5 -79.5q-137 0 -207.5 79.5t-70.5 188.5q0 115 75.5 192t206.5 77zM308 93q70 0 103.5 45.5t33.5 118.5q0 171 -141 171q-70 0 -105 -46.5t-35 -119.5q0 -68 33.5 -118.5t110.5 -50.5z" />
    <glyph glyph-name="uni0070.sc" horiz-adv-x="524" 
d="M39 98h55v325h-55v98h256q101 0 157 -45.5t56 -125.5q0 -91 -63.5 -134.5t-144.5 -43.5h-77v-74h81v-98h-265v98zM275 269q57 0 75.5 21.5t18.5 56.5q0 37 -19.5 56.5t-71.5 19.5h-55v-154h52z" />
    <glyph glyph-name="uni0071.sc" horiz-adv-x="613" 
d="M306 529q134 0 206.5 -78.5t72.5 -188.5q0 -111 -70 -187l57 -55l-72 -71l-69 67q-55 -24 -129 -24q-137 0 -207.5 79.5t-70.5 188.5q0 115 75.5 192t206.5 77zM277 167l72 71l77 -76q19 38 19 95q0 171 -141 171q-70 0 -105 -46.5t-35 -119.5q0 -68 33.5 -118.5
t110.5 -50.5q24 0 40 4z" />
    <glyph glyph-name="uni0072.sc" horiz-adv-x="553" 
d="M39 98h55v325h-55v98h250q102 0 160 -39.5t58 -115.5q0 -55 -28.5 -91t-73.5 -53l71 -124h62v-98h-149l-108 196h-58v-98h54v-98h-238v98zM262 287q63 0 84.5 18.5t21.5 53.5q0 37 -22 50.5t-81 13.5h-42v-136h39z" />
    <glyph glyph-name="uni0073.sc" horiz-adv-x="491" 
d="M461 162q0 -83 -63.5 -126.5t-160.5 -43.5q-62 0 -114.5 16t-86.5 39l19 131l108 -8l-4 -59q20 -11 42.5 -14t39.5 -3q47 0 64 15t17 38q0 40 -33.5 55t-71.5 22q-41 8 -82 20t-67.5 40.5t-26.5 84.5q0 65 34.5 99.5t84.5 47.5t96 13q58 0 102.5 -14.5t74.5 -35.5
l13 -128l-108 -8l-12 69q-21 10 -41 13t-34 3q-25 0 -48 -9t-23 -35q0 -28 26 -40t59 -18q25 -4 71.5 -16.5t85.5 -46t39 -101.5z" />
    <glyph glyph-name="uni0074.sc" horiz-adv-x="566" 
d="M554 333l-113 -10l-13 100h-81v-325h87v-98h-297v98h81v325h-80l-13 -100l-114 10l20 188h503z" />
    <glyph glyph-name="uni0075.sc" 
d="M364 521h227v-98h-47v-207q0 -83 -53 -153.5t-186 -70.5q-125 0 -178 65.5t-53 149.5v216h-46v98h235v-98h-60v-212q0 -50 23.5 -84t85.5 -34q61 0 86.5 34.5t25.5 88.5v207h-60v98z" />
    <glyph glyph-name="uni0076.sc" horiz-adv-x="586" 
d="M242 423h-45l102 -244h5l97 244h-45v98h223v-98h-48l-194 -423h-88l-193 423h-49v98h235v-98z" />
    <glyph glyph-name="uni0077.sc" horiz-adv-x="848" 
d="M835 423h-42l-153 -423h-89l-124 323h-4l-118 -323h-91l-162 423h-46v98h227v-98h-45l73 -231h6l91 231h-42v98h227v-98h-36l89 -236h6l63 236h-54v98h224v-98z" />
    <glyph glyph-name="uni0078.sc" horiz-adv-x="583" 
d="M569 0h-233v98h31l-81 92l-74 -92h42v-98h-242v98h59l150 168l-147 157h-48v98h230v-98h-31l74 -80l67 80h-36v98h225v-98h-47l-144 -155l158 -170h47v-98z" />
    <glyph glyph-name="uni0079.sc" horiz-adv-x="549" 
d="M539 423h-43l-157 -218v-107h87v-98h-297v98h81v108l-162 217h-45v98h235v-98h-40l81 -117h5l80 117h-48v98h223v-98z" />
    <glyph glyph-name="uni007A.sc" horiz-adv-x="514" 
d="M469 0h-443l-3 59l263 363v1h-126l-12 -87l-114 10l20 175h422l2 -51l-268 -371v-1h153l13 95l113 -10z" />
    <glyph glyph-name="uni00E6.aalt" horiz-adv-x="800" 
d="M757 0h-434v98h55v45h-167l-21 -45h39v-98h-222v98h51l172 325h-68v98h595l16 -150l-109 -11l-10 63h-147v-113h222v-97h-222v-115h145l10 64l113 -10zM378 225v198h-31l-96 -198h127z" />
    <glyph glyph-name="oe.aalt" horiz-adv-x="854" 
d="M816 0h-384v20q-24 -13 -55 -20.5t-71 -7.5q-134 0 -208.5 79.5t-74.5 188.5q0 115 79.5 192t203.5 77q40 0 70.5 -8t55.5 -21v21h386l16 -150l-109 -11l-10 63h-154v-113h222v-97h-222v-115h152l10 64l113 -10zM432 137v244q-49 47 -120 47q-75 0 -112 -47t-37 -117
q0 -63 33.5 -117t119.5 -54q82 0 116 44z" />
    <glyph glyph-name="eth.aalt" horiz-adv-x="601" 
d="M45 314h51v109h-55v98h252q143 0 213 -71t70 -187q0 -119 -73 -191t-202 -72h-260v98h55v121h-51v95zM290 98q70 0 108.5 38t38.5 126q0 161 -147 161h-65v-109h100v-95h-100v-121h65z" />
    <glyph glyph-name="uni00E1.aalt" horiz-adv-x="590" 
d="M488 648l-195 -91l-34 49l162 143zM15 98h47l153 325h-74v98h198l198 -423h50v-98h-226v98h38l-17 45h-173l-17 -45h45v-98h-222v98zM294 358l-53 -133h109l-51 133h-5z" />
    <glyph glyph-name="uni0103.aalt" horiz-adv-x="590" 
d="M437 701q0 -71 -39.5 -104.5t-102.5 -33.5q-137 0 -137 138h102q0 -61 37 -61q21 0 29.5 18.5t8.5 42.5h102zM15 98h47l153 325h-74v98h198l198 -423h50v-98h-226v98h38l-17 45h-173l-17 -45h45v-98h-222v98zM294 358l-53 -133h109l-51 133h-5z" />
    <glyph glyph-name="uni00E2.aalt" horiz-adv-x="590" 
d="M459 606l-34 -49l-135 67l-112 -68l-35 51l135 126h45zM15 98h47l153 325h-74v98h198l198 -423h50v-98h-226v98h38l-17 45h-173l-17 -45h45v-98h-222v98zM294 358l-53 -133h109l-51 133h-5z" />
    <glyph glyph-name="uni00E4.aalt" horiz-adv-x="590" 
d="M132 583v134h129v-134h-129zM317 583v134h129v-134h-129zM15 98h47l153 325h-74v98h198l198 -423h50v-98h-226v98h38l-17 45h-173l-17 -45h45v-98h-222v98zM294 358l-53 -133h109l-51 133h-5z" />
    <glyph glyph-name="uni00E0.aalt" horiz-adv-x="590" 
d="M346 609l-34 -49l-195 91l67 101zM15 98h47l153 325h-74v98h198l198 -423h50v-98h-226v98h38l-17 45h-173l-17 -45h45v-98h-222v98zM294 358l-53 -133h109l-51 133h-5z" />
    <glyph glyph-name="uni0101.aalt" horiz-adv-x="590" 
d="M422 587h-268v98h268v-98zM15 98h47l153 325h-74v98h198l198 -423h50v-98h-226v98h38l-17 45h-173l-17 -45h45v-98h-222v98zM294 358l-53 -133h109l-51 133h-5z" />
    <glyph glyph-name="uni0105.aalt" horiz-adv-x="590" 
d="M15 98h47l153 325h-74v98h198l198 -423h50v-98h-46q-28 -18 -36.5 -37t-8.5 -36q0 -25 12.5 -33.5t29.5 -8.5q24 0 44 11l9 -79q-17 -7 -38 -13t-49 -6q-46 0 -79.5 21t-33.5 67q0 38 21 67t52 47h-103v98h38l-17 45h-173l-17 -45h45v-98h-222v98zM294 358l-53 -133h109
l-51 133h-5z" />
    <glyph glyph-name="uni00E5.aalt" horiz-adv-x="590" 
d="M405 650q0 -41 -25.5 -67.5t-80.5 -26.5q-53 0 -78 25t-25 66q0 42 26 67.5t80 25.5q55 0 79 -25.5t24 -64.5zM325 652q0 10 -3.5 19t-20.5 9q-25 0 -25 -33q0 -31 24 -31q25 0 25 36zM15 98h47l153 325h-74v98h198l198 -423h50v-98h-226v98h38l-17 45h-173l-17 -45h45
v-98h-222v98zM294 358l-53 -133h109l-51 133h-5z" />
    <glyph glyph-name="uni00E3.aalt" horiz-adv-x="590" 
d="M441 698q0 -44 -16.5 -87t-66.5 -43q-38 0 -66.5 20.5t-58.5 20.5q-33 0 -45 -43l-50 16q-2 19 6 48.5t27 52.5t52 23q34 0 62.5 -19t54.5 -19q34 0 47 41zM15 98h47l153 325h-74v98h198l198 -423h50v-98h-226v98h38l-17 45h-173l-17 -45h45v-98h-222v98zM294 358
l-53 -133h109l-51 133h-5z" />
    <glyph glyph-name="uni0107.aalt" horiz-adv-x="555" 
d="M449 648l-195 -91l-34 49l162 143zM507 58q-28 -28 -90.5 -47t-123.5 -19q-118 0 -193.5 72.5t-75.5 191.5q0 115 73 194t201 79q66 0 123 -20t82 -43l13 -123l-108 -8l-12 70q-34 23 -87 23q-65 0 -105.5 -42t-40.5 -127q0 -90 43 -128t103 -38q30 0 51.5 6t36.5 15
l12 77l108 -8z" />
    <glyph glyph-name="uni010D.aalt" horiz-adv-x="555" 
d="M452 684l-135 -126h-45l-136 127l34 49l135 -67l112 68zM507 58q-28 -28 -90.5 -47t-123.5 -19q-118 0 -193.5 72.5t-75.5 191.5q0 115 73 194t201 79q66 0 123 -20t82 -43l13 -123l-108 -8l-12 70q-34 23 -87 23q-65 0 -105.5 -42t-40.5 -127q0 -90 43 -128t103 -38
q30 0 51.5 6t36.5 15l12 77l108 -8z" />
    <glyph glyph-name="uni00E7.aalt" horiz-adv-x="554" 
d="M444 -128q0 -50 -41 -69t-89 -19q-79 0 -116 30l23 70q11 -8 30.5 -15.5t47.5 -7.5q36 0 36 21q0 10 -7.5 17.5t-31.5 7.5h-37v87q-104 10 -169.5 81t-65.5 181q0 115 73 194t201 79q66 0 123 -20t82 -43l13 -123l-108 -8l-12 70q-34 23 -87 23q-65 0 -105.5 -42
t-40.5 -127q0 -90 43 -128t103 -38q30 0 51.5 6t36.5 15l12 77l108 -8l-10 -125q-22 -22 -66.5 -39t-93.5 -23v-44h8q50 0 69.5 -25.5t19.5 -54.5z" />
    <glyph glyph-name="uni0109.aalt" horiz-adv-x="555" 
d="M462 606l-34 -49l-135 67l-112 -68l-35 51l135 126h45zM507 58q-28 -28 -90.5 -47t-123.5 -19q-118 0 -193.5 72.5t-75.5 191.5q0 115 73 194t201 79q66 0 123 -20t82 -43l13 -123l-108 -8l-12 70q-34 23 -87 23q-65 0 -105.5 -42t-40.5 -127q0 -90 43 -128t103 -38
q30 0 51.5 6t36.5 15l12 77l108 -8z" />
    <glyph glyph-name="uni010B.aalt" horiz-adv-x="555" 
d="M237 582v134h129v-134h-129zM507 58q-28 -28 -90.5 -47t-123.5 -19q-118 0 -193.5 72.5t-75.5 191.5q0 115 73 194t201 79q66 0 123 -20t82 -43l13 -123l-108 -8l-12 70q-34 23 -87 23q-65 0 -105.5 -42t-40.5 -127q0 -90 43 -128t103 -38q30 0 51.5 6t36.5 15l12 77
l108 -8z" />
    <glyph glyph-name="uni010F.aalt" horiz-adv-x="599" 
d="M440 684l-135 -126h-45l-136 127l34 49l135 -67l112 68zM291 521q143 0 213 -71t70 -187q0 -119 -73 -191t-202 -72h-260v98h55v325h-55v98h252zM288 98q70 0 108.5 38t38.5 126q0 161 -147 161h-65v-325h65z" />
    <glyph glyph-name="uni0111.aalt" horiz-adv-x="601" 
d="M45 314h51v109h-55v98h252q143 0 213 -71t70 -187q0 -119 -73 -191t-202 -72h-260v98h55v121h-51v95zM290 98q70 0 108.5 38t38.5 126q0 161 -147 161h-65v-109h100v-95h-100v-121h65z" />
    <glyph glyph-name="uni00E9.sc" horiz-adv-x="516" 
d="M449 648l-195 -91l-34 49l162 143zM470 0h-431v98h55v325h-55v98h433l16 -150l-109 -11l-10 63h-146v-113h222v-97h-222v-115h144l10 64l113 -10z" />
    <glyph glyph-name="uni0115.aalt" horiz-adv-x="516" 
d="M431 701q0 -71 -39.5 -104.5t-102.5 -33.5q-137 0 -137 138h102q0 -61 37 -61q21 0 29.5 18.5t8.5 42.5h102zM470 0h-431v98h55v325h-55v98h433l16 -150l-109 -11l-10 63h-146v-113h222v-97h-222v-115h144l10 64l113 -10z" />
    <glyph glyph-name="uni011B.aalt" horiz-adv-x="516" 
d="M447 684l-135 -126h-45l-136 127l34 49l135 -67l112 68zM470 0h-431v98h55v325h-55v98h433l16 -150l-109 -11l-10 63h-146v-113h222v-97h-222v-115h144l10 64l113 -10z" />
    <glyph glyph-name="uni00EA.aalt" horiz-adv-x="516" 
d="M450 606l-34 -49l-135 67l-112 -68l-35 51l135 126h45zM470 0h-431v98h55v325h-55v98h433l16 -150l-109 -11l-10 63h-146v-113h222v-97h-222v-115h144l10 64l113 -10z" />
    <glyph glyph-name="uni00EB.aalt" horiz-adv-x="516" 
d="M134 583v134h129v-134h-129zM319 583v134h129v-134h-129zM470 0h-431v98h55v325h-55v98h433l16 -150l-109 -11l-10 63h-146v-113h222v-97h-222v-115h144l10 64l113 -10z" />
    <glyph glyph-name="uni0117.aalt" horiz-adv-x="516" 
d="M233 582v134h129v-134h-129zM470 0h-431v98h55v325h-55v98h433l16 -150l-109 -11l-10 63h-146v-113h222v-97h-222v-115h144l10 64l113 -10z" />
    <glyph glyph-name="uni00E8.sc" horiz-adv-x="516" 
d="M370 606l-34 -49l-195 91l67 101zM470 0h-431v98h55v325h-55v98h433l16 -150l-109 -11l-10 63h-146v-113h222v-97h-222v-115h144l10 64l113 -10z" />
    <glyph glyph-name="uni0113.aalt" horiz-adv-x="516" 
d="M423 587h-268v98h268v-98zM470 0h-431v98h55v325h-55v98h433l16 -150l-109 -11l-10 63h-146v-113h222v-97h-222v-115h144l10 64l113 -10z" />
    <glyph glyph-name="uni0119.aalt" horiz-adv-x="515" 
d="M479 -182q-17 -8 -38 -13.5t-49 -5.5q-46 0 -79.5 20.5t-33.5 67.5q0 37 20.5 66t51.5 47h-313v98h55v325h-55v98h433l16 -150l-109 -11l-10 63h-146v-113h222v-97h-222v-115h144l10 64l113 -10l-20 -152h-41q-28 -18 -36 -37t-8 -35q0 -26 12.5 -34t29.5 -8q24 0 44 11z
" />
    <glyph glyph-name="uni1EBD.smcp" horiz-adv-x="516" 
d="M431 697q0 -43 -16.5 -86.5t-66.5 -43.5q-38 0 -66.5 20.5t-58.5 20.5q-33 0 -45 -43l-50 16q-2 19 6 48.5t27 52.5t52 23q34 0 62.5 -19t54.5 -19q34 0 47 41zM470 0h-431v98h55v325h-55v98h433l16 -150l-109 -11l-10 63h-146v-113h222v-97h-222v-115h144l10 64l113 -10
z" />
    <glyph glyph-name="uni011F.aalt" horiz-adv-x="584" 
d="M455 703q0 -71 -39.5 -104.5t-102.5 -33.5q-137 0 -137 138h102q0 -61 37 -61q21 0 29.5 18.5t8.5 42.5h102zM425 50q-25 -26 -62.5 -42t-88.5 -16q-116 0 -183 75.5t-67 187.5q0 115 73.5 194.5t201.5 79.5q63 0 123 -18.5t86 -44.5l13 -123l-110 -8l-12 69
q-36 24 -89 24q-147 0 -147 -166q0 -89 39.5 -129t97.5 -40q48 0 77 24.5t29 72.5v4h-99v97h251v-97h-22v-194h-99z" />
    <glyph glyph-name="uni011D.aalt" horiz-adv-x="584" 
d="M463 606l-34 -49l-135 67l-112 -68l-35 51l135 126h45zM425 50q-25 -26 -62.5 -42t-88.5 -16q-116 0 -183 75.5t-67 187.5q0 115 73.5 194.5t201.5 79.5q63 0 123 -18.5t86 -44.5l13 -123l-110 -8l-12 69q-36 24 -89 24q-147 0 -147 -166q0 -89 39.5 -129t97.5 -40
q48 0 77 24.5t29 72.5v4h-99v97h251v-97h-22v-194h-99z" />
    <glyph glyph-name="uni0123.aalt" horiz-adv-x="584" 
d="M425 50q-25 -26 -62.5 -42t-88.5 -16q-116 0 -183 75.5t-67 187.5q0 115 73.5 194.5t201.5 79.5q63 0 123 -18.5t86 -44.5l13 -123l-110 -8l-12 69q-36 24 -89 24q-147 0 -147 -166q0 -89 39.5 -129t97.5 -40q48 0 77 24.5t29 72.5v4h-99v97h251v-97h-22v-194h-99z
M364 -58l-26 -155h-98l3 155h121z" />
    <glyph glyph-name="uni0121.aalt" horiz-adv-x="584" 
d="M251 582v134h129v-134h-129zM425 50q-25 -26 -62.5 -42t-88.5 -16q-116 0 -183 75.5t-67 187.5q0 115 73.5 194.5t201.5 79.5q63 0 123 -18.5t86 -44.5l13 -123l-110 -8l-12 69q-36 24 -89 24q-147 0 -147 -166q0 -89 39.5 -129t97.5 -40q48 0 77 24.5t29 72.5v4h-99v97
h251v-97h-22v-194h-99z" />
    <glyph glyph-name="uni0127.aalt" horiz-adv-x="653" 
d="M375 98h56v117h-208v-117h55v-98h-240v98h56v237h-59v66h59v22h-56v98h240v-98h-55v-22h208v22h-56v98h240v-98h-55v-22h53v-66h-53v-237h55v-98h-240v98zM223 313h208v22h-208v-22z" />
    <glyph glyph-name="uni0125.aalt" horiz-adv-x="653" 
d="M495 606l-34 -49l-135 67l-112 -68l-35 51l135 126h45zM38 98h56v325h-56v98h240v-98h-55v-110h208v110h-56v98h240v-98h-55v-325h55v-98h-240v98h56v117h-208v-117h55v-98h-240v98z" />
    <glyph glyph-name="uni00ED.aalt" horiz-adv-x="317" 
d="M315 648l-195 -91l-34 49l162 143zM38 98h56v325h-56v98h240v-98h-55v-325h55v-98h-240v98z" />
    <glyph glyph-name="uni012D.aalt" horiz-adv-x="316" 
d="M299 701q0 -71 -39.5 -104.5t-102.5 -33.5q-137 0 -137 138h102q0 -61 37 -61q21 0 29.5 18.5t8.5 42.5h102zM38 98h56v325h-56v98h240v-98h-55v-325h55v-98h-240v98z" />
    <glyph glyph-name="uni00EE.aalt" horiz-adv-x="317" 
d="M317 606l-34 -49l-135 67l-112 -68l-35 51l135 126h45zM38 98h56v325h-56v98h240v-98h-55v-325h55v-98h-240v98z" />
    <glyph glyph-name="uni00EF.aalt" horiz-adv-x="317" 
d="M188 583v134h129v-134h-129zM3 583v134h129v-134h-129zM38 98h56v325h-56v98h240v-98h-55v-325h55v-98h-240v98z" />
    <glyph glyph-name="idotaccent.smcp" horiz-adv-x="316" 
d="M93 582v134h129v-134h-129zM38 98h56v325h-56v98h240v-98h-55v-325h55v-98h-240v98z" />
    <glyph glyph-name="uni00EC.aalt" horiz-adv-x="316" 
d="M239 606l-34 -49l-195 91l67 101zM38 98h56v325h-56v98h240v-98h-55v-325h55v-98h-240v98z" />
    <glyph glyph-name="uni012B.aalt" horiz-adv-x="316" 
d="M292 587h-268v98h268v-98zM38 98h56v325h-56v98h240v-98h-55v-325h55v-98h-240v98z" />
    <glyph glyph-name="uni012F.aalt" horiz-adv-x="316" 
d="M38 98h56v325h-56v98h240v-98h-55v-325h55v-98h-74q-28 -18 -36.5 -37t-8.5 -36q0 -25 12.5 -33.5t29.5 -8.5q24 0 44 11l9 -79q-17 -7 -38 -13t-49 -6q-47 0 -80 21t-33 67q0 38 21 67t52 47h-89v98z" />
    <glyph glyph-name="uni0129.aalt" horiz-adv-x="317" 
d="M313 697q0 -43 -16.5 -86.5t-66.5 -43.5q-38 0 -66.5 20.5t-58.5 20.5q-33 0 -45 -43l-50 16q-2 19 6 48.5t27 52.5t52 23q34 0 62.5 -19t54.5 -19q34 0 47 41zM38 98h56v325h-56v98h240v-98h-55v-325h55v-98h-240v98z" />
    <glyph glyph-name="ij.aalt" horiz-adv-x="745" 
d="M448 521h268v-98h-48v-272q0 -80 -51 -119.5t-128 -39.5q-75 0 -112 31t-55 71l90 61q14 -36 33.5 -46t37.5 -10q56 0 56 51v273h-91v98zM38 98h56v325h-56v98h240v-98h-55v-325h55v-98h-240v98z" />
    <glyph glyph-name="iacute_jacute.smcp" horiz-adv-x="745" 
d="M315 648l-195 -91l-34 49l162 143zM748 648l-195 -91l-34 49l162 143zM448 521h268v-98h-48v-272q0 -80 -51 -119.5t-128 -39.5q-75 0 -112 31t-55 71l90 61q14 -36 33.5 -46t37.5 -10q56 0 56 51v273h-91v98zM38 98h56v325h-56v98h240v-98h-55v-325h55v-98h-240v98z" />
    <glyph glyph-name="uni0135.aalt" horiz-adv-x="428" 
d="M433 605l-34 -49l-135 67l-112 -68l-35 51l135 126h45zM131 521h268v-98h-48v-272q0 -80 -51 -119.5t-128 -39.5q-75 0 -112 31t-55 71l90 61q13 -36 33 -46t38 -10q56 0 56 51v273h-91v98z" />
    <glyph glyph-name="uni0137.aalt" horiz-adv-x="589" 
d="M322 98h51l-92 118h-58v-118h40v-98h-225v98h56v325h-56v98h228v-98h-43v-113h60l89 113h-46v98h238v-98h-58l-125 -150l139 -175h53v-98h-251v98zM359 -58l-26 -155h-98l3 155h121z" />
    <glyph glyph-name="uni013A.aalt" horiz-adv-x="487" 
d="M312 648l-195 -91l-34 49l162 143zM453 0h-414v98h55v325h-55v98h256v-98h-72v-325h124l13 98l113 -10z" />
    <glyph glyph-name="uni013E.aalt" horiz-adv-x="487" 
d="M442 548l-33 -202h-88l12 202h109zM452 0h-414v98h55v325h-55v98h256v-98h-72v-325h124l13 98l113 -10z" />
    <glyph glyph-name="uni013C.aalt" horiz-adv-x="487" 
d="M453 0h-414v98h55v325h-55v98h256v-98h-72v-325h124l13 98l113 -10zM361 -58l-26 -155h-98l3 155h121z" />
    <glyph glyph-name="uni0140.aalt" horiz-adv-x="493" 
d="M453 0h-414v98h55v325h-55v98h256v-98h-72v-325h124l13 98l113 -10zM290 220v132h125v-132h-125z" />
    <glyph glyph-name="uni0142.aalt" horiz-adv-x="489" 
d="M455 0h-414v98h55v104l-51 -14v86l51 14v135h-55v98h256v-98h-72v-98l126 36v-86l-126 -36v-141h124l13 98l113 -10z" />
    <glyph glyph-name="uni0144.aalt" horiz-adv-x="659" 
d="M488 648l-195 -91l-34 49l162 143zM378 521h253v-98h-55v-423l-71 -1l-285 318h-4v-219h72v-98h-249v98h57v325h-66v98h158l264 -294h4v196h-78v98z" />
    <glyph glyph-name="uni0149.aalt" horiz-adv-x="659" 
d="M20 569l50 199h107l-51 -199h-106zM39 98h57v325h-66v98h158l264 -294h4v196h-78v98h253v-98h-55v-423l-71 -1l-285 318h-4v-219h72v-98h-249v98z" />
    <glyph glyph-name="uni0148.aalt" horiz-adv-x="659" 
d="M486 684l-135 -126h-45l-136 127l34 49l135 -67l112 68zM39 98h57v325h-66v98h158l264 -294h4v196h-78v98h253v-98h-55v-423l-71 -1l-285 318h-4v-219h72v-98h-249v98z" />
    <glyph glyph-name="uni0146.aalt" horiz-adv-x="659" 
d="M378 521h253v-98h-55v-423l-71 -1l-285 318h-4v-219h72v-98h-249v98h57v325h-66v98h158l264 -294h4v196h-78v98zM424 -58l-26 -155h-98l3 155h121z" />
    <glyph glyph-name="uni00F1.aalt" horiz-adv-x="659" 
d="M482 697q0 -43 -17 -86.5t-66 -43.5q-38 0 -66.5 20.5t-58.5 20.5q-33 0 -45 -43l-50 16q-1 19 6.5 48.5t26.5 52.5t52 23q34 0 63 -19t54 -19q34 0 47 41zM39 98h57v325h-66v98h158l264 -294h4v196h-78v98h253v-98h-55v-423l-71 -1l-285 318h-4v-219h72v-98h-249v98z
" />
    <glyph glyph-name="uni1E47.smcp" horiz-adv-x="659" 
d="M378 521h253v-98h-55v-423l-71 -1l-285 318h-4v-219h72v-98h-249v98h57v325h-66v98h158l264 -294h4v196h-78v98zM268 -196v134h129v-134h-129z" />
    <glyph glyph-name="uni014B.aalt" horiz-adv-x="659" 
d="M39 98h57v325h-66v98h158l264 -294h4v196h-78v98h253v-98h-55v-457q0 -80 -48.5 -119.5t-125.5 -39.5q-75 0 -115 30.5t-57 71.5l90 61q14 -36 33 -46t36 -10q58 0 58 51v98l-227 254h-4v-219h72v-98h-249v98z" />
    <glyph glyph-name="uni00F3.aalt" horiz-adv-x="608" 
d="M475 650l-195 -91l-34 49l162 143zM306 529q134 0 206.5 -78.5t72.5 -188.5q0 -111 -73.5 -190.5t-209.5 -79.5q-137 0 -207.5 79.5t-70.5 188.5q0 115 75.5 192t206.5 77zM308 93q70 0 103.5 45.5t33.5 118.5q0 171 -141 171q-70 0 -105 -46.5t-35 -119.5
q0 -68 33.5 -118.5t110.5 -50.5z" />
    <glyph glyph-name="uni014F.aalt" horiz-adv-x="608" 
d="M443 701q0 -71 -39.5 -104.5t-102.5 -33.5q-137 0 -137 138h102q0 -61 37 -61q21 0 29.5 18.5t8.5 42.5h102zM306 529q134 0 206.5 -78.5t72.5 -188.5q0 -111 -73.5 -190.5t-209.5 -79.5q-137 0 -207.5 79.5t-70.5 188.5q0 115 75.5 192t206.5 77zM308 93
q70 0 103.5 45.5t33.5 118.5q0 171 -141 171q-70 0 -105 -46.5t-35 -119.5q0 -68 33.5 -118.5t110.5 -50.5z" />
    <glyph glyph-name="uni00F4.aalt" horiz-adv-x="608" 
d="M465 606l-34 -49l-135 67l-112 -68l-35 51l135 126h45zM306 529q134 0 206.5 -78.5t72.5 -188.5q0 -111 -73.5 -190.5t-209.5 -79.5q-137 0 -207.5 79.5t-70.5 188.5q0 115 75.5 192t206.5 77zM308 93q70 0 103.5 45.5t33.5 118.5q0 171 -141 171q-70 0 -105 -46.5
t-35 -119.5q0 -68 33.5 -118.5t110.5 -50.5z" />
    <glyph glyph-name="uni00F6.aalt" horiz-adv-x="608" 
d="M146 583v134h129v-134h-129zM331 583v134h129v-134h-129zM306 529q134 0 206.5 -78.5t72.5 -188.5q0 -111 -73.5 -190.5t-209.5 -79.5q-137 0 -207.5 79.5t-70.5 188.5q0 115 75.5 192t206.5 77zM308 93q70 0 103.5 45.5t33.5 118.5q0 171 -141 171q-70 0 -105 -46.5
t-35 -119.5q0 -68 33.5 -118.5t110.5 -50.5z" />
    <glyph glyph-name="uni00F2.aalt" horiz-adv-x="608" 
d="M379 606l-34 -49l-195 91l67 101zM306 529q134 0 206.5 -78.5t72.5 -188.5q0 -111 -73.5 -190.5t-209.5 -79.5q-137 0 -207.5 79.5t-70.5 188.5q0 115 75.5 192t206.5 77zM308 93q70 0 103.5 45.5t33.5 118.5q0 171 -141 171q-70 0 -105 -46.5t-35 -119.5
q0 -68 33.5 -118.5t110.5 -50.5z" />
    <glyph glyph-name="uni00F5.aalt" horiz-adv-x="608" 
d="M458 697q0 -43 -17 -86.5t-66 -43.5q-38 0 -66.5 20.5t-58.5 20.5q-33 0 -45 -43l-50 16q-1 19 6.5 48.5t26.5 52.5t52 23q34 0 63 -19t54 -19q34 0 47 41zM306 529q134 0 206.5 -78.5t72.5 -188.5q0 -111 -73.5 -190.5t-209.5 -79.5q-137 0 -207.5 79.5t-70.5 188.5
q0 115 75.5 192t206.5 77zM308 93q70 0 103.5 45.5t33.5 118.5q0 171 -141 171q-70 0 -105 -46.5t-35 -119.5q0 -68 33.5 -118.5t110.5 -50.5z" />
    <glyph glyph-name="uni0151.aalt" horiz-adv-x="608" 
d="M385 712l-150 -154l-49 34l101 191zM550 649l-195 -91l-34 49l162 143zM306 529q134 0 206.5 -78.5t72.5 -188.5q0 -111 -73.5 -190.5t-209.5 -79.5q-137 0 -207.5 79.5t-70.5 188.5q0 115 75.5 192t206.5 77zM308 93q70 0 103.5 45.5t33.5 118.5q0 171 -141 171
q-70 0 -105 -46.5t-35 -119.5q0 -68 33.5 -118.5t110.5 -50.5z" />
    <glyph glyph-name="uni00F8.aalt" horiz-adv-x="610" 
d="M307 529q41 0 76 -8.5t64 -22.5l20 23h120l-68 -78q67 -73 67 -181q0 -111 -73.5 -190.5t-209.5 -79.5q-83 0 -146 33l-22 -25h-109l65 76q-66 74 -66 184q0 115 75.5 192t206.5 77zM165 262q0 -47 13 -82l196 232q-30 16 -69 16q-71 0 -105.5 -46.5t-34.5 -119.5z
M309 93q71 0 104 45.5t33 118.5q0 49 -14 86l-200 -231q33 -19 77 -19z" />
    <glyph glyph-name="uni01FF.aalt" horiz-adv-x="610" 
d="M494 648l-195 -91l-34 49l162 143zM307 529q41 0 76 -8.5t64 -22.5l20 23h120l-68 -78q67 -73 67 -181q0 -111 -73.5 -190.5t-209.5 -79.5q-83 0 -146 33l-22 -25h-109l65 76q-66 74 -66 184q0 115 75.5 192t206.5 77zM165 262q0 -47 13 -82l196 232q-30 16 -69 16
q-71 0 -105.5 -46.5t-34.5 -119.5zM309 93q71 0 104 45.5t33 118.5q0 49 -14 86l-200 -231q33 -19 77 -19z" />
    <glyph glyph-name="uni014D.aalt" horiz-adv-x="608" 
d="M445 587h-268v98h268v-98zM306 529q134 0 206.5 -78.5t72.5 -188.5q0 -111 -73.5 -190.5t-209.5 -79.5q-137 0 -207.5 79.5t-70.5 188.5q0 115 75.5 192t206.5 77zM308 93q70 0 103.5 45.5t33.5 118.5q0 171 -141 171q-70 0 -105 -46.5t-35 -119.5q0 -68 33.5 -118.5
t110.5 -50.5z" />
    <glyph glyph-name="uni0155.aalt" horiz-adv-x="553" 
d="M445 648l-195 -91l-34 49l162 143zM39 98h55v325h-55v98h250q102 0 160 -39.5t58 -115.5q0 -55 -28.5 -91t-73.5 -53l71 -124h62v-98h-149l-108 196h-58v-98h54v-98h-238v98zM262 287q63 0 84.5 18.5t21.5 53.5q0 37 -22 50.5t-81 13.5h-42v-136h39z" />
    <glyph glyph-name="uni0159.aalt" horiz-adv-x="553" 
d="M440 684l-135 -126h-45l-136 127l34 49l135 -67l112 68zM39 98h55v325h-55v98h250q102 0 160 -39.5t58 -115.5q0 -55 -28.5 -91t-73.5 -53l71 -124h62v-98h-149l-108 196h-58v-98h54v-98h-238v98zM262 287q63 0 84.5 18.5t21.5 53.5q0 37 -22 50.5t-81 13.5h-42v-136h39z
" />
    <glyph glyph-name="uni0157.aalt" horiz-adv-x="553" 
d="M39 98h55v325h-55v98h250q102 0 160 -39.5t58 -115.5q0 -55 -28.5 -91t-73.5 -53l71 -124h62v-98h-149l-108 196h-58v-98h54v-98h-238v98zM262 287q63 0 84.5 18.5t21.5 53.5q0 37 -22 50.5t-81 13.5h-42v-136h39zM361 -58l-26 -155h-98l3 155h121z" />
    <glyph glyph-name="uni015B.aalt" horiz-adv-x="491" 
d="M407 647l-195 -91l-34 49l162 143zM461 162q0 -83 -63.5 -126.5t-160.5 -43.5q-62 0 -114.5 16t-86.5 39l19 131l108 -8l-4 -59q20 -11 42.5 -14t39.5 -3q47 0 64 15t17 38q0 40 -33.5 55t-71.5 22q-41 8 -82 20t-67.5 40.5t-26.5 84.5q0 65 34.5 99.5t84.5 47.5t96 13
q58 0 102.5 -14.5t74.5 -35.5l13 -128l-108 -8l-12 69q-21 10 -41 13t-34 3q-25 0 -48 -9t-23 -35q0 -28 26 -40t59 -18q25 -4 71.5 -16.5t85.5 -46t39 -101.5z" />
    <glyph glyph-name="uni0161.aalt" horiz-adv-x="491" 
d="M410 684l-135 -126h-45l-136 127l34 49l135 -67l112 68zM461 162q0 -83 -63.5 -126.5t-160.5 -43.5q-62 0 -114.5 16t-86.5 39l19 131l108 -8l-4 -59q20 -11 42.5 -14t39.5 -3q47 0 64 15t17 38q0 40 -33.5 55t-71.5 22q-41 8 -82 20t-67.5 40.5t-26.5 84.5
q0 65 34.5 99.5t84.5 47.5t96 13q58 0 102.5 -14.5t74.5 -35.5l13 -128l-108 -8l-12 69q-21 10 -41 13t-34 3q-25 0 -48 -9t-23 -35q0 -28 26 -40t59 -18q25 -4 71.5 -16.5t85.5 -46t39 -101.5z" />
    <glyph glyph-name="uni015F.aalt" horiz-adv-x="491" 
d="M395 -125q0 -50 -41 -69t-89 -19q-79 0 -116 30l23 70q11 -7 30.5 -15t47.5 -8q36 0 36 21q0 11 -7.5 18t-31.5 7h-37v83q-54 3 -99 18t-75 36l19 131l108 -8l-4 -59q20 -11 42.5 -14t39.5 -3q47 0 64 15t17 38q0 40 -33.5 55t-71.5 22q-41 8 -82 20t-67.5 40.5
t-26.5 84.5q0 65 34.5 99.5t84.5 47.5t96 13q58 0 102.5 -14.5t74.5 -35.5l13 -128l-108 -8l-12 69q-21 10 -41 13t-34 3q-25 0 -48 -9t-23 -35q0 -28 26 -40t59 -18q25 -4 71.5 -16.5t85.5 -46t39 -101.5q0 -70 -45 -111.5t-118 -53.5v-42h8q50 0 69.5 -25.5t19.5 -54.5z
" />
    <glyph glyph-name="uni015D.aalt" horiz-adv-x="491" 
d="M403 606l-34 -49l-135 67l-112 -68l-35 51l135 126h45zM461 162q0 -83 -63.5 -126.5t-160.5 -43.5q-62 0 -114.5 16t-86.5 39l19 131l108 -8l-4 -59q20 -11 42.5 -14t39.5 -3q47 0 64 15t17 38q0 40 -33.5 55t-71.5 22q-41 8 -82 20t-67.5 40.5t-26.5 84.5
q0 65 34.5 99.5t84.5 47.5t96 13q58 0 102.5 -14.5t74.5 -35.5l13 -128l-108 -8l-12 69q-21 10 -41 13t-34 3q-25 0 -48 -9t-23 -35q0 -28 26 -40t59 -18q25 -4 71.5 -16.5t85.5 -46t39 -101.5z" />
    <glyph glyph-name="uni0219.aalt" horiz-adv-x="491" 
d="M461 162q0 -83 -63.5 -126.5t-160.5 -43.5q-62 0 -114.5 16t-86.5 39l19 131l108 -8l-4 -59q20 -11 42.5 -14t39.5 -3q47 0 64 15t17 38q0 40 -33.5 55t-71.5 22q-41 8 -82 20t-67.5 40.5t-26.5 84.5q0 65 34.5 99.5t84.5 47.5t96 13q58 0 102.5 -14.5t74.5 -35.5
l13 -128l-108 -8l-12 69q-21 10 -41 13t-34 3q-25 0 -48 -9t-23 -35q0 -28 26 -40t59 -18q25 -4 71.5 -16.5t85.5 -46t39 -101.5zM318 -58l-26 -155h-98l3 155h121z" />
    <glyph glyph-name="uni1E63.smcp" horiz-adv-x="491" 
d="M461 162q0 -83 -63.5 -126.5t-160.5 -43.5q-62 0 -114.5 16t-86.5 39l19 131l108 -8l-4 -59q20 -11 42.5 -14t39.5 -3q47 0 64 15t17 38q0 40 -33.5 55t-71.5 22q-41 8 -82 20t-67.5 40.5t-26.5 84.5q0 65 34.5 99.5t84.5 47.5t96 13q58 0 102.5 -14.5t74.5 -35.5
l13 -128l-108 -8l-12 69q-21 10 -41 13t-34 3q-25 0 -48 -9t-23 -35q0 -28 26 -40t59 -18q25 -4 71.5 -16.5t85.5 -46t39 -101.5zM193 -196v134h129v-134h-129z" />
    <glyph glyph-name="uni0167.aalt" horiz-adv-x="563" 
d="M553 333l-113 -10l-13 100h-81v-143h96v-65h-96v-117h87v-98h-297v98h81v117h-95v65h95v143h-80l-13 -100l-114 10l20 188h503z" />
    <glyph glyph-name="uni0165.aalt" horiz-adv-x="566" 
d="M436 684l-135 -126h-45l-136 127l34 49l135 -67l112 68zM554 333l-113 -10l-13 100h-81v-325h87v-98h-297v98h81v325h-80l-13 -100l-114 10l20 188h503z" />
    <glyph glyph-name="uni0163.aalt" horiz-adv-x="566" 
d="M554 333l-113 -10l-13 100h-81v-325h87v-98h-297v98h81v325h-80l-13 -100l-114 10l20 188h503zM347 -58l-26 -155h-98l3 155h121z" />
    <glyph glyph-name="uni021B.smcp" horiz-adv-x="566" 
d="M554 333l-113 -10l-13 100h-81v-325h87v-98h-297v98h81v325h-80l-13 -100l-114 10l20 188h503zM347 -58l-26 -155h-98l3 155h121z" />
    <glyph glyph-name="thorn.aalt" horiz-adv-x="529" 
d="M38 98h56v325h-56v98h240v-98h-55v-12h81q101 0 157.5 -35t56.5 -110q0 -84 -63.5 -118t-145.5 -34h-86v-16h55v-98h-240v98zM284 184q57 0 76 22t19 57q0 37 -19.5 56.5t-72.5 19.5h-64v-155h61z" />
    <glyph glyph-name="uni00FA.aalt" 
d="M480 648l-195 -91l-34 49l162 143zM364 521h227v-98h-47v-207q0 -83 -53 -153.5t-186 -70.5q-125 0 -178 65.5t-53 149.5v216h-46v98h235v-98h-60v-212q0 -50 23.5 -84t85.5 -34q61 0 86.5 34.5t25.5 88.5v207h-60v98z" />
    <glyph glyph-name="uni016D.aalt" 
d="M448 701q0 -71 -39.5 -104.5t-102.5 -33.5q-137 0 -137 138h102q0 -61 37 -61q21 0 29.5 18.5t8.5 42.5h102zM364 521h227v-98h-47v-207q0 -83 -53 -153.5t-186 -70.5q-125 0 -178 65.5t-53 149.5v216h-46v98h235v-98h-60v-212q0 -50 23.5 -84t85.5 -34q61 0 86.5 34.5
t25.5 88.5v207h-60v98z" />
    <glyph glyph-name="uni00FB.aalt" 
d="M471 606l-34 -49l-135 67l-112 -68l-35 51l135 126h45zM364 521h227v-98h-47v-207q0 -83 -53 -153.5t-186 -70.5q-125 0 -178 65.5t-53 149.5v216h-46v98h235v-98h-60v-212q0 -50 23.5 -84t85.5 -34q61 0 86.5 34.5t25.5 88.5v207h-60v98z" />
    <glyph glyph-name="uni00FC.aalt" 
d="M340 583v134h129v-134h-129zM155 583v134h129v-134h-129zM364 521h227v-98h-47v-207q0 -83 -53 -153.5t-186 -70.5q-125 0 -178 65.5t-53 149.5v216h-46v98h235v-98h-60v-212q0 -50 23.5 -84t85.5 -34q61 0 86.5 34.5t25.5 88.5v207h-60v98z" />
    <glyph glyph-name="uni00F9.aalt" 
d="M366 606l-34 -49l-195 91l67 101zM364 521h227v-98h-47v-207q0 -83 -53 -153.5t-186 -70.5q-125 0 -178 65.5t-53 149.5v216h-46v98h235v-98h-60v-212q0 -50 23.5 -84t85.5 -34q61 0 86.5 34.5t25.5 88.5v207h-60v98z" />
    <glyph glyph-name="uni0171.aalt" 
d="M388 712l-150 -154l-49 34l101 191zM553 649l-195 -91l-34 49l162 143zM364 521h227v-98h-47v-207q0 -83 -53 -153.5t-186 -70.5q-125 0 -178 65.5t-53 149.5v216h-46v98h235v-98h-60v-212q0 -50 23.5 -84t85.5 -34q61 0 86.5 34.5t25.5 88.5v207h-60v98z" />
    <glyph glyph-name="uni016B.aalt" 
d="M450 588h-268v98h268v-98zM364 521h227v-98h-47v-207q0 -83 -53 -153.5t-186 -70.5q-125 0 -178 65.5t-53 149.5v216h-46v98h235v-98h-60v-212q0 -50 23.5 -84t85.5 -34q61 0 86.5 34.5t25.5 88.5v207h-60v98z" />
    <glyph glyph-name="uni0173.aalt" 
d="M427 -180q-17 -8 -38 -13.5t-49 -5.5q-46 0 -79.5 20.5t-33.5 67.5q0 32 16 58.5t41 45.5q-114 5 -162 69t-48 145v216h-46v98h235v-98h-60v-212q0 -50 23.5 -84t85.5 -34q61 0 86.5 34.5t25.5 88.5v207h-60v98h227v-98h-47v-207q0 -72 -39.5 -136t-135.5 -82
q-23 -17 -30 -35t-7 -33q0 -26 12.5 -34t29.5 -8q24 0 44 11z" />
    </font>
</defs>
</svg>
