<svg width="200" height="37" viewBox="0 0 200 37" xmlns="http://www.w3.org/2000/svg"><title>Logo W</title><g fill="none" fill-rule="evenodd"><g fill-rule="nonzero"><path fill="#FFF" d="M0 0h55.904v15.857H0z"/><path d="M53.929 11.13a1.1 1.1 0 0 1-.298.046c-.33 0-.486-.136-.486-.53V7.692c0-1.56-1.286-2.317-2.807-2.317-1.16 0-1.788.137-3.026.621l-.251 1.575 1.615.167.235-.773c.33-.166.659-.196 1.082-.196 1.145 0 1.16.833 1.16 1.53v.226a9.58 9.58 0 0 0-1.16-.06c-1.615 0-3.293.394-3.293 2.075 0 1.423 1.16 1.954 2.18 1.954 1.144 0 1.866-.667 2.273-1.364.094.833.612 1.364 1.553 1.364.439 0 .894-.122 1.27-.319l-.047-1.045zm-4.328-.045c-.612 0-.831-.348-.831-.788 0-.742.627-.939 1.348-.939.33 0 .69.046 1.02.091-.047 1.136-.816 1.636-1.537 1.636zm-2.713-9.163L43.83 12.327H41.84l3.058-10.405h1.991zm-4.108 0l-3.058 10.405H37.73l3.058-10.405h1.992zm-8.468 3.59h2.117v2.453h-2.117V5.512zm0 4.377h2.117v2.453h-2.117V9.89zm-3.09-.091l1.6.151-.439 2.393h-6.162l-.204-1.03 3.889-4.316h-2.211l-.314 1.06-1.458-.152.25-2.392h6.195l.156 1.03-3.92 4.316h2.29l.329-1.06zM21.11 5.375c-2.54 0-3.795 1.651-3.795 3.65 0 2.181 1.505 3.469 3.685 3.469 2.258 0 3.889-1.379 3.889-3.56 0-1.908-1.239-3.559-3.78-3.559zm-.047 5.604c-1.098 0-1.663-.909-1.663-2.09 0-1.287.643-2.03 1.678-2.03.957 0 1.725.621 1.725 2 0 1.317-.69 2.12-1.74 2.12zm-5.567-.136h.94v1.484h-2.947V8.495c0-1.181-.408-1.636-1.208-1.636-.972 0-1.364.667-1.364 1.621v2.378h.94v1.484H8.894V8.495c0-1.181-.408-1.636-1.207-1.636-.972 0-1.364.667-1.364 1.621v2.378H7.67v1.484H3.373v-1.484h.941V6.996h-.94V5.512h2.963v1.03c.424-.728 1.16-1.167 2.148-1.167 1.02 0 1.96.47 2.306 1.47.392-.91 1.191-1.47 2.305-1.47 1.27 0 2.43.742 2.43 2.363v3.105h-.031z" fill="#000"/></g><path d="M5.647 31.714H.85v-1.291h1.66V19.888H.85v-1.292h4.797v1.292h-1.64v10.535h1.64v1.291zm12.286 0H13.38v-1.15h1.559v-4.178c0-.968-.196-1.651-.587-2.048-.391-.397-.89-.596-1.498-.596-.81 0-1.46.266-1.953.798-.493.531-.753 1.14-.78 1.826v4.198h1.58v1.15H7.124v-1.15h1.579v-6.68h-1.62v-1.15h3.036v1.594c.648-1.184 1.7-1.776 3.158-1.776.877 0 1.613.269 2.206.807.594.538.89 1.406.89 2.603v4.602h1.56v1.15zm7.59-2.422c-.242 1.75-1.193 2.624-2.853 2.624-.904 0-1.596-.256-2.075-.767-.479-.511-.718-1.204-.718-2.079v-5.206h-1.458v-1.13h1.458v-2.887h1.416v2.886h3.522v1.13h-3.522v5.026c0 .538.119.972.355 1.302.236.33.624.494 1.164.494.35 0 .678-.108.981-.323.304-.215.523-.686.658-1.413l1.073.343zm8.907-.161c-.122.767-.506 1.423-1.154 1.968-.648.545-1.525.817-2.631.817-1.269 0-2.294-.397-3.077-1.19-.782-.794-1.174-1.918-1.174-3.371 0-1.4.371-2.55 1.113-3.451.743-.902 1.748-1.352 3.016-1.352 1.242 0 2.186.39 2.834 1.17.648.78.978 1.702.992 2.765 0 .35-.04.707-.122 1.07h-6.335c.081 2.099 1.032 3.148 2.854 3.148.715 0 1.275-.168 1.68-.504.405-.337.675-.78.81-1.332l1.194.262zm-1.579-2.624a2.869 2.869 0 0 0-.476-1.897c-.384-.592-1.015-.888-1.892-.888-.837 0-1.45.276-1.842.828-.391.551-.634 1.204-.729 1.957h4.94zm8.036-3.935c.647 0 1.16.155 1.538.464l.344 2.26-1.154.142-.344-1.534a2.062 2.062 0 0 0-.688-.121c-.526 0-.965.218-1.316.656-.35.437-.526 1.005-.526 1.705v4.42h2.085v1.15h-5.08v-1.15h1.578v-6.68h-1.619v-1.15h2.955v1.614c.176-.498.462-.918.86-1.261a2.033 2.033 0 0 1 1.367-.515zm14.168 9.142h-4.554v-1.15h1.559v-4.178c0-.968-.196-1.651-.587-2.048-.392-.397-.89-.596-1.498-.596-.81 0-1.46.266-1.953.798-.493.531-.753 1.14-.78 1.826v4.198h1.58v1.15h-4.575v-1.15h1.579v-6.68h-1.62v-1.15h3.036v1.594c.648-1.184 1.7-1.776 3.158-1.776.877 0 1.613.269 2.206.807.594.538.89 1.406.89 2.603v4.602h1.56v1.15zm8.987-2.583c-.121.767-.506 1.423-1.153 1.968-.648.545-1.525.817-2.632.817-1.268 0-2.294-.397-3.076-1.19-.783-.794-1.174-1.918-1.174-3.371 0-1.4.37-2.55 1.113-3.451.742-.902 1.747-1.352 3.016-1.352 1.241 0 2.186.39 2.834 1.17.647.78.978 1.702.991 2.765 0 .35-.04.707-.121 1.07h-6.335c.08 2.099 1.032 3.148 2.854 3.148.715 0 1.275-.168 1.68-.504.404-.337.674-.78.81-1.332l1.193.262zm-1.578-2.624a2.869 2.869 0 0 0-.476-1.897c-.385-.592-1.015-.888-1.893-.888-.836 0-1.45.276-1.842.828-.39.551-.634 1.204-.728 1.957h4.939zm9.695 2.785c-.243 1.75-1.194 2.624-2.854 2.624-.904 0-1.596-.256-2.075-.767-.479-.511-.718-1.204-.718-2.079v-5.206h-1.458v-1.13h1.458v-2.887h1.417v2.886h3.522v1.13h-3.522v5.026c0 .538.118.972.354 1.302.236.33.624.494 1.164.494.35 0 .678-.108.981-.323.304-.215.523-.686.658-1.413l1.073.343zm19.128 2.422H86.49v-1.291h1.66V25.66h-7.308v4.763h1.66v1.291h-4.797v-1.291h1.66V19.888h-1.66v-1.292h4.797v1.292h-1.66v4.52h7.307v-4.52h-1.66v-1.292h4.798v1.292h-1.66v10.535h1.66v1.291zm9.655-2.583c-.122.767-.506 1.423-1.154 1.968-.648.545-1.525.817-2.631.817-1.269 0-2.294-.397-3.077-1.19-.783-.794-1.174-1.918-1.174-3.371 0-1.4.371-2.55 1.113-3.451.742-.902 1.748-1.352 3.016-1.352 1.242 0 2.186.39 2.834 1.17.648.78.978 1.702.992 2.765 0 .35-.04.707-.122 1.07h-6.335c.08 2.099 1.032 3.148 2.854 3.148.715 0 1.275-.168 1.68-.504.405-.337.675-.78.81-1.332l1.194.262zm-1.58-2.624a2.869 2.869 0 0 0-.475-1.897c-.384-.592-1.015-.888-1.892-.888-.837 0-1.45.276-1.842.828-.392.551-.634 1.204-.729 1.957h4.939zm3.928-3.087c.472-.31.971-.532 1.497-.666a6.762 6.762 0 0 1 1.68-.202c2.146 0 3.219 1.002 3.219 3.007v4.278c0 .646.256.97.769.97.23 0 .432-.041.607-.122l.02.928a2.385 2.385 0 0 1-1.174.303c-1.066 0-1.612-.605-1.64-1.816v-.04c-.282.484-.684.914-1.203 1.291-.52.377-1.144.565-1.873.565-.593 0-1.197-.182-1.811-.545-.614-.363-.921-1.022-.921-1.978 0-1.13.448-1.873 1.346-2.23a7.685 7.685 0 0 1 2.864-.535c.27 0 .543.007.82.02.276.014.536.034.779.061v-.807c0-.646-.138-1.17-.415-1.574-.277-.404-.82-.606-1.63-.606-.66 0-1.24.121-1.74.364l-.344 1.554-1.174-.142.324-2.078zm4.979 4.924v-.686a19.256 19.256 0 0 1-.81-.06 9.204 9.204 0 0 0-.87-.041c-.675 0-1.285.104-1.832.313-.546.208-.82.662-.82 1.362 0 .578.183.975.547 1.19.364.216.742.324 1.133.324.621 0 1.205-.216 1.751-.646.547-.43.847-1.016.9-1.756zm8.137 3.37h-4.575v-1.15h1.58V18.98h-1.6v-1.15h3.016v12.734h1.579v1.15zm7.813-2.422c-.243 1.75-1.194 2.624-2.854 2.624-.904 0-1.596-.256-2.075-.767-.479-.511-.718-1.204-.718-2.079v-5.206h-1.458v-1.13h1.458v-2.887h1.416v2.886h3.522v1.13h-3.522v5.026c0 .538.119.972.355 1.302.236.33.624.494 1.164.494.35 0 .678-.108.981-.323.304-.215.523-.686.658-1.413l1.073.343zm11.254 2.422h-4.575v-1.15h1.58v-4.178c0-.968-.2-1.651-.598-2.048-.398-.397-.907-.596-1.528-.596-.783 0-1.42.266-1.913.798-.492.531-.752 1.126-.78 1.786v4.238h1.56v1.15h-4.555v-1.15h1.559V18.98h-1.559v-1.15h2.996v6.518c.661-1.198 1.713-1.796 3.157-1.796.877 0 1.613.269 2.207.807.593.538.89 1.406.89 2.603v4.602h1.559v1.15zm17.063 0h-2.631l-2.834-5.49h-2.814v4.199h1.761v1.291H141.1v-1.291h1.66V19.888h-1.66v-1.292h5.687c1.633 0 2.8.353 3.502 1.06.702.706 1.053 1.59 1.053 2.654 0 .847-.236 1.604-.709 2.27-.472.666-1.174 1.12-2.105 1.362l2.348 4.48h1.66v1.292zm-2.753-9.344c0-.861-.25-1.49-.749-1.887-.5-.397-1.309-.595-2.429-.595h-2.348v5.106h2.389c1.12 0 1.923-.232 2.408-.697.486-.464.73-1.106.73-1.927zm11.76 6.761c-.121.767-.506 1.423-1.154 1.968-.647.545-1.524.817-2.63.817-1.27 0-2.295-.397-3.078-1.19-.782-.794-1.174-1.918-1.174-3.371 0-1.4.372-2.55 1.114-3.451.742-.902 1.747-1.352 3.016-1.352 1.241 0 2.186.39 2.833 1.17.648.78.979 1.702.992 2.765 0 .35-.04.707-.121 1.07h-6.336c.081 2.099 1.033 3.148 2.854 3.148.715 0 1.275-.168 1.68-.504.405-.337.675-.78.81-1.332l1.194.262zm-1.579-2.624a2.869 2.869 0 0 0-.475-1.897c-.385-.592-1.016-.888-1.893-.888-.836 0-1.45.276-1.842.828-.391.551-.634 1.204-.728 1.957h4.938zm12.65.465c0 .793-.137 1.57-.414 2.33a4.251 4.251 0 0 1-1.316 1.877c-.6.492-1.393.737-2.378.737-1.363 0-2.355-.504-2.975-1.514v4.46h2.084v1.151h-5.1v-1.15h1.599v-10.98h-1.62v-1.15h3.037v1.877a4.37 4.37 0 0 1 1.174-1.433c.512-.417 1.187-.625 2.024-.625 1.16 0 2.098.39 2.813 1.17.715.78 1.073 1.864 1.073 3.25zm-1.497.12c0-1.076-.263-1.9-.79-2.472a2.56 2.56 0 0 0-1.963-.857c-.81 0-1.477.32-2.004.958-.526.64-.802 1.302-.83 1.988v1.332c0 .754.264 1.386.79 1.897.526.512 1.16.767 1.903.767 1.012 0 1.747-.363 2.206-1.09.459-.726.688-1.567.688-2.522zm11.902.122c0 1.359-.405 2.482-1.215 3.37-.81.888-1.91 1.332-3.299 1.332-1.363 0-2.432-.43-3.208-1.292-.776-.86-1.164-1.97-1.164-3.33 0-1.305.378-2.425 1.134-3.36.755-.935 1.862-1.402 3.319-1.402 1.47 0 2.577.46 3.32 1.382.742.922 1.113 2.022 1.113 3.3zm-1.498-.02c0-1.023-.26-1.854-.78-2.493-.519-.639-1.25-.959-2.195-.959-.945 0-1.67.33-2.176.99-.506.659-.76 1.486-.76 2.482 0 .982.25 1.81.75 2.482.499.673 1.227 1.01 2.186 1.01.958 0 1.693-.334 2.206-1 .513-.666.769-1.503.769-2.512zm7.995-4.622c.648 0 1.16.155 1.538.464l.345 2.26-1.154.142-.344-1.534a2.062 2.062 0 0 0-.688-.121c-.527 0-.965.218-1.316.656-.351.437-.526 1.005-.526 1.705v4.42h2.084v1.15h-5.08v-1.15h1.579v-6.68h-1.62v-1.15h2.956v1.614c.175-.498.462-.918.86-1.261a2.033 2.033 0 0 1 1.366-.515zm10.161 6.72c-.243 1.75-1.194 2.624-2.854 2.624-.904 0-1.596-.256-2.075-.767-.479-.511-.718-1.204-.718-2.079v-5.206h-1.457v-1.13h1.457v-2.887h1.417v2.886h3.522v1.13h-3.522v5.026c0 .538.118.972.354 1.302.236.33.624.494 1.164.494.35 0 .678-.108.982-.323.303-.215.522-.686.657-1.413l1.073.343z" fill="#FFF"/></g></svg>