<?xml version="1.0" encoding="UTF-8"?>
<svg width="17px" height="25px" viewBox="0 0 17 25" version="1.1" xmlns="http://www.w3.org/2000/svg" xmlns:xlink="http://www.w3.org/1999/xlink">
    <!-- Generator: Sketch 49 (51002) - http://www.bohemiancoding.com/sketch -->
    <title>facebook</title>
    <desc>Created with Sketch.</desc>
    <defs></defs>
    <g id="Page-1" stroke="none" stroke-width="1" fill="none" fill-rule="evenodd">
        <g id="02_02_Mobile_Elements" transform="translate(-152.000000, -6007.000000)" fill="#000000" fill-rule="nonzero">
            <path d="M166.191,6011.99448 L166.191,6009.19055 L158.517212,6009.19055 C157.884591,6009.19055 157.371242,6009.70402 157.371242,6010.33722 L157.371242,6013.99476 L154.348485,6013.99476 L154.348485,6017.77682 L157.371242,6017.77682 L157.371242,6029.54585 L161.167939,6029.54585 L161.167939,6016.73276 L166.191,6016.73276 L166.191,6013.99448 L161.313733,6013.99448 L161.313733,6011.99448 L166.191,6011.99448 Z M155.371242,6011.99476 L155.371242,6010.33722 C155.371242,6008.59955 156.779921,6007.19055 158.517212,6007.19055 L168.191,6007.19055 L168.191,6018.73276 L163.167939,6018.73276 L163.167939,6031.54585 L155.371242,6031.54585 L155.371242,6019.77682 L152.348485,6019.77682 L152.348485,6011.99476 L155.371242,6011.99476 Z" id="facebook"></path>
        </g>
    </g>
</svg>