<?xml version="1.0" encoding="UTF-8"?>
<svg width="27px" height="22px" viewBox="0 0 27 22" version="1.1" xmlns="http://www.w3.org/2000/svg" xmlns:xlink="http://www.w3.org/1999/xlink">
    <!-- Generator: Sketch 49 (51002) - http://www.bohemiancoding.com/sketch -->
    <title>twitter</title>
    <desc>Created with Sketch.</desc>
    <defs></defs>
    <g id="Page-1" stroke="none" stroke-width="1" fill="none" fill-rule="evenodd">
        <g id="02_02_Mobile_Elements" transform="translate(-225.000000, -6008.000000)" fill="#000000" fill-rule="nonzero">
            <g id="twitter" transform="translate(225.000000, 6008.000000)">
                <path d="M23.2210427,8 L26.3333333,8 L26.3333333,10 L23.3309413,10 C23.3305604,10.0167999 23.3301413,10.0334229 23.3296852,10.0498665 C23.326806,16.0859029 17.8407573,22 11.663403,22 C5.21733601,22 0,16.6730809 0,10.1124196 C0,9.7085403 0.0202352789,9.30475133 0.0601073821,8.90062123 L0.175265707,7.73341553 L5.10767597,9.03038572 L5.10767597,1 L7.10695355,0.961995623 C7.11264814,1.11172791 7.14648172,1.41210187 7.2308938,1.81005947 C7.37314268,2.48068642 7.60842126,3.15027391 7.95417847,3.76739323 C8.79539926,5.26883296 10.1377065,6.23343044 12.1827837,6.46059015 C12.4447882,3.73133507 14.7059665,1.59164253 17.4655227,1.59227205 C20.2755913,1.5931432 22.0116282,3.33668556 22.823727,6.06727834 C23.0089464,6.69005817 23.1383151,7.33981558 23.2210422,7.99999992 Z M11.663403,20 C16.7012219,20 21.326806,15.0135052 21.3281495,10.0606017 C21.3284109,10.0563744 21.3284109,10.0563744 21.3304542,9.99441274 C21.3395813,9.66535892 21.330312,9.23297338 21.2879591,8.73777535 C21.2257061,8.00990249 21.1024757,7.29564664 20.906712,6.63741301 C20.3213313,4.66913465 19.249655,3.59282524 17.4649846,3.59227197 C15.6432972,3.59185641 14.1574381,5.10928702 14.1574381,6.99137112 L14.1574381,8.51235992 L13.1574381,8.51235992 C10.4740897,8.51235992 8.47237181,7.59722122 7.10767597,6.02844493 L7.10767597,11.6242693 L2.00138496,10.2815774 C2.08965883,15.6686695 6.38643888,20 11.663403,20 Z"></path>
            </g>
        </g>
    </g>
</svg>